<svg width="135" height="38" viewBox="0 0 135 38" fill="none" xmlns="http://www.w3.org/2000/svg">
<rect x="0.389648" y="0.728813" width="134.068" height="36.7797" rx="15.5" fill="#2F2D46"/>
<path d="M97.8311 24.1052V14.0084H99.4648V23.7948L98.2722 22.6021H101.736C102.313 22.6021 102.765 22.5477 103.092 22.4387C103.429 22.3189 103.669 22.1229 103.811 21.8506C103.952 21.5783 104.023 21.2079 104.023 20.7396C104.023 20.2604 103.952 19.89 103.811 19.6286C103.669 19.3563 103.429 19.1657 103.092 19.0568C102.765 18.937 102.313 18.8771 101.736 18.8771H98.2885V17.374H101.736C102.727 17.374 103.506 17.4775 104.072 17.6844C104.649 17.8914 105.058 18.2399 105.297 18.73C105.537 19.2093 105.657 19.8791 105.657 20.7396C105.657 21.6001 105.537 22.2754 105.297 22.7655C105.058 23.2447 104.649 23.5878 104.072 23.7948C103.506 24.0017 102.727 24.1052 101.736 24.1052H97.8311Z" fill="#ECF674"/>
<path d="M90.7953 24.1052V14.0084H92.4291V24.1052H90.7953ZM86.8252 15.5115V14.0084H96.3992V15.5115H86.8252Z" fill="#ECF674"/>
<path d="M81.5543 24.3339C80.6176 24.3339 79.8715 24.2305 79.316 24.0235C78.7605 23.8166 78.3575 23.4844 78.107 23.0269C77.8674 22.5694 77.7476 21.9595 77.7476 21.1971C77.7476 20.3475 77.8674 19.6885 78.107 19.2202C78.3575 18.7409 78.7605 18.4087 79.316 18.2236C79.8715 18.0384 80.6176 17.9458 81.5543 17.9458H83.7272V17.423C83.7272 16.922 83.6619 16.5299 83.5312 16.2467C83.4114 15.9526 83.1935 15.7457 82.8777 15.6258C82.5727 15.506 82.1316 15.4461 81.5543 15.4461C81.0968 15.4461 80.7374 15.4951 80.476 15.5932C80.2255 15.6803 80.0294 15.8491 79.8878 16.0996C79.7462 16.3502 79.6155 16.7041 79.4957 17.1616L77.9273 16.7695C78.1124 16.0615 78.3466 15.4897 78.6298 15.054C78.913 14.6183 79.2888 14.297 79.7571 14.0901C80.2255 13.8831 80.8245 13.7797 81.5543 13.7797C82.5019 13.7797 83.2534 13.9104 83.8089 14.1718C84.3644 14.4332 84.762 14.8362 85.0016 15.3808C85.2412 15.9145 85.361 16.5952 85.361 17.423V21.3604C85.361 21.7634 85.3937 22.0575 85.459 22.2427C85.5244 22.417 85.6496 22.5259 85.8348 22.5694C86.02 22.6021 86.2868 22.6076 86.6354 22.5858V24.0889C86.0145 24.1215 85.5135 24.078 85.1323 23.9582C84.762 23.8383 84.4842 23.6151 84.299 23.2883C84.103 23.5388 83.8743 23.7458 83.6129 23.9091C83.3623 24.0616 83.0683 24.1705 82.7306 24.2359C82.393 24.3013 82.0009 24.3339 81.5543 24.3339ZM81.5543 22.8308C82.1316 22.8308 82.5727 22.76 82.8777 22.6185C83.1935 22.4769 83.4114 22.2318 83.5312 21.8832C83.6619 21.5238 83.7272 21.0337 83.7272 20.4128V19.4489H81.5543C80.977 19.4489 80.5304 19.487 80.2146 19.5633C79.8987 19.6395 79.6809 19.8029 79.5611 20.0534C79.4413 20.293 79.3813 20.6742 79.3813 21.1971C79.3813 21.6109 79.4413 21.9377 79.5611 22.1773C79.6809 22.417 79.8987 22.5858 80.2146 22.6838C80.5304 22.7818 80.977 22.8308 81.5543 22.8308Z" fill="#ECF674"/>
<path d="M72.0194 24.3339C71.0174 24.3339 70.2223 24.2413 69.6341 24.0562C69.0568 23.871 68.6484 23.566 68.4087 23.1413C68.1691 22.7056 68.0493 22.112 68.0493 21.3604H69.6831C69.6831 21.9159 69.8465 22.3026 70.1732 22.5204C70.5109 22.7274 71.1263 22.8308 72.0194 22.8308C72.6185 22.8308 73.0868 22.7927 73.4245 22.7165C73.7621 22.6293 74.0017 22.4877 74.1433 22.2917C74.2958 22.0956 74.3721 21.8288 74.3721 21.4911C74.3721 21.0881 74.3067 20.7668 74.176 20.5272C74.0562 20.2876 73.8493 20.1079 73.5552 19.9881C73.2611 19.8574 72.8527 19.7757 72.3298 19.743H70.7941V18.2399H72.3298C72.8527 18.1963 73.2611 18.1201 73.5552 18.0112C73.8493 17.9023 74.0562 17.7334 74.176 17.5047C74.3067 17.276 74.3721 16.9764 74.3721 16.6061C74.3721 16.2685 74.2958 16.0071 74.1433 15.8219C74.0017 15.6258 73.7621 15.4897 73.4245 15.4135C73.0868 15.3263 72.6185 15.2827 72.0194 15.2827C71.1263 15.2827 70.5109 15.3808 70.1732 15.5768C69.8465 15.7729 69.6831 16.1378 69.6831 16.6715H68.0493C68.0493 15.9308 68.1691 15.3535 68.4087 14.9397C68.6484 14.5149 69.0568 14.2153 69.6341 14.0411C70.2223 13.8668 71.0174 13.7797 72.0194 13.7797C73.0324 13.7797 73.8275 13.8668 74.4047 14.0411C74.982 14.2153 75.3905 14.5094 75.6301 14.9233C75.8806 15.3263 76.0059 15.8872 76.0059 16.6061C76.0059 17.2052 75.9187 17.679 75.7445 18.0275C75.5702 18.3652 75.2489 18.6865 74.7805 18.9914C75.2489 19.2964 75.5702 19.6286 75.7445 19.9881C75.9187 20.3475 76.0059 20.8485 76.0059 21.4911C76.0059 22.21 75.8806 22.7764 75.6301 23.1903C75.3905 23.6042 74.982 23.8983 74.4047 24.0725C73.8275 24.2468 73.0324 24.3339 72.0194 24.3339Z" fill="#ECF674"/>
<path d="M61.962 24.3339C61.0253 24.3339 60.2792 24.2305 59.7237 24.0235C59.1682 23.8166 58.7652 23.4844 58.5147 23.0269C58.2751 22.5694 58.1553 21.9595 58.1553 21.1971C58.1553 20.3475 58.2751 19.6885 58.5147 19.2202C58.7652 18.7409 59.1682 18.4087 59.7237 18.2236C60.2792 18.0384 61.0253 17.9458 61.962 17.9458H64.1349V17.423C64.1349 16.922 64.0696 16.5299 63.9389 16.2467C63.8191 15.9526 63.6012 15.7457 63.2854 15.6258C62.9804 15.506 62.5393 15.4461 61.962 15.4461C61.5045 15.4461 61.1451 15.4951 60.8837 15.5932C60.6332 15.6803 60.4371 15.8491 60.2955 16.0996C60.1539 16.3502 60.0232 16.7041 59.9034 17.1616L58.335 16.7695C58.5202 16.0615 58.7543 15.4897 59.0375 15.054C59.3207 14.6183 59.6965 14.297 60.1648 14.0901C60.6332 13.8831 61.2322 13.7797 61.962 13.7797C62.9096 13.7797 63.6611 13.9104 64.2166 14.1718C64.7721 14.4332 65.1697 14.8362 65.4093 15.3808C65.6489 15.9145 65.7687 16.5952 65.7687 17.423V21.3604C65.7687 21.7634 65.8014 22.0575 65.8667 22.2427C65.9321 22.417 66.0574 22.5259 66.2425 22.5694C66.4277 22.6021 66.6945 22.6076 67.0431 22.5858V24.0889C66.4222 24.1215 65.9212 24.078 65.54 23.9582C65.1697 23.8383 64.8919 23.6151 64.7068 23.2883C64.5107 23.5388 64.282 23.7458 64.0206 23.9091C63.7701 24.0616 63.476 24.1705 63.1383 24.2359C62.8007 24.3013 62.4086 24.3339 61.962 24.3339ZM61.962 22.8308C62.5393 22.8308 62.9804 22.76 63.2854 22.6185C63.6012 22.4769 63.8191 22.2318 63.9389 21.8832C64.0696 21.5238 64.1349 21.0337 64.1349 20.4128V19.4489H61.962C61.3847 19.4489 60.9382 19.487 60.6223 19.5633C60.3064 19.6395 60.0886 19.8029 59.9688 20.0534C59.849 20.293 59.7891 20.6742 59.7891 21.1971C59.7891 21.6109 59.849 21.9377 59.9688 22.1773C60.0886 22.417 60.3064 22.5858 60.6223 22.6838C60.9382 22.7818 61.3847 22.8308 61.962 22.8308Z" fill="#ECF674"/>
<path d="M48.6036 19.4489V17.9458H50.4661C50.8582 17.9458 51.2067 17.8369 51.5117 17.6191C51.8276 17.4012 52.1108 17.1235 52.3613 16.7858C52.6227 16.4482 52.8678 16.0996 53.0965 15.7402C53.3361 15.3699 53.5703 15.0268 53.799 14.7109C54.0386 14.3951 54.2892 14.1609 54.5506 14.0084H56.8379C56.4022 14.248 56.021 14.5475 55.6942 14.907C55.3783 15.2555 55.0897 15.6367 54.8283 16.0506C54.5669 16.4536 54.3055 16.8566 54.0441 17.2596C53.7936 17.6626 53.5213 18.0275 53.2272 18.3543C52.9331 18.681 52.5955 18.9479 52.2142 19.1548C51.8439 19.3509 51.4028 19.4489 50.8909 19.4489H48.6036ZM48.2441 24.1052V14.0084H49.8779V24.1052H48.2441ZM54.7956 24.1052L50.5478 18.534L52.2959 18.1092L56.8379 24.1052H54.7956Z" fill="#ECF674"/>
<path d="M42.3697 24.3339C41.433 24.3339 40.6869 24.2305 40.1314 24.0235C39.5759 23.8166 39.1729 23.4844 38.9224 23.0269C38.6828 22.5694 38.563 21.9595 38.563 21.1971C38.563 20.3475 38.6828 19.6885 38.9224 19.2202C39.1729 18.7409 39.5759 18.4087 40.1314 18.2236C40.6869 18.0384 41.433 17.9458 42.3697 17.9458H44.5426V17.423C44.5426 16.922 44.4773 16.5299 44.3466 16.2467C44.2268 15.9526 44.0089 15.7457 43.6931 15.6258C43.3881 15.506 42.947 15.4461 42.3697 15.4461C41.9123 15.4461 41.5528 15.4951 41.2914 15.5932C41.0409 15.6803 40.8448 15.8491 40.7032 16.0996C40.5617 16.3502 40.431 16.7041 40.3111 17.1616L38.7427 16.7695C38.9279 16.0615 39.162 15.4897 39.4452 15.054C39.7284 14.6183 40.1042 14.297 40.5725 14.0901C41.0409 13.8831 41.64 13.7797 42.3697 13.7797C43.3173 13.7797 44.0689 13.9104 44.6243 14.1718C45.1798 14.4332 45.5774 14.8362 45.817 15.3808C46.0566 15.9145 46.1764 16.5952 46.1764 17.423V21.3604C46.1764 21.7634 46.2091 22.0575 46.2745 22.2427C46.3398 22.417 46.4651 22.5259 46.6502 22.5694C46.8354 22.6021 47.1022 22.6076 47.4508 22.5858V24.0889C46.83 24.1215 46.3289 24.078 45.9477 23.9582C45.5774 23.8383 45.2996 23.6151 45.1145 23.2883C44.9184 23.5388 44.6897 23.7458 44.4283 23.9091C44.1778 24.0616 43.8837 24.1705 43.546 24.2359C43.2084 24.3013 42.8163 24.3339 42.3697 24.3339ZM42.3697 22.8308C42.947 22.8308 43.3881 22.76 43.6931 22.6185C44.0089 22.4769 44.2268 22.2318 44.3466 21.8832C44.4773 21.5238 44.5426 21.0337 44.5426 20.4128V19.4489H42.3697C41.7924 19.4489 41.3459 19.487 41.03 19.5633C40.7141 19.6395 40.4963 19.8029 40.3765 20.0534C40.2567 20.293 40.1968 20.6742 40.1968 21.1971C40.1968 21.6109 40.2567 21.9377 40.3765 22.1773C40.4963 22.417 40.7141 22.5858 41.03 22.6838C41.3459 22.7818 41.7924 22.8308 42.3697 22.8308Z" fill="#ECF674"/>
<path d="M32.8344 24.3339C31.8323 24.3339 31.0372 24.2413 30.449 24.0562C29.8718 23.871 29.4633 23.566 29.2237 23.1413C28.9841 22.7056 28.8643 22.112 28.8643 21.3604H30.498C30.498 21.9159 30.6614 22.3026 30.9882 22.5204C31.3258 22.7274 31.9412 22.8308 32.8344 22.8308C33.4334 22.8308 33.9018 22.7927 34.2394 22.7165C34.5771 22.6293 34.8167 22.4877 34.9583 22.2917C35.1108 22.0956 35.187 21.8288 35.187 21.4911C35.187 21.0881 35.1217 20.7668 34.991 20.5272C34.8711 20.2876 34.6642 20.1079 34.3701 19.9881C34.076 19.8574 33.6676 19.7757 33.1448 19.743H31.609V18.2399H33.1448C33.6676 18.1963 34.076 18.1201 34.3701 18.0112C34.6642 17.9023 34.8711 17.7334 34.991 17.5047C35.1217 17.276 35.187 16.9764 35.187 16.6061C35.187 16.2685 35.1108 16.0071 34.9583 15.8219C34.8167 15.6258 34.5771 15.4897 34.2394 15.4135C33.9018 15.3263 33.4334 15.2827 32.8344 15.2827C31.9412 15.2827 31.3258 15.3808 30.9882 15.5768C30.6614 15.7729 30.498 16.1378 30.498 16.6715H28.8643C28.8643 15.9308 28.9841 15.3535 29.2237 14.9397C29.4633 14.5149 29.8718 14.2153 30.449 14.0411C31.0372 13.8668 31.8323 13.7797 32.8344 13.7797C33.8473 13.7797 34.6424 13.8668 35.2197 14.0411C35.797 14.2153 36.2054 14.5094 36.445 14.9233C36.6955 15.3263 36.8208 15.8872 36.8208 16.6061C36.8208 17.2052 36.7337 17.679 36.5594 18.0275C36.3851 18.3652 36.0638 18.6865 35.5955 18.9914C36.0638 19.2964 36.3851 19.6286 36.5594 19.9881C36.7337 20.3475 36.8208 20.8485 36.8208 21.4911C36.8208 22.21 36.6955 22.7764 36.445 23.1903C36.2054 23.6042 35.797 23.8983 35.2197 24.0725C34.6424 24.2468 33.8473 24.3339 32.8344 24.3339Z" fill="#ECF674"/>
</svg>
