<svg width="135" height="38" viewBox="0 0 135 38" fill="none" xmlns="http://www.w3.org/2000/svg">
<rect x="0.54248" y="0.72876" width="134.068" height="36.7797" rx="15.5" fill="#2F2D46"/>
<path d="M97.1992 24.1052V14.0084H98.833V23.7948L97.8037 22.6021H100.303C100.761 22.6021 101.12 22.5477 101.382 22.4388C101.643 22.319 101.828 22.1229 101.937 21.8506C102.046 21.5783 102.101 21.208 102.101 20.7396C102.101 20.2604 102.046 19.8901 101.937 19.6286C101.828 19.3564 101.643 19.1657 101.382 19.0568C101.12 18.937 100.761 18.8771 100.303 18.8771H97.6567V17.374H100.303C101.175 17.374 101.861 17.4775 102.362 17.6844C102.863 17.8914 103.217 18.2399 103.424 18.7301C103.631 19.2093 103.734 19.8792 103.734 20.7396C103.734 21.6001 103.631 22.2754 103.424 22.7655C103.217 23.2448 102.863 23.5879 102.362 23.7948C101.861 24.0018 101.175 24.1052 100.303 24.1052H97.1992ZM104.715 24.1052V14.0084H106.348V24.1052H104.715Z" fill="#ECF674"/>
<path d="M91.161 24.1052V14.0084H92.7948V24.1052H91.161ZM87.1909 15.5115V14.0084H96.7649V15.5115H87.1909Z" fill="#ECF674"/>
<path d="M78.358 19.4489V17.9459H80.2205C80.6126 17.9459 80.9611 17.8369 81.2661 17.6191C81.582 17.4013 81.8652 17.1235 82.1157 16.7859C82.3771 16.4482 82.6222 16.0997 82.8509 15.7402C83.0905 15.3699 83.3247 15.0268 83.5534 14.711C83.793 14.3951 84.0435 14.1609 84.305 14.0084H86.5923C86.1566 14.248 85.7754 14.5476 85.4486 14.907C85.1327 15.2555 84.8441 15.6368 84.5827 16.0507C84.3213 16.4537 84.0599 16.8567 83.7985 17.2597C83.548 17.6627 83.2757 18.0275 82.9816 18.3543C82.6875 18.6811 82.3499 18.9479 81.9686 19.1549C81.5983 19.3509 81.1572 19.4489 80.6453 19.4489H78.358ZM77.9985 24.1052V14.0084H79.6323V24.1052H77.9985ZM84.55 24.1052L80.3022 18.534L82.0503 18.1092L86.5923 24.1052H84.55Z" fill="#ECF674"/>
<path d="M72.1231 24.3339C71.1864 24.3339 70.4403 24.2305 69.8848 24.0235C69.3294 23.8166 68.9264 23.4844 68.6758 23.0269C68.4362 22.5694 68.3164 21.9595 68.3164 21.1971C68.3164 20.3475 68.4362 19.6885 68.6758 19.2202C68.9264 18.7409 69.3294 18.4087 69.8848 18.2236C70.4403 18.0384 71.1864 17.9458 72.1231 17.9458H74.2961V17.423C74.2961 16.922 74.2307 16.5299 74.1 16.2467C73.9802 15.9526 73.7624 15.7457 73.4465 15.6258C73.1415 15.506 72.7004 15.4461 72.1231 15.4461C71.6657 15.4461 71.3062 15.4951 71.0448 15.5932C70.7943 15.6803 70.5983 15.8491 70.4567 16.0996C70.3151 16.3502 70.1844 16.7041 70.0646 17.1616L68.4961 16.7695C68.6813 16.0615 68.9155 15.4897 69.1987 15.054C69.4818 14.6183 69.8576 14.297 70.326 14.0901C70.7943 13.8831 71.3934 13.7797 72.1231 13.7797C73.0707 13.7797 73.8223 13.9104 74.3778 14.1718C74.9332 14.4332 75.3308 14.8362 75.5704 15.3808C75.81 15.9145 75.9299 16.5952 75.9299 17.423V21.3604C75.9299 21.7634 75.9625 22.0575 76.0279 22.2427C76.0932 22.417 76.2185 22.5259 76.4037 22.5694C76.5888 22.6021 76.8557 22.6076 77.2042 22.5858V24.0889C76.5834 24.1215 76.0823 24.078 75.7011 23.9582C75.3308 23.8383 75.0531 23.6151 74.8679 23.2883C74.6718 23.5388 74.4431 23.7458 74.1817 23.9091C73.9312 24.0616 73.6371 24.1705 73.2995 24.2359C72.9618 24.3013 72.5697 24.3339 72.1231 24.3339ZM72.1231 22.8308C72.7004 22.8308 73.1415 22.76 73.4465 22.6185C73.7624 22.4769 73.9802 22.2318 74.1 21.8832C74.2307 21.5238 74.2961 21.0337 74.2961 20.4128V19.4489H72.1231C71.5459 19.4489 71.0993 19.487 70.7834 19.5633C70.4676 19.6395 70.2497 19.8029 70.1299 20.0534C70.0101 20.293 69.9502 20.6742 69.9502 21.1971C69.9502 21.6109 70.0101 21.9377 70.1299 22.1773C70.2497 22.417 70.4676 22.5858 70.7834 22.6838C71.0993 22.7818 71.5459 22.8308 72.1231 22.8308Z" fill="#ECF674"/>
<path d="M61.7714 24.1052V14.0084H63.4052V24.1052H61.7714ZM57.8013 15.5115V14.0084H67.3753V15.5115H57.8013Z" fill="#ECF674"/>
<path d="M55.0956 24.1052V14.0084H56.7293V24.1052H55.0956ZM48.8545 24.1052V14.0084H50.4883V24.1052H48.8545ZM49.3283 19.4326V17.9295H56.2555V19.4326H49.3283Z" fill="#ECF674"/>
<path d="M42.9963 24.3339C42.016 24.3339 41.2372 24.1597 40.66 23.8111C40.0936 23.4626 39.6851 22.9016 39.4346 22.1283C39.195 21.3441 39.0752 20.3203 39.0752 19.0568C39.0752 17.7824 39.195 16.7586 39.4346 15.9853C39.6851 15.2119 40.0936 14.651 40.66 14.3025C41.2372 13.9539 42.016 13.7797 42.9963 13.7797C43.9766 13.7797 44.7499 13.9539 45.3163 14.3025C45.8935 14.651 46.302 15.2119 46.5416 15.9853C46.7921 16.7586 46.9174 17.7824 46.9174 19.0568C46.9174 20.3203 46.7921 21.3441 46.5416 22.1283C46.302 22.9016 45.8935 23.4626 45.3163 23.8111C44.7499 24.1597 43.9766 24.3339 42.9963 24.3339ZM42.9963 22.8308C43.5844 22.8308 44.0419 22.7165 44.3687 22.4877C44.7063 22.259 44.9405 21.8724 45.0712 21.3278C45.2128 20.7723 45.2836 20.0153 45.2836 19.0568C45.2836 18.0874 45.2128 17.3304 45.0712 16.7858C44.9405 16.2412 44.7063 15.8546 44.3687 15.6258C44.0419 15.3971 43.5844 15.2827 42.9963 15.2827C42.4081 15.2827 41.9452 15.3971 41.6076 15.6258C41.2808 15.8546 41.0466 16.2412 40.905 16.7858C40.7743 17.3304 40.709 18.0874 40.709 19.0568C40.709 20.0153 40.7743 20.7723 40.905 21.3278C41.0466 21.8724 41.2808 22.259 41.6076 22.4877C41.9452 22.7165 42.4081 22.8308 42.9963 22.8308Z" fill="#ECF674"/>
<path d="M29.3765 19.4489V17.9459H31.239C31.6311 17.9459 31.9797 17.8369 32.2847 17.6191C32.6005 17.4013 32.8837 17.1235 33.1342 16.7859C33.3956 16.4482 33.6407 16.0997 33.8694 15.7402C34.1091 15.3699 34.3432 15.0268 34.572 14.711C34.8116 14.3951 35.0621 14.1609 35.3235 14.0084H37.6108C37.1751 14.248 36.7939 14.5476 36.4672 14.907C36.1513 15.2555 35.8627 15.6368 35.6013 16.0507C35.3398 16.4537 35.0784 16.8567 34.817 17.2597C34.5665 17.6627 34.2942 18.0275 34.0001 18.3543C33.7061 18.6811 33.3684 18.9479 32.9872 19.1549C32.6169 19.3509 32.1757 19.4489 31.6638 19.4489H29.3765ZM29.0171 24.1052V14.0084H30.6509V24.1052H29.0171ZM35.5686 24.1052L31.3207 18.534L33.0689 18.1092L37.6108 24.1052H35.5686Z" fill="#ECF674"/>
</svg>
