<svg width="328" height="290" viewBox="0 0 328 290" fill="none" xmlns="http://www.w3.org/2000/svg">
<path d="M299.358 93.1981C299.358 84.7255 297.689 76.3332 294.449 68.5058C291.209 60.6792 286.457 53.5684 280.471 47.5789L280.464 47.5719C274.479 41.5797 267.375 36.8244 259.555 33.581C251.735 30.3377 243.35 28.6679 234.885 28.6677C226.42 28.6677 218.036 30.3376 210.215 33.581C202.395 36.8243 195.291 41.5796 189.307 47.5719H189.3L174.118 62.7667C168.526 68.3632 159.46 68.364 153.868 62.7667L138.686 47.5719C126.598 35.4733 110.203 28.6754 93.1079 28.6747C76.0114 28.6747 59.6116 35.4721 47.5224 47.5719C35.4332 59.6719 28.6421 76.0861 28.6421 93.1981C28.6426 110.309 35.4345 126.718 47.5224 138.817L163.993 255.392L280.464 138.817H280.471C286.457 132.828 291.209 125.717 294.449 117.89C297.689 110.063 299.358 101.671 299.358 93.1981ZM328 93.1981C328 105.435 325.589 117.553 320.909 128.858C316.229 140.164 309.362 150.435 300.714 159.086L300.721 159.093L174.118 285.803C168.526 291.399 159.46 291.4 153.868 285.803L27.2716 159.093C9.81134 141.618 0.000484507 117.913 0 93.1981C1.83978e-07 68.483 9.81091 44.7792 27.2716 27.3029C44.7322 9.82689 68.415 0.00699914 93.1079 0.00699896C117.8 0.00765947 141.484 9.82727 158.944 27.3029L163.993 32.3562L169.049 27.3029L170.685 25.7002C178.976 17.7966 188.66 11.489 199.25 7.09694C210.547 2.41197 222.657 0 234.885 0C247.113 0.000141843 259.224 2.41211 270.52 7.09694C281.815 11.7817 292.078 18.6478 300.721 27.3029H300.714C309.363 35.9551 316.229 46.2248 320.909 57.5314C325.59 68.838 328 80.9594 328 93.1981Z" fill="#ECF674"/>
</svg>
