<svg width="122" height="111" viewBox="0 0 122 111" fill="none" xmlns="http://www.w3.org/2000/svg">
<g clip-path="url(#clip0_72_14)">
<path d="M55.7002 22.4626L76.8988 59.1786V59.1796L82.1985 68.3587H39.8013L45.1009 59.1796V59.1786L55.7002 40.8206L60.9999 31.6416L66.2995 22.4626V22.4615L60.9999 13.2826L55.7002 22.4615V22.4626L50.4005 31.6416L45.1009 40.8206L34.5016 59.1786V59.1796L29.2019 68.3587L23.9023 77.5376H98.0974L92.7977 68.3587L87.498 59.1796V59.1786L66.2995 22.4615" fill="#2F2D46"/>
<mask id="mask0_72_14" style="mask-type:luminance" maskUnits="userSpaceOnUse" x="-3205" y="-2985" width="5997" height="5997">
<path d="M-3204.9 3011.86H2791.55V-2984.59H-3204.9V3011.86Z" fill="url(#paint0_linear_72_14)"/>
</mask>
<g mask="url(#mask0_72_14)">
<mask id="mask1_72_14" style="mask-type:luminance" maskUnits="userSpaceOnUse" x="71" y="68" width="17" height="10">
<path d="M87.4985 77.5385H76.8992L71.5996 68.3595H82.1988L87.4985 77.5385Z" fill="white"/>
</mask>
<g mask="url(#mask1_72_14)">
<path d="M87.4985 77.5385H76.8992L71.5996 68.3595H82.1988L87.4985 77.5385Z" fill="url(#paint1_linear_72_14)"/>
</g>
</g>
<mask id="mask2_72_14" style="mask-type:luminance" maskUnits="userSpaceOnUse" x="61" y="22" width="11" height="19">
<path d="M71.5994 31.6413V31.6424L66.2997 40.8213L61 31.6424V31.6413L66.2997 22.4622L71.5994 31.6413Z" fill="white"/>
</mask>
<g mask="url(#mask2_72_14)">
<path d="M71.5994 31.6413V31.6424L66.2997 40.8213L61 31.6424V31.6413L66.2997 22.4622L71.5994 31.6413Z" fill="url(#paint2_linear_72_14)"/>
</g>
</g>
<defs>
<linearGradient id="paint0_linear_72_14" x1="56.6797" y1="15.8164" x2="62.6418" y2="19.2587" gradientUnits="userSpaceOnUse">
<stop stop-color="white" stop-opacity="0"/>
<stop offset="2.3e-07" stop-color="white" stop-opacity="0"/>
<stop offset="1" stop-color="white"/>
</linearGradient>
<linearGradient id="paint1_linear_72_14" x1="75.5742" y1="75.2438" x2="83.5238" y2="70.6542" gradientUnits="userSpaceOnUse">
<stop stop-color="#2F2D46"/>
<stop offset="2.3e-07" stop-color="#2F2D46"/>
<stop offset="1"/>
</linearGradient>
<linearGradient id="paint2_linear_72_14" x1="70.2746" y1="33.9367" x2="62.3247" y2="29.3469" gradientUnits="userSpaceOnUse">
<stop stop-color="#2F2D46"/>
<stop offset="2.3e-07" stop-color="#2F2D46"/>
<stop offset="1"/>
</linearGradient>
<clipPath id="clip0_72_14">
<rect width="122" height="122" fill="white" transform="translate(0 -11)"/>
</clipPath>
</defs>
</svg>
