<svg width="84" height="73" viewBox="0 0 84 73" fill="none" xmlns="http://www.w3.org/2000/svg">
<path d="M36.0258 10.724L59.8507 51.9887V51.9899L65.807 62.3061H18.1572L24.1135 51.9899V51.9887L36.0258 31.3563L41.9821 21.0401L47.9383 10.724V10.7228L41.9821 0.406708L36.0258 10.7228V10.724L30.0696 21.0401L24.1135 31.3563L12.2009 51.9887V51.9899L6.24469 62.3061L0.288574 72.6222H83.6756L77.7194 62.3061L71.7631 51.9899V51.9887L47.9383 10.7228" fill="#2F2D46"/>
<mask id="mask0_106_218" style="mask-type:luminance" maskUnits="userSpaceOnUse" x="53" y="62" width="19" height="11">
<path d="M71.7632 72.6232H59.8506L53.8945 62.3069H65.8069L71.7632 72.6232Z" fill="white"/>
</mask>
<g mask="url(#mask0_106_218)">
<path d="M71.7632 72.6232H59.8506L53.8945 62.3069H65.8069L71.7632 72.6232Z" fill="url(#paint0_linear_106_218)"/>
</g>
<mask id="mask1_106_218" style="mask-type:luminance" maskUnits="userSpaceOnUse" x="41" y="10" width="13" height="22">
<path d="M53.8949 21.0397V21.041L47.9387 31.3571L41.9824 21.041V21.0397L47.9387 10.7235L53.8949 21.0397Z" fill="white"/>
</mask>
<g mask="url(#mask1_106_218)">
<path d="M53.8949 21.0397V21.041L47.9387 31.3571L41.9824 21.041V21.0397L47.9387 10.7235L53.8949 21.0397Z" fill="url(#paint1_linear_106_218)"/>
</g>
<defs>
<linearGradient id="paint0_linear_106_218" x1="58.3616" y1="70.0442" x2="67.296" y2="64.8859" gradientUnits="userSpaceOnUse">
<stop stop-color="#2F2D46"/>
<stop offset="2.3e-07" stop-color="#2F2D46"/>
<stop offset="1"/>
</linearGradient>
<linearGradient id="paint1_linear_106_218" x1="52.4061" y1="23.6196" x2="43.4712" y2="18.4611" gradientUnits="userSpaceOnUse">
<stop stop-color="#2F2D46"/>
<stop offset="2.3e-07" stop-color="#2F2D46"/>
<stop offset="1"/>
</linearGradient>
</defs>
</svg>
