<svg width="600" height="150" viewBox="0 0 600 150" fill="none" xmlns="http://www.w3.org/2000/svg">
<rect width="600" height="150" rx="15.5" fill="#FFF9F0"/>
<path d="M119.979 67V41.4H135.659V67H132.459V44.344H123.179V67H119.979ZM147.006 67.448C145.086 67.448 143.561 67.1067 142.43 66.424C141.321 65.7413 140.521 64.6427 140.03 63.128C139.561 61.592 139.326 59.5867 139.326 57.112C139.326 54.616 139.561 52.6107 140.03 51.096C140.521 49.5813 141.321 48.4827 142.43 47.8C143.561 47.1173 145.086 46.776 147.006 46.776C148.926 46.776 150.441 47.1173 151.55 47.8C152.681 48.4827 153.481 49.5813 153.95 51.096C154.441 52.6107 154.686 54.616 154.686 57.112C154.686 59.5867 154.441 61.592 153.95 63.128C153.481 64.6427 152.681 65.7413 151.55 66.424C150.441 67.1067 148.926 67.448 147.006 67.448ZM147.006 64.504C148.158 64.504 149.054 64.28 149.694 63.832C150.356 63.384 150.814 62.6267 151.07 61.56C151.348 60.472 151.486 58.9893 151.486 57.112C151.486 55.2133 151.348 53.7307 151.07 52.664C150.814 51.5973 150.356 50.84 149.694 50.392C149.054 49.944 148.158 49.72 147.006 49.72C145.854 49.72 144.948 49.944 144.286 50.392C143.646 50.84 143.188 51.5973 142.91 52.664C142.654 53.7307 142.526 55.2133 142.526 57.112C142.526 58.9893 142.654 60.472 142.91 61.56C143.188 62.6267 143.646 63.384 144.286 63.832C144.948 64.28 145.854 64.504 147.006 64.504ZM166.77 67.448C164.7 67.448 163.058 67.1067 161.842 66.424C160.626 65.7413 159.751 64.6427 159.218 63.128C158.706 61.6133 158.45 59.608 158.45 57.112C158.45 54.616 158.716 52.6107 159.25 51.096C159.783 49.5813 160.658 48.4827 161.874 47.8C163.111 47.1173 164.786 46.776 166.898 46.776C168.092 46.776 169.106 46.9147 169.938 47.192C170.791 47.448 171.548 47.8853 172.21 48.504C172.892 49.1013 173.564 49.9333 174.226 51L171.538 52.6C171.047 51.832 170.599 51.2453 170.194 50.84C169.788 50.4133 169.33 50.1253 168.818 49.976C168.327 49.8053 167.687 49.72 166.898 49.72C165.554 49.72 164.498 49.944 163.73 50.392C162.962 50.84 162.418 51.5973 162.098 52.664C161.799 53.7307 161.65 55.2133 161.65 57.112C161.65 58.9893 161.799 60.472 162.098 61.56C162.396 62.6267 162.919 63.384 163.666 63.832C164.412 64.28 165.447 64.504 166.77 64.504C167.538 64.504 168.178 64.4187 168.69 64.248C169.223 64.0773 169.703 63.7893 170.13 63.384C170.578 62.9573 171.058 62.36 171.57 61.592L174.226 63.192C173.564 64.2373 172.882 65.08 172.178 65.72C171.495 66.3387 170.727 66.776 169.874 67.032C169.02 67.3093 167.986 67.448 166.77 67.448ZM176.901 67L177.349 47.224H179.781L185.381 58.456L190.981 47.224H193.413L193.861 67H190.661L190.341 55.48L186.757 62.296H184.005L180.421 55.48L180.101 67H176.901ZM204.569 67.448C202.649 67.448 201.123 67.1067 199.993 66.424C198.883 65.7413 198.083 64.6427 197.593 63.128C197.123 61.592 196.889 59.5867 196.889 57.112C196.889 54.616 197.123 52.6107 197.593 51.096C198.083 49.5813 198.883 48.4827 199.993 47.8C201.123 47.1173 202.649 46.776 204.569 46.776C206.489 46.776 208.003 47.1173 209.113 47.8C210.243 48.4827 211.043 49.5813 211.513 51.096C212.003 52.6107 212.249 54.616 212.249 57.112C212.249 59.5867 212.003 61.592 211.513 63.128C211.043 64.6427 210.243 65.7413 209.113 66.424C208.003 67.1067 206.489 67.448 204.569 67.448ZM204.569 64.504C205.721 64.504 206.617 64.28 207.257 63.832C207.918 63.384 208.377 62.6267 208.633 61.56C208.91 60.472 209.049 58.9893 209.049 57.112C209.049 55.2133 208.91 53.7307 208.633 52.664C208.377 51.5973 207.918 50.84 207.257 50.392C206.617 49.944 205.721 49.72 204.569 49.72C203.417 49.72 202.51 49.944 201.849 50.392C201.209 50.84 200.75 51.5973 200.473 52.664C200.217 53.7307 200.089 55.2133 200.089 57.112C200.089 58.9893 200.217 60.472 200.473 61.56C200.75 62.6267 201.209 63.384 201.849 63.832C202.51 64.28 203.417 64.504 204.569 64.504ZM222.156 67V47.224H225.356V67H222.156ZM214.38 50.168V47.224H233.132V50.168H214.38ZM235.456 72.824V47.224H238.656V47.768C239.21 47.4267 239.861 47.1813 240.608 47.032C241.354 46.8613 242.208 46.776 243.168 46.776C245.088 46.776 246.602 47.1173 247.712 47.8C248.842 48.4827 249.642 49.5813 250.112 51.096C250.602 52.5893 250.848 54.584 250.848 57.08C250.848 59.576 250.602 61.5813 250.112 63.096C249.642 64.6107 248.842 65.72 247.712 66.424C246.602 67.1067 245.088 67.448 243.168 67.448C242.208 67.448 241.354 67.3413 240.608 67.128C239.861 66.9147 239.21 66.6053 238.656 66.2V72.824H235.456ZM243.168 64.504C244.32 64.504 245.216 64.28 245.856 63.832C246.517 63.384 246.976 62.616 247.232 61.528C247.509 60.44 247.648 58.9573 247.648 57.08C247.648 55.2027 247.509 53.7307 247.232 52.664C246.976 51.5973 246.517 50.84 245.856 50.392C245.216 49.944 244.32 49.72 243.168 49.72C242.165 49.72 241.322 49.8053 240.64 49.976C239.978 50.1253 239.477 50.36 239.136 50.68C238.816 50.9787 238.656 51.352 238.656 51.8V59.8C238.656 61.4213 239.018 62.616 239.744 63.384C240.469 64.1307 241.61 64.504 243.168 64.504ZM254.483 67V47.224H257.683V67H254.483L266.195 47.224H269.779V67H266.579V47.224H269.779L258.067 67H254.483ZM277.767 73.272C278.492 72.2053 279.057 71.32 279.463 70.616C279.889 69.912 280.188 69.3147 280.359 68.824C280.529 68.3333 280.615 67.8853 280.615 67.48C279.868 67.48 279.345 67.2987 279.047 66.936C278.769 66.5733 278.631 65.912 278.631 64.952C278.631 64.0133 278.823 63.3627 279.207 63C279.591 62.6373 280.295 62.456 281.319 62.456C282.343 62.456 283.047 62.6373 283.431 63C283.815 63.3627 284.007 64.0133 284.007 64.952C284.007 65.9547 283.889 66.872 283.655 67.704C283.441 68.5573 283.068 69.4213 282.535 70.296C282.001 71.1707 281.265 72.1627 280.327 73.272H277.767ZM324.206 67V47.224H327.406V67H324.206ZM311.982 67V47.224H315.182V67H311.982ZM312.91 57.848V54.904H326.478V57.848H312.91ZM338.369 67.448C336.535 67.448 335.073 67.2453 333.985 66.84C332.897 66.4347 332.108 65.784 331.617 64.888C331.148 63.992 330.913 62.7973 330.913 61.304C330.913 59.64 331.148 58.3493 331.617 57.432C332.108 56.4933 332.897 55.8427 333.985 55.48C335.073 55.1173 336.535 54.936 338.369 54.936H342.625V53.912C342.625 52.9307 342.497 52.1627 342.241 51.608C342.007 51.032 341.58 50.6267 340.961 50.392C340.364 50.1573 339.5 50.04 338.369 50.04C337.473 50.04 336.769 50.136 336.257 50.328C335.767 50.4987 335.383 50.8293 335.105 51.32C334.828 51.8107 334.572 52.504 334.337 53.4L331.265 52.632C331.628 51.2453 332.087 50.1253 332.641 49.272C333.196 48.4187 333.932 47.7893 334.849 47.384C335.767 46.9787 336.94 46.776 338.369 46.776C340.225 46.776 341.697 47.032 342.785 47.544C343.873 48.056 344.652 48.8453 345.121 49.912C345.591 50.9573 345.825 52.2907 345.825 53.912V61.624C345.825 62.4133 345.889 62.9893 346.017 63.352C346.145 63.6933 346.391 63.9067 346.753 63.992C347.116 64.056 347.639 64.0667 348.321 64.024V66.968C347.105 67.032 346.124 66.9467 345.377 66.712C344.652 66.4773 344.108 66.04 343.745 65.4C343.361 65.8907 342.913 66.296 342.401 66.616C341.911 66.9147 341.335 67.128 340.673 67.256C340.012 67.384 339.244 67.448 338.369 67.448ZM338.369 64.504C339.5 64.504 340.364 64.3653 340.961 64.088C341.58 63.8107 342.007 63.3307 342.241 62.648C342.497 61.944 342.625 60.984 342.625 59.768V57.88H338.369C337.239 57.88 336.364 57.9547 335.745 58.104C335.127 58.2533 334.7 58.5733 334.465 59.064C334.231 59.5333 334.113 60.28 334.113 61.304C334.113 62.1147 334.231 62.7547 334.465 63.224C334.7 63.6933 335.127 64.024 335.745 64.216C336.364 64.408 337.239 64.504 338.369 64.504ZM381.128 67V60.6C380.638 60.9413 380.04 61.1973 379.336 61.368C378.632 61.5387 377.832 61.624 376.936 61.624C375.55 61.624 374.376 61.4747 373.416 61.176C372.478 60.856 371.72 60.3333 371.144 59.608C370.568 58.8613 370.152 57.848 369.896 56.568C369.64 55.2667 369.512 53.6347 369.512 51.672V47.224H372.712V51.672C372.712 53.1653 372.776 54.3813 372.904 55.32C373.054 56.2373 373.288 56.9413 373.608 57.432C373.928 57.9227 374.355 58.2533 374.888 58.424C375.443 58.5947 376.126 58.68 376.936 58.68C378.088 58.68 378.963 58.616 379.56 58.488C380.158 58.3387 380.563 57.976 380.776 57.4C381.011 56.8027 381.128 55.8533 381.128 54.552V47.224H384.328V67H381.128ZM394.844 67V47.224H398.044V67H394.844ZM387.068 50.168V47.224H405.82V50.168H387.068ZM415.631 67.448C413.711 67.448 412.186 67.1067 411.055 66.424C409.946 65.7413 409.146 64.6427 408.655 63.128C408.186 61.592 407.951 59.5867 407.951 57.112C407.951 54.616 408.186 52.6107 408.655 51.096C409.146 49.5813 409.946 48.4827 411.055 47.8C412.186 47.1173 413.711 46.776 415.631 46.776C417.551 46.776 419.066 47.1173 420.175 47.8C421.306 48.4827 422.106 49.5813 422.575 51.096C423.066 52.6107 423.311 54.616 423.311 57.112C423.311 59.5867 423.066 61.592 422.575 63.128C422.106 64.6427 421.306 65.7413 420.175 66.424C419.066 67.1067 417.551 67.448 415.631 67.448ZM415.631 64.504C416.783 64.504 417.679 64.28 418.319 63.832C418.981 63.384 419.439 62.6267 419.695 61.56C419.973 60.472 420.111 58.9893 420.111 57.112C420.111 55.2133 419.973 53.7307 419.695 52.664C419.439 51.5973 418.981 50.84 418.319 50.392C417.679 49.944 416.783 49.72 415.631 49.72C414.479 49.72 413.573 49.944 412.911 50.392C412.271 50.84 411.813 51.5973 411.535 52.664C411.279 53.7307 411.151 55.2133 411.151 57.112C411.151 58.9893 411.279 60.472 411.535 61.56C411.813 62.6267 412.271 63.384 412.911 63.832C413.573 64.28 414.479 64.504 415.631 64.504ZM445.526 67L445.974 47.224H448.406L454.006 58.456L459.606 47.224H462.038L462.486 67H459.286L458.966 55.48L455.382 62.296H452.63L449.046 55.48L448.726 67H445.526ZM464.234 67V47.224H467.434V66.392L465.418 64.056H470.314C471.21 64.056 471.914 63.9493 472.426 63.736C472.938 63.5013 473.3 63.1173 473.514 62.584C473.727 62.0507 473.834 61.3253 473.834 60.408C473.834 59.4693 473.727 58.744 473.514 58.232C473.3 57.6987 472.938 57.3253 472.426 57.112C471.914 56.8773 471.21 56.76 470.314 56.76H465.13V53.816H470.314C472.02 53.816 473.364 54.0187 474.346 54.424C475.327 54.8293 476.02 55.512 476.426 56.472C476.831 57.4107 477.034 58.7227 477.034 60.408C477.034 62.0933 476.831 63.416 476.426 64.376C476.02 65.3147 475.327 65.9867 474.346 66.392C473.364 66.7973 472.02 67 470.314 67H464.234ZM478.954 67V47.224H482.154V67H478.954ZM233.926 110.448C231.857 110.448 230.214 110.107 228.998 109.424C227.782 108.741 226.907 107.643 226.374 106.128C225.862 104.613 225.606 102.608 225.606 100.112C225.606 97.616 225.873 95.6107 226.406 94.096C226.939 92.5813 227.814 91.4827 229.03 90.8C230.267 90.1173 231.942 89.776 234.054 89.776C235.249 89.776 236.262 89.9147 237.094 90.192C237.947 90.448 238.705 90.8853 239.366 91.504C240.049 92.1013 240.721 92.9333 241.382 94L238.694 95.6C238.203 94.832 237.755 94.2453 237.35 93.84C236.945 93.4133 236.486 93.1253 235.974 92.976C235.483 92.8053 234.843 92.72 234.054 92.72C232.71 92.72 231.654 92.944 230.886 93.392C230.118 93.84 229.574 94.5973 229.254 95.664C228.955 96.7307 228.806 98.2133 228.806 100.112C228.806 101.989 228.955 103.472 229.254 104.56C229.553 105.627 230.075 106.384 230.822 106.832C231.569 107.28 232.603 107.504 233.926 107.504C234.694 107.504 235.334 107.419 235.846 107.248C236.379 107.077 236.859 106.789 237.286 106.384C237.734 105.957 238.214 105.36 238.726 104.592L241.382 106.192C240.721 107.237 240.038 108.08 239.334 108.72C238.651 109.339 237.883 109.776 237.03 110.032C236.177 110.309 235.142 110.448 233.926 110.448ZM244.698 110V90.224H260.378V110H257.178V93.168H247.898V110H244.698ZM271.725 110.448C269.805 110.448 268.28 110.107 267.149 109.424C266.04 108.741 265.24 107.643 264.749 106.128C264.28 104.592 264.045 102.587 264.045 100.112C264.045 97.616 264.28 95.6107 264.749 94.096C265.24 92.5813 266.04 91.4827 267.149 90.8C268.28 90.1173 269.805 89.776 271.725 89.776C273.645 89.776 275.16 90.1173 276.269 90.8C277.4 91.4827 278.2 92.5813 278.669 94.096C279.16 95.6107 279.405 97.616 279.405 100.112C279.405 102.587 279.16 104.592 278.669 106.128C278.2 107.643 277.4 108.741 276.269 109.424C275.16 110.107 273.645 110.448 271.725 110.448ZM271.725 107.504C272.877 107.504 273.773 107.28 274.413 106.832C275.074 106.384 275.533 105.627 275.789 104.56C276.066 103.472 276.205 101.989 276.205 100.112C276.205 98.2133 276.066 96.7307 275.789 95.664C275.533 94.5973 275.074 93.84 274.413 93.392C273.773 92.944 272.877 92.72 271.725 92.72C270.573 92.72 269.666 92.944 269.005 93.392C268.365 93.84 267.906 94.5973 267.629 95.664C267.373 96.7307 267.245 98.2133 267.245 100.112C267.245 101.989 267.373 103.472 267.629 104.56C267.906 105.627 268.365 106.384 269.005 106.832C269.666 107.28 270.573 107.504 271.725 107.504ZM291.489 110.448C289.419 110.448 287.777 110.107 286.561 109.424C285.345 108.741 284.47 107.643 283.937 106.128C283.425 104.613 283.169 102.608 283.169 100.112C283.169 97.616 283.435 95.6107 283.969 94.096C284.502 92.5813 285.377 91.4827 286.593 90.8C287.83 90.1173 289.505 89.776 291.617 89.776C292.811 89.776 293.825 89.9147 294.657 90.192C295.51 90.448 296.267 90.8853 296.929 91.504C297.611 92.1013 298.283 92.9333 298.944 94L296.257 95.6C295.766 94.832 295.318 94.2453 294.913 93.84C294.507 93.4133 294.049 93.1253 293.537 92.976C293.046 92.8053 292.406 92.72 291.617 92.72C290.273 92.72 289.217 92.944 288.449 93.392C287.681 93.84 287.137 94.5973 286.817 95.664C286.518 96.7307 286.369 98.2133 286.369 100.112C286.369 101.989 286.518 103.472 286.817 104.56C287.115 105.627 287.638 106.384 288.385 106.832C289.131 107.28 290.166 107.504 291.489 107.504C292.257 107.504 292.897 107.419 293.409 107.248C293.942 107.077 294.422 106.789 294.849 106.384C295.297 105.957 295.777 105.36 296.289 104.592L298.944 106.192C298.283 107.237 297.601 108.08 296.897 108.72C296.214 109.339 295.446 109.776 294.593 110.032C293.739 110.309 292.705 110.448 291.489 110.448ZM310.1 110.448C308.18 110.448 306.655 110.107 305.524 109.424C304.415 108.741 303.615 107.643 303.124 106.128C302.655 104.592 302.42 102.587 302.42 100.112C302.42 97.616 302.655 95.6107 303.124 94.096C303.615 92.5813 304.415 91.4827 305.524 90.8C306.655 90.1173 308.18 89.776 310.1 89.776C312.02 89.776 313.535 90.1173 314.644 90.8C315.775 91.4827 316.575 92.5813 317.044 94.096C317.535 95.6107 317.78 97.616 317.78 100.112C317.78 102.587 317.535 104.592 317.044 106.128C316.575 107.643 315.775 108.741 314.644 109.424C313.535 110.107 312.02 110.448 310.1 110.448ZM310.1 107.504C311.252 107.504 312.148 107.28 312.788 106.832C313.449 106.384 313.908 105.627 314.164 104.56C314.441 103.472 314.58 101.989 314.58 100.112C314.58 98.2133 314.441 96.7307 314.164 95.664C313.908 94.5973 313.449 93.84 312.788 93.392C312.148 92.944 311.252 92.72 310.1 92.72C308.948 92.72 308.041 92.944 307.38 93.392C306.74 93.84 306.281 94.5973 306.004 95.664C305.748 96.7307 305.62 98.2133 305.62 100.112C305.62 101.989 305.748 103.472 306.004 104.56C306.281 105.627 306.74 106.384 307.38 106.832C308.041 107.28 308.948 107.504 310.1 107.504ZM329.288 110.448C327.304 110.448 325.725 110.203 324.552 109.712C323.378 109.2 322.536 108.336 322.024 107.12C321.512 105.883 321.256 104.176 321.256 102V94.64C321.256 92.8693 321.586 91.3227 322.248 90C322.93 88.6773 323.869 87.6533 325.064 86.928C326.258 86.1813 327.656 85.808 329.256 85.808C330.642 85.808 331.752 85.68 332.584 85.424C333.437 85.1467 333.864 84.8053 333.864 84.4H337.224C337.224 85.2747 336.893 86.0427 336.232 86.704C335.57 87.344 334.642 87.8453 333.448 88.208C332.253 88.5707 330.856 88.752 329.256 88.752C328.296 88.752 327.453 88.9973 326.728 89.488C326.024 89.9787 325.469 90.672 325.064 91.568C324.658 92.4427 324.456 93.4667 324.456 94.64V94.736C324.84 94.4373 325.256 94.2027 325.704 94.032C326.173 93.8613 326.696 93.7333 327.272 93.648C327.869 93.5627 328.541 93.52 329.288 93.52C331.293 93.52 332.872 93.776 334.024 94.288C335.197 94.7787 336.04 95.632 336.552 96.848C337.064 98.064 337.319 99.7707 337.319 101.968C337.319 104.144 337.064 105.851 336.552 107.088C336.04 108.325 335.197 109.2 334.024 109.712C332.872 110.203 331.293 110.448 329.288 110.448ZM329.288 107.504C330.546 107.504 331.528 107.365 332.232 107.088C332.936 106.811 333.426 106.277 333.704 105.488C333.981 104.677 334.12 103.504 334.12 101.968C334.12 100.411 333.981 99.248 333.704 98.48C333.426 97.6907 332.936 97.1573 332.232 96.88C331.528 96.6027 330.546 96.464 329.288 96.464C328.029 96.464 327.048 96.6027 326.344 96.88C325.64 97.1573 325.149 97.6907 324.872 98.48C324.594 99.2693 324.456 100.443 324.456 102C324.456 103.536 324.594 104.699 324.872 105.488C325.149 106.277 325.64 106.811 326.344 107.088C327.048 107.365 328.029 107.504 329.288 107.504ZM352.987 110V90.224H356.187V110H352.987ZM340.763 110V90.224H343.963V110H340.763ZM341.691 100.848V97.904H355.259V100.848H341.691ZM358.703 110V90.224H361.903V109.392L359.887 107.056H364.783C365.679 107.056 366.383 106.949 366.895 106.736C367.407 106.501 367.769 106.117 367.983 105.584C368.196 105.051 368.303 104.325 368.303 103.408C368.303 102.469 368.196 101.744 367.983 101.232C367.769 100.699 367.407 100.325 366.895 100.112C366.383 99.8773 365.679 99.76 364.783 99.76H359.599V96.816H364.783C366.489 96.816 367.833 97.0187 368.815 97.424C369.796 97.8293 370.489 98.512 370.895 99.472C371.3 100.411 371.503 101.723 371.503 103.408C371.503 105.093 371.3 106.416 370.895 107.376C370.489 108.315 369.796 108.987 368.815 109.392C367.833 109.797 366.489 110 364.783 110H358.703ZM373.423 110V90.224H376.623V110H373.423Z" fill="#1A1A29"/>
</svg>
