<svg width="603" height="70" viewBox="0 0 603 70" fill="none" xmlns="http://www.w3.org/2000/svg">
<rect x="3.10303" width="599.897" height="70" rx="15.5" fill="#2F2D46"/>
<rect width="600" height="70" rx="15.5" fill="#2F2D46" fill-opacity="0.95"/>
<path d="M573 43V22C573 18.1273 569.873 15 566 15H540C536.127 15 533 18.1273 533 22V48C533 51.8727 536.127 55 540 55H561L573 43ZM540 51C538.345 51 537 49.6545 537 48V22C537 20.3455 538.345 19 540 19H566C567.655 19 569 20.3455 569 22V41H566C562.127 41 559 44.1273 559 48V51H540ZM548.527 30.5636C548 28.7091 546.073 27.6182 544.218 28.1455C542.364 28.6727 541.273 30.6 541.8 32.4727C541.945 32.9818 542.2 33.4364 542.527 33.8182L548.6 32.1091C548.691 31.6 548.673 31.0727 548.527 30.5636ZM561.036 27.0364C560.527 25.1818 558.582 24.0909 556.727 24.6182C554.873 25.1455 553.782 27.0727 554.309 28.9455C554.455 29.4545 554.709 29.9091 555.036 30.2909L561.109 28.5818C561.2 28.0727 561.182 27.5455 561.036 27.0364ZM562.818 33.2909L543.545 38.7273C546.145 42.1636 550.655 43.8364 555.036 42.6C559.418 41.3636 562.382 37.5636 562.818 33.2909Z" fill="#FD4E4E"/>
<path d="M276.002 32.8295H279.914C281.647 32.8295 282.999 33.2443 283.971 34.0738C284.942 34.8977 285.428 35.9999 285.428 37.3806C285.428 38.2784 285.21 39.0681 284.772 39.7499C284.335 40.4261 283.704 40.9545 282.88 41.3352C282.056 41.7102 281.067 41.8977 279.914 41.8977H273.727V28.8068H277.195V39.0426H279.914C280.522 39.0426 281.022 38.8892 281.414 38.5823C281.806 38.2755 282.005 37.8835 282.011 37.4062C282.005 36.9005 281.806 36.4886 281.414 36.1704C281.022 35.8465 280.522 35.6846 279.914 35.6846H276.002V32.8295ZM286.835 41.8977V28.8068H290.465V41.8977H286.835Z" fill="#FFF9F0"/>
<path d="M268.634 33.9034V36.7585H261.799V33.9034H268.634ZM262.992 28.8068V41.8977H259.523V28.8068H262.992ZM270.91 28.8068V41.8977H267.467V28.8068H270.91Z" fill="#FFF9F0"/>
<path d="M250.72 42.1534C249.396 42.1534 248.251 41.8721 247.285 41.3096C246.325 40.7415 245.583 39.9517 245.06 38.9403C244.538 37.9233 244.276 36.7443 244.276 35.4034C244.276 34.0511 244.538 32.8693 245.06 31.8579C245.583 30.8409 246.325 30.0511 247.285 29.4886C248.251 28.9204 249.396 28.6364 250.72 28.6364C252.043 28.6364 253.185 28.9204 254.146 29.4886C255.112 30.0511 255.856 30.8409 256.379 31.8579C256.901 32.8693 257.163 34.0511 257.163 35.4034C257.163 36.7443 256.901 37.9233 256.379 38.9403C255.856 39.9517 255.112 40.7415 254.146 41.3096C253.185 41.8721 252.043 42.1534 250.72 42.1534ZM250.737 39.3409C251.339 39.3409 251.842 39.1704 252.245 38.8295C252.649 38.4829 252.952 38.0114 253.157 37.4148C253.367 36.8182 253.472 36.1392 253.472 35.3778C253.472 34.6165 253.367 33.9375 253.157 33.3409C252.952 32.7443 252.649 32.2727 252.245 31.9261C251.842 31.5795 251.339 31.4062 250.737 31.4062C250.129 31.4062 249.617 31.5795 249.202 31.9261C248.793 32.2727 248.484 32.7443 248.274 33.3409C248.069 33.9375 247.967 34.6165 247.967 35.3778C247.967 36.1392 248.069 36.8182 248.274 37.4148C248.484 38.0114 248.793 38.4829 249.202 38.8295C249.617 39.1704 250.129 39.3409 250.737 39.3409Z" fill="#FFF9F0"/>
<path d="M229.53 41.8977L229.513 39.017H229.947C230.254 39.017 230.518 38.9431 230.74 38.7954C230.967 38.642 231.155 38.3948 231.302 38.0539C231.45 37.713 231.567 37.2613 231.652 36.6988C231.737 36.1306 231.794 35.4318 231.822 34.6022L232.035 28.8068H241.99V41.8977H238.53V31.6619H235.3L235.095 35.659C235.044 36.7556 234.91 37.6988 234.695 38.4886C234.484 39.2784 234.192 39.9261 233.817 40.4318C233.442 40.9318 232.99 41.3011 232.462 41.5397C231.933 41.7784 231.319 41.8977 230.621 41.8977H229.53Z" fill="#FFF9F0"/>
<path d="M226.438 24L227.546 26.3693C227.177 26.6761 226.768 26.9034 226.319 27.0511C225.87 27.1932 225.333 27.2869 224.708 27.3324C224.089 27.3778 223.333 27.4091 222.441 27.4261C221.43 27.4375 220.606 27.5994 219.969 27.9119C219.333 28.2244 218.85 28.7159 218.521 29.3864C218.191 30.0511 217.975 30.9205 217.873 31.9943H218.001C218.393 31.1932 218.944 30.5739 219.654 30.1364C220.37 29.6989 221.254 29.4801 222.305 29.4801C223.418 29.4801 224.393 29.7244 225.228 30.2131C226.069 30.7017 226.722 31.4034 227.188 32.3182C227.654 33.233 227.887 34.3295 227.887 35.608C227.887 36.9375 227.626 38.0938 227.103 39.0767C226.586 40.054 225.85 40.8125 224.896 41.3523C223.941 41.8864 222.805 42.1534 221.486 42.1534C220.163 42.1534 219.021 41.875 218.06 41.3182C217.106 40.7614 216.367 39.9403 215.844 38.8551C215.327 37.7699 215.069 36.4347 215.069 34.8494V33.7756C215.069 30.6222 215.682 28.2841 216.91 26.7614C218.137 25.2386 219.941 24.4659 222.322 24.4432C222.969 24.4318 223.555 24.429 224.077 24.4347C224.6 24.4403 225.057 24.4148 225.45 24.358C225.847 24.3011 226.177 24.1818 226.438 24ZM221.503 39.3409C222.06 39.3409 222.538 39.196 222.935 38.9062C223.339 38.6165 223.648 38.2017 223.864 37.6619C224.086 37.1222 224.197 36.4773 224.197 35.7273C224.197 34.983 224.086 34.3523 223.864 33.8352C223.648 33.3125 223.339 32.9148 222.935 32.642C222.532 32.3693 222.049 32.233 221.486 32.233C221.066 32.233 220.688 32.3097 220.353 32.4631C220.018 32.6165 219.731 32.8438 219.492 33.1449C219.259 33.4403 219.077 33.8068 218.947 34.2443C218.822 34.6761 218.759 35.1705 218.759 35.7273C218.759 36.8466 219.001 37.7301 219.484 38.3778C219.972 39.0199 220.646 39.3409 221.503 39.3409Z" fill="#FFF9F0"/>
<path d="M205.366 42.1449C204.531 42.1449 203.787 42 203.133 41.7102C202.48 41.4148 201.963 40.9801 201.582 40.4062C201.207 39.8267 201.02 39.1051 201.02 38.2415C201.02 37.5142 201.153 36.9034 201.42 36.4091C201.687 35.9148 202.051 35.517 202.511 35.2159C202.971 34.9148 203.494 34.6875 204.079 34.5341C204.67 34.3807 205.289 34.2727 205.937 34.2102C206.699 34.1307 207.312 34.0568 207.778 33.9886C208.244 33.9148 208.582 33.8068 208.792 33.6648C209.002 33.5227 209.108 33.3125 209.108 33.0341V32.9829C209.108 32.4432 208.937 32.0256 208.596 31.7301C208.261 31.4346 207.784 31.2869 207.164 31.2869C206.511 31.2869 205.991 31.4318 205.605 31.7216C205.218 32.0057 204.963 32.3636 204.838 32.7954L201.48 32.5227C201.65 31.7273 201.985 31.0398 202.485 30.4602C202.985 29.875 203.63 29.4261 204.42 29.1136C205.216 28.7954 206.136 28.6364 207.181 28.6364C207.909 28.6364 208.605 28.7216 209.27 28.892C209.94 29.0625 210.534 29.3267 211.051 29.6846C211.574 30.0426 211.985 30.5028 212.287 31.0653C212.588 31.6221 212.738 32.2898 212.738 33.0682V41.8977H209.295V40.0824H209.193C208.983 40.4915 208.701 40.8523 208.349 41.1648C207.997 41.4716 207.574 41.7131 207.079 41.8892C206.585 42.0596 206.014 42.1449 205.366 42.1449ZM206.406 39.6392C206.94 39.6392 207.412 39.5341 207.821 39.3239C208.23 39.1079 208.551 38.8182 208.784 38.4545C209.017 38.0909 209.133 37.679 209.133 37.2187V35.8295C209.02 35.9034 208.863 35.9716 208.664 36.0341C208.471 36.0909 208.252 36.1449 208.008 36.196C207.764 36.2415 207.52 36.2841 207.275 36.3239C207.031 36.3579 206.809 36.3892 206.61 36.4176C206.184 36.4801 205.812 36.5795 205.494 36.7159C205.176 36.8523 204.929 37.0369 204.752 37.2699C204.576 37.4971 204.488 37.7812 204.488 38.1221C204.488 38.6165 204.667 38.9943 205.025 39.2557C205.389 39.5114 205.849 39.6392 206.406 39.6392Z" fill="#FFF9F0"/>
<path d="M181.031 28.8068H184.5V39.017H188.19V28.8068H191.659V39.017H195.349V28.8068H198.818V41.8977H181.031V28.8068Z" fill="#FFF9F0"/>
<path d="M164.793 37.8835L168.339 28.8068H171.1L165.995 41.8977H163.583L158.597 28.8068H161.35L164.793 37.8835ZM160.523 28.8068V41.8977H157.055V28.8068H160.523ZM169.242 41.8977V28.8068H172.668V41.8977H169.242Z" fill="#FFF9F0"/>
<path d="M148.677 42.1534C147.33 42.1534 146.171 41.8807 145.2 41.3352C144.234 40.7841 143.489 40.0057 142.967 39C142.444 37.9886 142.183 36.7926 142.183 35.4119C142.183 34.0653 142.444 32.8835 142.967 31.8665C143.489 30.8494 144.225 30.0568 145.174 29.4886C146.129 28.9204 147.248 28.6364 148.532 28.6364C149.396 28.6364 150.2 28.7756 150.944 29.054C151.694 29.3267 152.347 29.7386 152.904 30.2898C153.467 30.8409 153.904 31.5341 154.217 32.3693C154.529 33.1989 154.685 34.1704 154.685 35.2841V36.2812H143.631V34.0312H151.268C151.268 33.5085 151.154 33.0454 150.927 32.642C150.7 32.2386 150.384 31.9233 149.981 31.696C149.583 31.4631 149.12 31.3466 148.592 31.3466C148.041 31.3466 147.552 31.4744 147.126 31.7301C146.705 31.9801 146.376 32.3182 146.137 32.7443C145.899 33.1648 145.776 33.6335 145.771 34.1506V36.2898C145.771 36.9375 145.89 37.4971 146.129 37.9687C146.373 38.4403 146.717 38.804 147.16 39.0596C147.603 39.3153 148.129 39.4432 148.737 39.4432C149.14 39.4432 149.509 39.3864 149.845 39.2727C150.18 39.1591 150.467 38.9886 150.705 38.7614C150.944 38.5341 151.126 38.2557 151.251 37.9261L154.609 38.1477C154.438 38.9545 154.089 39.6591 153.56 40.2614C153.038 40.8579 152.362 41.3239 151.532 41.6591C150.708 41.9886 149.756 42.1534 148.677 42.1534Z" fill="#FFF9F0"/>
<path d="M131.312 46.8068C130.852 46.8068 130.42 46.7698 130.017 46.696C129.619 46.6278 129.289 46.5397 129.028 46.4318L129.846 43.7215C130.272 43.8522 130.656 43.9232 130.997 43.9346C131.343 43.946 131.642 43.8664 131.892 43.696C132.147 43.5255 132.355 43.2357 132.514 42.8267L132.727 42.2727L128.031 28.8068H131.849L134.559 38.4204H134.696L137.431 28.8068H141.275L136.187 43.3124C135.943 44.017 135.61 44.6306 135.19 45.1534C134.775 45.6818 134.25 46.088 133.613 46.3721C132.977 46.6619 132.21 46.8068 131.312 46.8068Z" fill="#FFF9F0"/>
<path d="M115.764 38.1903H119.284C119.301 38.6221 119.494 38.9631 119.864 39.2131C120.233 39.4631 120.71 39.5881 121.295 39.5881C121.886 39.5881 122.383 39.4517 122.787 39.179C123.19 38.9006 123.392 38.5028 123.392 37.9858C123.392 37.6676 123.312 37.392 123.153 37.1591C122.994 36.9204 122.773 36.7329 122.489 36.5966C122.205 36.4602 121.875 36.392 121.5 36.392H119.616V34.0142H121.5C122.062 34.0142 122.494 33.8835 122.795 33.6221C123.102 33.3608 123.256 33.0341 123.256 32.642C123.256 32.1989 123.097 31.8437 122.778 31.5767C122.466 31.304 122.043 31.1676 121.508 31.1676C120.969 31.1676 120.52 31.2898 120.162 31.5341C119.81 31.7727 119.628 32.0852 119.616 32.4716H116.114C116.125 31.6875 116.361 31.0085 116.821 30.4346C117.287 29.8608 117.912 29.4176 118.696 29.1051C119.486 28.7926 120.369 28.6364 121.347 28.6364C122.415 28.6364 123.335 28.7869 124.108 29.0881C124.886 29.3835 125.483 29.8068 125.898 30.3579C126.318 30.9091 126.528 31.5653 126.528 32.3267C126.528 33.0199 126.301 33.5994 125.847 34.0653C125.392 34.5312 124.756 34.8636 123.937 35.0625V35.1989C124.477 35.2329 124.966 35.3778 125.403 35.6335C125.841 35.8892 126.19 36.2415 126.452 36.6903C126.713 37.1335 126.844 37.6591 126.844 38.267C126.844 39.0795 126.605 39.7756 126.128 40.3551C125.656 40.9346 125.003 41.3807 124.168 41.6932C123.338 42 122.386 42.1534 121.312 42.1534C120.267 42.1534 119.329 42.0028 118.5 41.7017C117.676 41.3949 117.02 40.946 116.531 40.3551C116.048 39.7642 115.793 39.0426 115.764 38.1903Z" fill="#FFF9F0"/>
<path d="M104.604 32.8295H108.516C110.249 32.8295 111.601 33.2443 112.572 34.0738C113.544 34.8977 114.03 35.9999 114.03 37.3806C114.03 38.2784 113.811 39.0681 113.374 39.7499C112.936 40.4261 112.305 40.9545 111.482 41.3352C110.658 41.7102 109.669 41.8977 108.516 41.8977H102.328V28.8068H105.797V39.0426H108.516C109.124 39.0426 109.624 38.8892 110.016 38.5823C110.408 38.2755 110.607 37.8835 110.612 37.4062C110.607 36.9005 110.408 36.4886 110.016 36.1704C109.624 35.8465 109.124 35.6846 108.516 35.6846H104.604V32.8295Z" fill="#FFF9F0"/>
<path d="M87.0532 41.8977L87.0361 39.017H87.4708C87.7776 39.017 88.0418 38.9431 88.2634 38.7954C88.4907 38.642 88.6782 38.3948 88.8259 38.0539C88.9736 37.713 89.0901 37.2613 89.1753 36.6988C89.2606 36.1306 89.3174 35.4318 89.3458 34.6022L89.5589 28.8068H99.5134V41.8977H96.0532V31.6619H92.8231L92.6185 35.659C92.5674 36.7556 92.4339 37.6988 92.218 38.4886C92.0077 39.2784 91.7151 39.9261 91.3401 40.4318C90.9651 40.9318 90.5134 41.3011 89.985 41.5397C89.4566 41.7784 88.843 41.8977 88.1441 41.8977H87.0532Z" fill="#FFF9F0"/>
<path d="M79.0164 42.1534C77.6926 42.1534 76.5477 41.8721 75.5818 41.3096C74.6215 40.7415 73.8801 39.9517 73.3573 38.9403C72.8346 37.9233 72.5732 36.7443 72.5732 35.4034C72.5732 34.0511 72.8346 32.8693 73.3573 31.8579C73.8801 30.8409 74.6215 30.0511 75.5818 29.4886C76.5477 28.9204 77.6926 28.6364 79.0164 28.6364C80.3403 28.6364 81.4823 28.9204 82.4426 29.4886C83.4085 30.0511 84.1528 30.8409 84.6755 31.8579C85.1982 32.8693 85.4596 34.0511 85.4596 35.4034C85.4596 36.7443 85.1982 37.9233 84.6755 38.9403C84.1528 39.9517 83.4085 40.7415 82.4426 41.3096C81.4823 41.8721 80.3403 42.1534 79.0164 42.1534ZM79.0335 39.3409C79.6357 39.3409 80.1386 39.1704 80.542 38.8295C80.9454 38.4829 81.2494 38.0114 81.4539 37.4148C81.6642 36.8182 81.7693 36.1392 81.7693 35.3778C81.7693 34.6165 81.6642 33.9375 81.4539 33.3409C81.2494 32.7443 80.9454 32.2727 80.542 31.9261C80.1386 31.5795 79.6357 31.4062 79.0335 31.4062C78.4255 31.4062 77.9142 31.5795 77.4994 31.9261C77.0903 32.2727 76.7806 32.7443 76.5704 33.3409C76.3659 33.9375 76.2636 34.6165 76.2636 35.3778C76.2636 36.1392 76.3659 36.8182 76.5704 37.4148C76.7806 38.0114 77.0903 38.4829 77.4994 38.8295C77.9142 39.1704 78.4255 39.3409 79.0335 39.3409Z" fill="#FFF9F0"/>
<path d="M58.7578 41.8977V28.8068H70.2038V41.8977H66.7351V31.6619H62.1839V41.8977H58.7578Z" fill="#FFF9F0"/>
<path d="M50.5867 42.1534C49.2458 42.1534 48.0924 41.8693 47.1265 41.3011C46.1663 40.7273 45.4276 39.9318 44.9106 38.9148C44.3992 37.8977 44.1436 36.7273 44.1436 35.4034C44.1436 34.0625 44.4021 32.8864 44.9191 31.875C45.4418 30.8579 46.1833 30.0653 47.1436 29.4971C48.1038 28.9233 49.2458 28.6364 50.5697 28.6364C51.7117 28.6364 52.7117 28.8437 53.5697 29.2585C54.4276 29.6733 55.1066 30.2557 55.6066 31.0057C56.1066 31.7557 56.3822 32.6364 56.4333 33.6477H53.0072C52.9106 32.9943 52.6549 32.4687 52.2401 32.071C51.8311 31.6676 51.2941 31.4659 50.6293 31.4659C50.0668 31.4659 49.5754 31.6193 49.1549 31.9261C48.7401 32.2273 48.4163 32.6676 48.1833 33.2471C47.9504 33.8267 47.8339 34.5284 47.8339 35.3523C47.8339 36.1875 47.9475 36.8977 48.1748 37.4829C48.4078 38.0682 48.7345 38.5142 49.1549 38.821C49.5754 39.1278 50.0668 39.2812 50.6293 39.2812C51.0441 39.2812 51.4163 39.196 51.7458 39.0256C52.0811 38.8551 52.3566 38.6079 52.5725 38.2841C52.7941 37.9545 52.939 37.5596 53.0072 37.0994H56.4333C56.3765 38.0994 56.1038 38.9801 55.6151 39.7415C55.1322 40.4971 54.4646 41.0881 53.6123 41.5142C52.76 41.9403 51.7515 42.1534 50.5867 42.1534Z" fill="#FFF9F0"/>
<path d="M33.4688 37.1079L38.1818 28.8068H41.7614V41.8977H38.3011V33.571L33.6051 41.8977H30V28.8068H33.4688V37.1079Z" fill="#FFF9F0"/>
</svg>
