<svg width="600" height="70" viewBox="0 0 600 70" fill="none" xmlns="http://www.w3.org/2000/svg">
<rect x="0.103027" width="599.897" height="70" rx="15.5" fill="#2F2D46"/>
<rect width="600" height="70" rx="15.5" fill="#2F2D46" fill-opacity="0.95"/>
<path d="M548.159 15.0085C548.944 14.936 549.699 15.3308 550.086 16.0173C550.473 16.704 550.42 17.5543 549.952 18.1882C548.244 20.4995 547.421 23.3475 547.635 26.2136C547.848 29.0796 549.084 31.7741 551.116 33.8064C553.149 35.8387 555.844 37.0741 558.71 37.2878C561.576 37.5015 564.423 36.6796 566.734 34.9714C567.368 34.5029 568.218 34.4507 568.905 34.8376C569.592 35.2246 569.987 35.9786 569.915 36.7634C569.565 40.5461 568.146 44.1517 565.822 47.157C563.499 50.162 560.368 52.4436 556.795 53.7341C553.222 55.0246 549.355 55.2708 545.647 54.4441C541.94 53.6173 538.544 51.7513 535.857 49.0652C533.171 46.3791 531.306 42.9836 530.479 39.2761C529.653 35.5684 529.899 31.7015 531.189 28.1286C532.48 24.556 534.761 21.4248 537.767 19.1013C540.772 16.7778 544.377 15.3582 548.159 15.0085ZM544.556 19.8796C543.001 20.4422 541.535 21.2441 540.214 22.2654C537.81 24.1242 535.984 26.6297 534.951 29.488C533.919 32.3461 533.722 35.4391 534.384 38.405C535.045 41.3712 536.538 44.0881 538.686 46.237C540.835 48.3858 543.551 49.8784 546.518 50.5398C549.484 51.2012 552.577 51.0038 555.435 49.9714C558.294 48.939 560.799 47.1139 562.658 44.7097C563.68 43.3886 564.48 41.9217 565.043 40.3669C562.937 41.1284 560.679 41.4461 558.412 41.2771C554.59 40.9921 550.998 39.3452 548.288 36.6355C545.578 33.9257 543.931 30.333 543.646 26.5115C543.477 24.2442 543.794 21.9854 544.556 19.8796Z" fill="#FD4E4E"/>
<path d="M267.739 34.5908H271.651C273.384 34.5908 274.737 35.0056 275.708 35.8352C276.68 36.659 277.166 37.7613 277.166 39.142C277.166 40.0397 276.947 40.8295 276.509 41.5113C276.072 42.1874 275.441 42.7158 274.617 43.0965C273.793 43.4715 272.805 43.659 271.651 43.659H265.464V30.5681H268.933V40.8039H271.651C272.259 40.8039 272.759 40.6505 273.151 40.3437C273.543 40.0369 273.742 39.6448 273.748 39.1675C273.742 38.6619 273.543 38.2499 273.151 37.9318C272.759 37.6079 272.259 37.446 271.651 37.446H267.739V34.5908Z" fill="#FFF9F0"/>
<path d="M262.645 30.5681V43.659H259.202V30.5681H262.645ZM260.966 36.3124V39.176C260.688 39.301 260.341 39.4203 259.926 39.534C259.511 39.6419 259.077 39.73 258.622 39.7982C258.168 39.8664 257.742 39.9005 257.344 39.9005C255.463 39.9005 253.983 39.5141 252.903 38.7414C251.824 37.963 251.284 36.7215 251.284 35.0169V30.551H254.71V35.0169C254.71 35.5226 254.796 35.9232 254.966 36.2186C255.142 36.5141 255.421 36.7272 255.801 36.8578C256.188 36.9828 256.702 37.0453 257.344 37.0453C257.94 37.0453 258.526 36.9828 259.1 36.8578C259.673 36.7328 260.296 36.551 260.966 36.3124Z" fill="#FFF9F0"/>
<path d="M242.48 43.9148C241.156 43.9148 240.012 43.6335 239.046 43.071C238.085 42.5028 237.344 41.713 236.821 40.7017C236.298 39.6846 236.037 38.5057 236.037 37.1648C236.037 35.8125 236.298 34.6307 236.821 33.6193C237.344 32.6023 238.085 31.8125 239.046 31.25C240.012 30.6818 241.156 30.3977 242.48 30.3977C243.804 30.3977 244.946 30.6818 245.906 31.25C246.872 31.8125 247.617 32.6023 248.139 33.6193C248.662 34.6307 248.923 35.8125 248.923 37.1648C248.923 38.5057 248.662 39.6846 248.139 40.7017C247.617 41.713 246.872 42.5028 245.906 43.071C244.946 43.6335 243.804 43.9148 242.48 43.9148ZM242.497 41.1023C243.1 41.1023 243.602 40.9318 244.006 40.5909C244.409 40.2443 244.713 39.7727 244.918 39.1761C245.128 38.5795 245.233 37.9005 245.233 37.1392C245.233 36.3778 245.128 35.6988 244.918 35.1023C244.713 34.5057 244.409 34.0341 244.006 33.6875C243.602 33.3409 243.1 33.1676 242.497 33.1676C241.889 33.1676 241.378 33.3409 240.963 33.6875C240.554 34.0341 240.244 34.5057 240.034 35.1023C239.83 35.6988 239.727 36.3778 239.727 37.1392C239.727 37.9005 239.83 38.5795 240.034 39.1761C240.244 39.7727 240.554 40.2443 240.963 40.5909C241.378 40.9318 241.889 41.1023 242.497 41.1023Z" fill="#FFF9F0"/>
<path d="M231.473 35.6647V38.5198H224.638V35.6647H231.473ZM225.831 30.5681V43.659H222.362V30.5681H225.831ZM233.749 30.5681V43.659H230.305V30.5681H233.749Z" fill="#FFF9F0"/>
<path d="M206.619 43.9062C205.784 43.9062 205.04 43.7613 204.386 43.4716C203.733 43.1761 203.216 42.7415 202.835 42.1676C202.46 41.588 202.272 40.8665 202.272 40.0028C202.272 39.2755 202.406 38.6648 202.673 38.1704C202.94 37.6761 203.304 37.2784 203.764 36.9773C204.224 36.6761 204.747 36.4488 205.332 36.2954C205.923 36.142 206.542 36.0341 207.19 35.9716C207.951 35.892 208.565 35.8182 209.031 35.75C209.497 35.6761 209.835 35.5682 210.045 35.4261C210.255 35.2841 210.361 35.0738 210.361 34.7954V34.7443C210.361 34.2045 210.19 33.7869 209.849 33.4915C209.514 33.196 209.037 33.0483 208.417 33.0483C207.764 33.0483 207.244 33.1932 206.858 33.4829C206.471 33.767 206.216 34.125 206.091 34.5568L202.733 34.2841C202.903 33.4886 203.238 32.8011 203.738 32.2216C204.238 31.6363 204.883 31.1875 205.673 30.875C206.468 30.5568 207.389 30.3977 208.434 30.3977C209.162 30.3977 209.858 30.4829 210.522 30.6534C211.193 30.8238 211.787 31.088 212.304 31.446C212.826 31.804 213.238 32.2642 213.54 32.8267C213.841 33.3835 213.991 34.0511 213.991 34.8295V43.6591H210.548V41.8437H210.446C210.236 42.2528 209.954 42.6136 209.602 42.9261C209.25 43.2329 208.826 43.4744 208.332 43.6505C207.838 43.821 207.267 43.9062 206.619 43.9062ZM207.659 41.4005C208.193 41.4005 208.665 41.2954 209.074 41.0852C209.483 40.8693 209.804 40.5795 210.037 40.2159C210.27 39.8523 210.386 39.4403 210.386 38.9801V37.5909C210.272 37.6648 210.116 37.7329 209.917 37.7954C209.724 37.8523 209.505 37.9062 209.261 37.9574C209.017 38.0028 208.772 38.0454 208.528 38.0852C208.284 38.1193 208.062 38.1505 207.863 38.179C207.437 38.2415 207.065 38.3409 206.747 38.4773C206.429 38.6136 206.182 38.7983 206.005 39.0312C205.829 39.2585 205.741 39.5426 205.741 39.8835C205.741 40.3778 205.92 40.7557 206.278 41.017C206.642 41.2727 207.102 41.4005 207.659 41.4005Z" fill="#FFF9F0"/>
<path d="M189.58 39.9517H193.099C193.117 40.3835 193.31 40.7244 193.679 40.9744C194.048 41.2244 194.526 41.3494 195.111 41.3494C195.702 41.3494 196.199 41.213 196.602 40.9403C197.006 40.6619 197.207 40.2642 197.207 39.7471C197.207 39.429 197.128 39.1534 196.969 38.9204C196.81 38.6818 196.588 38.4943 196.304 38.3579C196.02 38.2216 195.69 38.1534 195.315 38.1534H193.432V35.7755H195.315C195.878 35.7755 196.31 35.6449 196.611 35.3835C196.918 35.1221 197.071 34.7954 197.071 34.4034C197.071 33.9602 196.912 33.6051 196.594 33.338C196.281 33.0653 195.858 32.929 195.324 32.929C194.784 32.929 194.335 33.0511 193.977 33.2954C193.625 33.5341 193.443 33.8466 193.432 34.2329H189.929C189.94 33.4488 190.176 32.7699 190.636 32.196C191.102 31.6221 191.727 31.179 192.511 30.8665C193.301 30.554 194.185 30.3977 195.162 30.3977C196.23 30.3977 197.151 30.5483 197.923 30.8494C198.702 31.1449 199.298 31.5682 199.713 32.1193C200.134 32.6704 200.344 33.3267 200.344 34.088C200.344 34.7812 200.117 35.3608 199.662 35.8267C199.207 36.2926 198.571 36.625 197.753 36.8238V36.9602C198.293 36.9943 198.781 37.1392 199.219 37.3949C199.656 37.6505 200.006 38.0028 200.267 38.4517C200.528 38.8949 200.659 39.4204 200.659 40.0284C200.659 40.8409 200.42 41.5369 199.943 42.1165C199.472 42.696 198.818 43.142 197.983 43.4545C197.153 43.7613 196.202 43.9148 195.128 43.9148C194.082 43.9148 193.145 43.7642 192.315 43.463C191.492 43.1562 190.835 42.7074 190.347 42.1165C189.864 41.5255 189.608 40.804 189.58 39.9517Z" fill="#FFF9F0"/>
<path d="M167.333 34.5908H171.245C172.978 34.5908 174.33 35.0056 175.302 35.8352C176.274 36.659 176.759 37.7613 176.759 39.142C176.759 40.0397 176.541 40.8295 176.103 41.5113C175.666 42.1874 175.035 42.7158 174.211 43.0965C173.387 43.4715 172.399 43.659 171.245 43.659H165.058V30.5681H168.526V40.8039H171.245C171.853 40.8039 172.353 40.6505 172.745 40.3437C173.137 40.0369 173.336 39.6448 173.342 39.1675C173.336 38.6619 173.137 38.2499 172.745 37.9318C172.353 37.6079 171.853 37.446 171.245 37.446H167.333V34.5908ZM178.166 43.659V30.5681H181.796V43.659H178.166Z" fill="#FFF9F0"/>
<path d="M150.993 33.4232V30.5681H162.857V33.4232H158.638V43.659H155.178V33.4232H150.993Z" fill="#FFF9F0"/>
<path d="M141.104 38.8693L145.818 30.5682H149.397V43.6591H145.937V35.3324L141.241 43.6591H137.636V30.5682H141.104V38.8693ZM145.195 26H147.727C147.721 27.0341 147.337 27.8665 146.576 28.4972C145.82 29.1278 144.798 29.4432 143.508 29.4432C142.212 29.4432 141.187 29.1278 140.431 28.4972C139.676 27.8665 139.298 27.0341 139.298 26H141.812C141.806 26.392 141.931 26.7443 142.187 27.0568C142.448 27.3693 142.889 27.5256 143.508 27.5256C144.11 27.5256 144.542 27.3722 144.803 27.0653C145.065 26.7585 145.195 26.4034 145.195 26Z" fill="#FFF9F0"/>
<path d="M127.447 43.9062C126.612 43.9062 125.868 43.7613 125.214 43.4716C124.561 43.1761 124.044 42.7415 123.663 42.1676C123.288 41.588 123.101 40.8665 123.101 40.0028C123.101 39.2755 123.234 38.6648 123.501 38.1704C123.768 37.6761 124.132 37.2784 124.592 36.9773C125.052 36.6761 125.575 36.4488 126.16 36.2954C126.751 36.142 127.37 36.0341 128.018 35.9716C128.78 35.892 129.393 35.8182 129.859 35.75C130.325 35.6761 130.663 35.5682 130.873 35.4261C131.084 35.2841 131.189 35.0738 131.189 34.7954V34.7443C131.189 34.2045 131.018 33.7869 130.677 33.4915C130.342 33.196 129.865 33.0483 129.245 33.0483C128.592 33.0483 128.072 33.1932 127.686 33.4829C127.299 33.767 127.044 34.125 126.919 34.5568L123.561 34.2841C123.731 33.4886 124.066 32.8011 124.566 32.2216C125.066 31.6363 125.711 31.1875 126.501 30.875C127.297 30.5568 128.217 30.3977 129.263 30.3977C129.99 30.3977 130.686 30.4829 131.351 30.6534C132.021 30.8238 132.615 31.088 133.132 31.446C133.655 31.804 134.066 32.2642 134.368 32.8267C134.669 33.3835 134.819 34.0511 134.819 34.8295V43.6591H131.376V41.8437H131.274C131.064 42.2528 130.782 42.6136 130.43 42.9261C130.078 43.2329 129.655 43.4744 129.16 43.6505C128.666 43.821 128.095 43.9062 127.447 43.9062ZM128.487 41.4005C129.021 41.4005 129.493 41.2954 129.902 41.0852C130.311 40.8693 130.632 40.5795 130.865 40.2159C131.098 39.8523 131.214 39.4403 131.214 38.9801V37.5909C131.101 37.6648 130.944 37.7329 130.745 37.7954C130.552 37.8523 130.334 37.9062 130.089 37.9574C129.845 38.0028 129.601 38.0454 129.356 38.0852C129.112 38.1193 128.89 38.1505 128.691 38.179C128.265 38.2415 127.893 38.3409 127.575 38.4773C127.257 38.6136 127.01 38.7983 126.834 39.0312C126.657 39.2585 126.569 39.5426 126.569 39.8835C126.569 40.3778 126.748 40.7557 127.106 41.017C127.47 41.2727 127.93 41.4005 128.487 41.4005Z" fill="#FFF9F0"/>
<path d="M115.543 43.9148C114.202 43.9148 113.048 43.6307 112.083 43.0625C111.122 42.4886 110.384 41.6932 109.867 40.6761C109.355 39.6591 109.1 38.4886 109.1 37.1648C109.1 35.8238 109.358 34.6477 109.875 33.6363C110.398 32.6193 111.139 31.8267 112.1 31.2585C113.06 30.6846 114.202 30.3977 115.526 30.3977C116.668 30.3977 117.668 30.6051 118.526 31.0199C119.384 31.4346 120.063 32.017 120.563 32.767C121.063 33.517 121.338 34.3977 121.389 35.4091H117.963C117.867 34.7557 117.611 34.2301 117.196 33.8324C116.787 33.429 116.25 33.2273 115.585 33.2273C115.023 33.2273 114.531 33.3807 114.111 33.6875C113.696 33.9886 113.372 34.429 113.139 35.0085C112.906 35.588 112.79 36.2898 112.79 37.1136C112.79 37.9488 112.904 38.6591 113.131 39.2443C113.364 39.8295 113.691 40.2755 114.111 40.5824C114.531 40.8892 115.023 41.0426 115.585 41.0426C116 41.0426 116.372 40.9574 116.702 40.7869C117.037 40.6165 117.313 40.3693 117.529 40.0454C117.75 39.7159 117.895 39.321 117.963 38.8608H121.389C121.333 39.8608 121.06 40.7415 120.571 41.5028C120.088 42.2585 119.421 42.8494 118.568 43.2755C117.716 43.7017 116.708 43.9148 115.543 43.9148Z" fill="#FFF9F0"/>
<path d="M93.39 39.6448L96.9355 30.5681H99.6968L94.5917 43.659H92.1798L87.194 30.5681H89.9468L93.39 39.6448ZM89.1201 30.5681V43.659H85.6514V30.5681H89.1201ZM97.8389 43.659V30.5681H101.265V43.659H97.8389Z" fill="#FFF9F0"/>
<path d="M74.4482 38.8693L79.1613 30.5681H82.7409V43.659H79.2806V35.3323L74.5846 43.659H70.9795V30.5681H74.4482V38.8693Z" fill="#FFF9F0"/>
<path d="M56.6357 43.659V30.5681H68.0818V43.659H64.613V33.4232H60.0619V43.659H56.6357Z" fill="#FFF9F0"/>
<path d="M48.258 43.9148C46.9114 43.9148 45.7523 43.642 44.7807 43.0966C43.8148 42.5454 43.0705 41.767 42.5478 40.7613C42.025 39.75 41.7637 38.554 41.7637 37.1733C41.7637 35.8267 42.025 34.6449 42.5478 33.6278C43.0705 32.6108 43.8063 31.8182 44.7551 31.25C45.7097 30.6818 46.829 30.3977 48.1131 30.3977C48.9767 30.3977 49.7807 30.5369 50.525 30.8153C51.275 31.088 51.9284 31.5 52.4853 32.0511C53.0478 32.6023 53.4853 33.2954 53.7978 34.1307C54.1103 34.9602 54.2665 35.9318 54.2665 37.0454V38.0426H43.2125V35.7926H50.8489C50.8489 35.2699 50.7353 34.8068 50.508 34.4034C50.2807 34 49.9654 33.6846 49.562 33.4574C49.1642 33.2244 48.7012 33.1079 48.1728 33.1079C47.6216 33.1079 47.133 33.2358 46.7069 33.4915C46.2864 33.7415 45.9569 34.0795 45.7182 34.5057C45.4796 34.9261 45.3574 35.3949 45.3517 35.9119V38.0511C45.3517 38.6988 45.4711 39.2585 45.7097 39.7301C45.954 40.2017 46.2978 40.5653 46.7409 40.821C47.1841 41.0767 47.7097 41.2045 48.3176 41.2045C48.7211 41.2045 49.0904 41.1477 49.4256 41.0341C49.7608 40.9204 50.0478 40.75 50.2864 40.5227C50.525 40.2954 50.7069 40.017 50.8319 39.6875L54.1898 39.9091C54.0194 40.7159 53.6699 41.4204 53.1415 42.0227C52.6188 42.6193 51.9426 43.0852 51.1131 43.4204C50.2892 43.75 49.3375 43.9148 48.258 43.9148Z" fill="#FFF9F0"/>
<path d="M27.017 43.659L27 40.7783H27.4347C27.7415 40.7783 28.0057 40.7045 28.2273 40.5568C28.4545 40.4033 28.642 40.1562 28.7898 39.8153C28.9375 39.4744 29.054 39.0227 29.1392 38.4602C29.2244 37.892 29.2812 37.1931 29.3097 36.3636L29.5227 30.5681H39.4773V43.659H36.017V33.4232H32.7869L32.5824 37.4204C32.5313 38.517 32.3977 39.4602 32.1818 40.2499C31.9716 41.0397 31.679 41.6874 31.304 42.1931C30.929 42.6931 30.4773 43.0624 29.9489 43.3011C29.4205 43.5397 28.8068 43.659 28.108 43.659H27.017Z" fill="#FFF9F0"/>
</svg>
