<svg width="600" height="70" viewBox="0 0 600 70" fill="none" xmlns="http://www.w3.org/2000/svg">
<rect x="0.103027" width="599.897" height="70" rx="15.5" fill="#2F2D46"/>
<rect width="600" height="70" rx="15.5" fill="#2F2D46" fill-opacity="0.95"/>
<path d="M564.586 22.5858C565.367 21.8047 566.633 21.8047 567.414 22.5858C568.195 23.3668 568.195 24.6329 567.414 25.4139L545.414 47.4139C544.633 48.195 543.367 48.195 542.586 47.4139L532.586 37.4139C531.805 36.6329 531.805 35.3668 532.586 34.5858C533.318 33.8535 534.477 33.8073 535.263 34.4481L535.414 34.5858L544 43.1717L564.586 22.5858Z" fill="#FD4E4E"/>
<path d="M301.148 37.1079L305.862 28.8068H309.441V41.8977H305.981V33.571L301.285 41.8977H297.68V28.8068H301.148V37.1079Z" fill="#FFF9F0"/>
<path d="M283.617 41.8977V28.8068H287.248V33.8863H288.271L291.833 28.8068H296.094L291.467 35.3011L296.146 41.8977H291.833L288.603 37.2528H287.248V41.8977H283.617Z" fill="#FFF9F0"/>
<path d="M280.798 28.8068V41.8978H277.355V28.8068H280.798ZM279.119 34.5512V37.4148C278.841 37.5398 278.494 37.6591 278.08 37.7728C277.665 37.8807 277.23 37.9688 276.776 38.037C276.321 38.1051 275.895 38.1392 275.497 38.1392C273.616 38.1392 272.136 37.7529 271.057 36.9801C269.977 36.2017 269.438 34.9603 269.438 33.2557V28.7898H272.864V33.2557C272.864 33.7614 272.949 34.162 273.119 34.4574C273.295 34.7529 273.574 34.9659 273.955 35.0966C274.341 35.2216 274.855 35.2841 275.497 35.2841C276.094 35.2841 276.679 35.2216 277.253 35.0966C277.827 34.9716 278.449 34.7898 279.119 34.5512Z" fill="#FFF9F0"/>
<path d="M260.634 42.1534C259.31 42.1534 258.165 41.8721 257.199 41.3096C256.239 40.7415 255.497 39.9517 254.975 38.9403C254.452 37.9233 254.19 36.7443 254.19 35.4034C254.19 34.0511 254.452 32.8693 254.975 31.8579C255.497 30.8409 256.239 30.0511 257.199 29.4886C258.165 28.9204 259.31 28.6364 260.634 28.6364C261.957 28.6364 263.1 28.9204 264.06 29.4886C265.026 30.0511 265.77 30.8409 266.293 31.8579C266.815 32.8693 267.077 34.0511 267.077 35.4034C267.077 36.7443 266.815 37.9233 266.293 38.9403C265.77 39.9517 265.026 40.7415 264.06 41.3096C263.1 41.8721 261.957 42.1534 260.634 42.1534ZM260.651 39.3409C261.253 39.3409 261.756 39.1704 262.159 38.8295C262.563 38.4829 262.867 38.0114 263.071 37.4148C263.281 36.8182 263.386 36.1392 263.386 35.3778C263.386 34.6165 263.281 33.9375 263.071 33.3409C262.867 32.7443 262.563 32.2727 262.159 31.9261C261.756 31.5795 261.253 31.4062 260.651 31.4062C260.043 31.4062 259.531 31.5795 259.117 31.9261C258.707 32.2727 258.398 32.7443 258.188 33.3409C257.983 33.9375 257.881 34.6165 257.881 35.3778C257.881 36.1392 257.983 36.8182 258.188 37.4148C258.398 38.0114 258.707 38.4829 259.117 38.8295C259.531 39.1704 260.043 39.3409 260.651 39.3409Z" fill="#FFF9F0"/>
<path d="M239.444 41.8977L239.427 39.017H239.861C240.168 39.017 240.432 38.9431 240.654 38.7954C240.881 38.642 241.069 38.3948 241.217 38.0539C241.364 37.713 241.481 37.2613 241.566 36.6988C241.651 36.1306 241.708 35.4318 241.736 34.6022L241.949 28.8068H251.904V41.8977H248.444V31.6619H245.214L245.009 35.659C244.958 36.7556 244.824 37.6988 244.609 38.4886C244.398 39.2784 244.106 39.9261 243.731 40.4318C243.356 40.9318 242.904 41.3011 242.376 41.5397C241.847 41.7784 241.234 41.8977 240.535 41.8977H239.444Z" fill="#FFF9F0"/>
<path d="M230.022 42.1449C229.187 42.1449 228.443 42 227.789 41.7102C227.136 41.4148 226.619 40.9801 226.238 40.4062C225.863 39.8267 225.676 39.1051 225.676 38.2415C225.676 37.5142 225.809 36.9034 226.076 36.4091C226.343 35.9148 226.707 35.517 227.167 35.2159C227.627 34.9148 228.15 34.6875 228.735 34.5341C229.326 34.3807 229.946 34.2727 230.593 34.2102C231.355 34.1307 231.968 34.0568 232.434 33.9886C232.9 33.9148 233.238 33.8068 233.449 33.6648C233.659 33.5227 233.764 33.3125 233.764 33.0341V32.9829C233.764 32.4432 233.593 32.0256 233.252 31.7301C232.917 31.4346 232.44 31.2869 231.821 31.2869C231.167 31.2869 230.647 31.4318 230.261 31.7216C229.875 32.0057 229.619 32.3636 229.494 32.7954L226.136 32.5227C226.306 31.7273 226.642 31.0398 227.142 30.4602C227.642 29.875 228.287 29.4261 229.076 29.1136C229.872 28.7954 230.792 28.6364 231.838 28.6364C232.565 28.6364 233.261 28.7216 233.926 28.892C234.596 29.0625 235.19 29.3267 235.707 29.6846C236.23 30.0426 236.642 30.5028 236.943 31.0653C237.244 31.6221 237.395 32.2898 237.395 33.0682V41.8977H233.951V40.0824H233.849C233.639 40.4915 233.358 40.8523 233.005 41.1648C232.653 41.4716 232.23 41.7131 231.735 41.8892C231.241 42.0596 230.67 42.1449 230.022 42.1449ZM231.062 39.6392C231.596 39.6392 232.068 39.5341 232.477 39.3239C232.886 39.1079 233.207 38.8182 233.44 38.4545C233.673 38.0909 233.789 37.679 233.789 37.2187V35.8295C233.676 35.9034 233.52 35.9716 233.321 36.0341C233.127 36.0909 232.909 36.1449 232.664 36.196C232.42 36.2415 232.176 36.2841 231.931 36.3239C231.687 36.3579 231.466 36.3892 231.267 36.4176C230.841 36.4801 230.468 36.5795 230.15 36.7159C229.832 36.8523 229.585 37.0369 229.409 37.2699C229.233 37.4971 229.145 37.7812 229.145 38.1221C229.145 38.6165 229.324 38.9943 229.681 39.2557C230.045 39.5114 230.505 39.6392 231.062 39.6392Z" fill="#FFF9F0"/>
<path d="M224.544 28.8068V31.6619H219.107V41.8977H215.578V28.8068H224.544Z" fill="#FFF9F0"/>
<path d="M198.82 37.1079L203.533 28.8068H207.113V41.8977H203.653V33.571L198.957 41.8977H195.352V28.8068H198.82V37.1079Z" fill="#FFF9F0"/>
<path d="M178.228 45.7329V39.017H179.233C179.523 38.8352 179.756 38.5454 179.932 38.1477C180.114 37.7499 180.262 37.2812 180.375 36.7414C180.495 36.2016 180.585 35.6193 180.648 34.9943C180.716 34.3636 180.776 33.7272 180.827 33.0852L181.168 28.8068H191.208V39.017H193.236V45.7329H189.776V41.8977H181.773V45.7329H178.228ZM182.847 39.017H187.782V31.6022H184.253L184.117 33.0852C184.02 34.4829 183.881 35.6704 183.699 36.6477C183.517 37.6193 183.233 38.409 182.847 39.017Z" fill="#FFF9F0"/>
<path d="M169.061 42.1449C168.226 42.1449 167.482 42 166.828 41.7102C166.175 41.4148 165.658 40.9801 165.277 40.4062C164.902 39.8267 164.715 39.1051 164.715 38.2415C164.715 37.5142 164.848 36.9034 165.115 36.4091C165.382 35.9148 165.746 35.517 166.206 35.2159C166.667 34.9148 167.189 34.6875 167.775 34.5341C168.365 34.3807 168.985 34.2727 169.632 34.2102C170.394 34.1307 171.007 34.0568 171.473 33.9886C171.939 33.9148 172.277 33.8068 172.488 33.6648C172.698 33.5227 172.803 33.3125 172.803 33.0341V32.9829C172.803 32.4432 172.632 32.0256 172.292 31.7301C171.956 31.4346 171.479 31.2869 170.86 31.2869C170.206 31.2869 169.686 31.4318 169.3 31.7216C168.914 32.0057 168.658 32.3636 168.533 32.7954L165.175 32.5227C165.346 31.7273 165.681 31.0398 166.181 30.4602C166.681 29.875 167.326 29.4261 168.115 29.1136C168.911 28.7954 169.831 28.6364 170.877 28.6364C171.604 28.6364 172.3 28.7216 172.965 28.892C173.635 29.0625 174.229 29.3267 174.746 29.6846C175.269 30.0426 175.681 30.5028 175.982 31.0653C176.283 31.6221 176.434 32.2898 176.434 33.0682V41.8977H172.99V40.0824H172.888C172.678 40.4915 172.397 40.8523 172.044 41.1648C171.692 41.4716 171.269 41.7131 170.775 41.8892C170.28 42.0596 169.709 42.1449 169.061 42.1449ZM170.101 39.6392C170.635 39.6392 171.107 39.5341 171.516 39.3239C171.925 39.1079 172.246 38.8182 172.479 38.4545C172.712 38.0909 172.828 37.679 172.828 37.2187V35.8295C172.715 35.9034 172.559 35.9716 172.36 36.0341C172.167 36.0909 171.948 36.1449 171.703 36.196C171.459 36.2415 171.215 36.2841 170.971 36.3239C170.726 36.3579 170.505 36.3892 170.306 36.4176C169.88 36.4801 169.507 36.5795 169.189 36.7159C168.871 36.8523 168.624 37.0369 168.448 37.2699C168.272 37.4971 168.184 37.7812 168.184 38.1221C168.184 38.6165 168.363 38.9943 168.721 39.2557C169.084 39.5114 169.544 39.6392 170.101 39.6392Z" fill="#FFF9F0"/>
<path d="M150.141 46.8068V28.8068H153.72V31.0057H153.882C154.041 30.6534 154.271 30.2954 154.572 29.9318C154.879 29.5625 155.277 29.2557 155.766 29.0114C156.26 28.7614 156.874 28.6364 157.607 28.6364C158.561 28.6364 159.442 28.8864 160.249 29.3864C161.055 29.8807 161.7 30.6278 162.183 31.6278C162.666 32.6221 162.908 33.8693 162.908 35.3693C162.908 36.8295 162.672 38.0625 162.2 39.0682C161.734 40.0682 161.098 40.8267 160.291 41.3437C159.49 41.8551 158.592 42.1108 157.598 42.1108C156.893 42.1108 156.294 41.9943 155.8 41.7614C155.311 41.5284 154.911 41.2358 154.598 40.8835C154.286 40.5256 154.047 40.1648 153.882 39.8011H153.771V46.8068H150.141ZM153.695 35.3523C153.695 36.1307 153.803 36.8096 154.018 37.3892C154.234 37.9687 154.547 38.4204 154.956 38.7443C155.365 39.0625 155.862 39.2216 156.447 39.2216C157.038 39.2216 157.538 39.0596 157.947 38.7358C158.357 38.4062 158.666 37.9517 158.876 37.3721C159.092 36.7869 159.2 36.1136 159.2 35.3523C159.2 34.5966 159.095 33.9318 158.885 33.3579C158.675 32.7841 158.365 32.3352 157.956 32.0114C157.547 31.6875 157.044 31.5256 156.447 31.5256C155.857 31.5256 155.357 31.6818 154.947 31.9943C154.544 32.3068 154.234 32.75 154.018 33.3239C153.803 33.8977 153.695 34.5739 153.695 35.3523Z" fill="#FFF9F0"/>
<path d="M133.903 37.8835L137.448 28.8068H140.21L135.104 41.8977H132.692L127.707 28.8068H130.46L133.903 37.8835ZM129.633 28.8068V41.8977H126.164V28.8068H129.633ZM138.352 41.8977V28.8068H141.778V41.8977H138.352Z" fill="#FFF9F0"/>
<path d="M117.786 42.1534C116.44 42.1534 115.281 41.8807 114.309 41.3352C113.343 40.7841 112.599 40.0057 112.076 39C111.553 37.9886 111.292 36.7926 111.292 35.4119C111.292 34.0653 111.553 32.8835 112.076 31.8665C112.599 30.8494 113.335 30.0568 114.283 29.4886C115.238 28.9204 116.357 28.6364 117.641 28.6364C118.505 28.6364 119.309 28.7756 120.053 29.054C120.803 29.3267 121.457 29.7386 122.014 30.2898C122.576 30.8409 123.014 31.5341 123.326 32.3693C123.639 33.1989 123.795 34.1704 123.795 35.2841V36.2812H112.741V34.0312H120.377C120.377 33.5085 120.264 33.0454 120.036 32.642C119.809 32.2386 119.494 31.9233 119.09 31.696C118.693 31.4631 118.229 31.3466 117.701 31.3466C117.15 31.3466 116.661 31.4744 116.235 31.7301C115.815 31.9801 115.485 32.3182 115.247 32.7443C115.008 33.1648 114.886 33.6335 114.88 34.1506V36.2898C114.88 36.9375 114.999 37.4971 115.238 37.9687C115.482 38.4403 115.826 38.804 116.269 39.0596C116.712 39.3153 117.238 39.4432 117.846 39.4432C118.249 39.4432 118.619 39.3864 118.954 39.2727C119.289 39.1591 119.576 38.9886 119.815 38.7614C120.053 38.5341 120.235 38.2557 120.36 37.9261L123.718 38.1477C123.548 38.9545 123.198 39.6591 122.67 40.2614C122.147 40.8579 121.471 41.3239 120.641 41.6591C119.818 41.9886 118.866 42.1534 117.786 42.1534Z" fill="#FFF9F0"/>
<path d="M101.632 42.1449C100.797 42.1449 100.052 42 99.3988 41.7102C98.7454 41.4148 98.2283 40.9801 97.8477 40.4062C97.4727 39.8267 97.2852 39.1051 97.2852 38.2415C97.2852 37.5142 97.4187 36.9034 97.6857 36.4091C97.9528 35.9148 98.3164 35.517 98.7766 35.2159C99.2369 34.9148 99.7596 34.6875 100.345 34.5341C100.936 34.3807 101.555 34.2727 102.203 34.2102C102.964 34.1307 103.578 34.0568 104.044 33.9886C104.51 33.9148 104.848 33.8068 105.058 33.6648C105.268 33.5227 105.373 33.3125 105.373 33.0341V32.9829C105.373 32.4432 105.203 32.0256 104.862 31.7301C104.527 31.4346 104.049 31.2869 103.43 31.2869C102.777 31.2869 102.257 31.4318 101.87 31.7216C101.484 32.0057 101.228 32.3636 101.103 32.7954L97.7454 32.5227C97.9158 31.7273 98.2511 31.0398 98.7511 30.4602C99.2511 29.875 99.8959 29.4261 100.686 29.1136C101.481 28.7954 102.402 28.6364 103.447 28.6364C104.174 28.6364 104.87 28.7216 105.535 28.892C106.206 29.0625 106.799 29.3267 107.316 29.6846C107.839 30.0426 108.251 30.5028 108.552 31.0653C108.853 31.6221 109.004 32.2898 109.004 33.0682V41.8977H105.561V40.0824H105.458C105.248 40.4915 104.967 40.8523 104.615 41.1648C104.262 41.4716 103.839 41.7131 103.345 41.8892C102.851 42.0596 102.279 42.1449 101.632 42.1449ZM102.672 39.6392C103.206 39.6392 103.677 39.5341 104.086 39.3239C104.495 39.1079 104.816 38.8182 105.049 38.4545C105.282 38.0909 105.399 37.679 105.399 37.2187V35.8295C105.285 35.9034 105.129 35.9716 104.93 36.0341C104.737 36.0909 104.518 36.1449 104.274 36.196C104.029 36.2415 103.785 36.2841 103.541 36.3239C103.297 36.3579 103.075 36.3892 102.876 36.4176C102.45 36.4801 102.078 36.5795 101.76 36.7159C101.441 36.8523 101.194 37.0369 101.018 37.2699C100.842 37.4971 100.754 37.7812 100.754 38.1221C100.754 38.6165 100.933 38.9943 101.291 39.2557C101.654 39.5114 102.115 39.6392 102.672 39.6392Z" fill="#FFF9F0"/>
<path d="M84.3027 31.6619V28.8068H96.1664V31.6619H91.9476V41.8977H88.4874V31.6619H84.3027Z" fill="#FFF9F0"/>
<path d="M76.7664 42.1534C75.4426 42.1534 74.2977 41.8721 73.3318 41.3096C72.3715 40.7415 71.6301 39.9517 71.1073 38.9403C70.5846 37.9233 70.3232 36.7443 70.3232 35.4034C70.3232 34.0511 70.5846 32.8693 71.1073 31.8579C71.6301 30.8409 72.3715 30.0511 73.3318 29.4886C74.2977 28.9204 75.4426 28.6364 76.7664 28.6364C78.0903 28.6364 79.2323 28.9204 80.1926 29.4886C81.1585 30.0511 81.9028 30.8409 82.4255 31.8579C82.9482 32.8693 83.2096 34.0511 83.2096 35.4034C83.2096 36.7443 82.9482 37.9233 82.4255 38.9403C81.9028 39.9517 81.1585 40.7415 80.1926 41.3096C79.2323 41.8721 78.0903 42.1534 76.7664 42.1534ZM76.7835 39.3409C77.3857 39.3409 77.8886 39.1704 78.292 38.8295C78.6954 38.4829 78.9994 38.0114 79.2039 37.4148C79.4142 36.8182 79.5193 36.1392 79.5193 35.3778C79.5193 34.6165 79.4142 33.9375 79.2039 33.3409C78.9994 32.7443 78.6954 32.2727 78.292 31.9261C77.8886 31.5795 77.3857 31.4062 76.7835 31.4062C76.1755 31.4062 75.6642 31.5795 75.2494 31.9261C74.8403 32.2727 74.5306 32.7443 74.3204 33.3409C74.1159 33.9375 74.0136 34.6165 74.0136 35.3778C74.0136 36.1392 74.1159 36.8182 74.3204 37.4148C74.5306 38.0114 74.8403 38.4829 75.2494 38.8295C75.6642 39.1704 76.1755 39.3409 76.7835 39.3409Z" fill="#FFF9F0"/>
<path d="M66.9929 24L68.1008 26.3693C67.7315 26.6761 67.3224 26.9034 66.8735 27.0511C66.4247 27.1932 65.8877 27.2869 65.2627 27.3324C64.6434 27.3778 63.8877 27.4091 62.9957 27.4261C61.9843 27.4375 61.1605 27.5994 60.5241 27.9119C59.8877 28.2244 59.4048 28.7159 59.0752 29.3864C58.7457 30.0511 58.5298 30.9205 58.4275 31.9943H58.5554C58.9474 31.1932 59.4985 30.5739 60.2088 30.1364C60.9247 29.6989 61.8082 29.4801 62.8593 29.4801C63.973 29.4801 64.9474 29.7244 65.7826 30.2131C66.6235 30.7017 67.2769 31.4034 67.7429 32.3182C68.2088 33.233 68.4417 34.3295 68.4417 35.608C68.4417 36.9375 68.1804 38.0938 67.6576 39.0767C67.1406 40.054 66.4048 40.8125 65.4502 41.3523C64.4957 41.8864 63.3593 42.1534 62.0411 42.1534C60.7173 42.1534 59.5752 41.875 58.615 41.3182C57.6605 40.7614 56.9218 39.9403 56.3991 38.8551C55.8821 37.7699 55.6235 36.4347 55.6235 34.8494V33.7756C55.6235 30.6222 56.2372 28.2841 57.4644 26.7614C58.6917 25.2386 60.4957 24.4659 62.8764 24.4432C63.5241 24.4318 64.1093 24.429 64.6321 24.4347C65.1548 24.4403 65.6122 24.4148 66.0042 24.358C66.4019 24.3011 66.7315 24.1818 66.9929 24ZM62.0582 39.3409C62.615 39.3409 63.0923 39.196 63.49 38.9062C63.8934 38.6165 64.2031 38.2017 64.419 37.6619C64.6406 37.1222 64.7514 36.4773 64.7514 35.7273C64.7514 34.983 64.6406 34.3523 64.419 33.8352C64.2031 33.3125 63.8934 32.9148 63.49 32.642C63.0866 32.3693 62.6036 32.233 62.0411 32.233C61.6207 32.233 61.2429 32.3097 60.9076 32.4631C60.5724 32.6165 60.2855 32.8438 60.0468 33.1449C59.8139 33.4403 59.6321 33.8068 59.5014 34.2443C59.3764 34.6761 59.3139 35.1705 59.3139 35.7273C59.3139 36.8466 59.5554 37.7301 60.0383 38.3778C60.5269 39.0199 61.2002 39.3409 62.0582 39.3409Z" fill="#FFF9F0"/>
<path d="M45.9208 42.1449C45.0856 42.1449 44.3413 42 43.6879 41.7102C43.0344 41.4148 42.5174 40.9801 42.1367 40.4062C41.7617 39.8267 41.5742 39.1051 41.5742 38.2415C41.5742 37.5142 41.7077 36.9034 41.9748 36.4091C42.2418 35.9148 42.6055 35.517 43.0657 35.2159C43.5259 34.9148 44.0486 34.6875 44.6339 34.5341C45.2248 34.3807 45.8441 34.2727 46.4918 34.2102C47.2532 34.1307 47.8668 34.0568 48.3327 33.9886C48.7987 33.9148 49.1367 33.8068 49.3469 33.6648C49.5572 33.5227 49.6623 33.3125 49.6623 33.0341V32.9829C49.6623 32.4432 49.4918 32.0256 49.1509 31.7301C48.8157 31.4346 48.3384 31.2869 47.7191 31.2869C47.0657 31.2869 46.5458 31.4318 46.1594 31.7216C45.7731 32.0057 45.5174 32.3636 45.3924 32.7954L42.0344 32.5227C42.2049 31.7273 42.5401 31.0398 43.0401 30.4602C43.5401 29.875 44.185 29.4261 44.9748 29.1136C45.7702 28.7954 46.6907 28.6364 47.7362 28.6364C48.4634 28.6364 49.1594 28.7216 49.8242 28.892C50.4947 29.0625 51.0884 29.3267 51.6055 29.6846C52.1282 30.0426 52.5401 30.5028 52.8413 31.0653C53.1424 31.6221 53.293 32.2898 53.293 33.0682V41.8977H49.8498V40.0824H49.7475C49.5373 40.4915 49.256 40.8523 48.9038 41.1648C48.5515 41.4716 48.1282 41.7131 47.6339 41.8892C47.1396 42.0596 46.5685 42.1449 45.9208 42.1449ZM46.9606 39.6392C47.4947 39.6392 47.9663 39.5341 48.3754 39.3239C48.7844 39.1079 49.1055 38.8182 49.3384 38.4545C49.5714 38.0909 49.6879 37.679 49.6879 37.2187V35.8295C49.5742 35.9034 49.418 35.9716 49.2191 36.0341C49.0259 36.0909 48.8072 36.1449 48.5629 36.196C48.3185 36.2415 48.0742 36.2841 47.8299 36.3239C47.5856 36.3579 47.364 36.3892 47.1651 36.4176C46.739 36.4801 46.3668 36.5795 46.0487 36.7159C45.7305 36.8523 45.4833 37.0369 45.3072 37.2699C45.131 37.4971 45.043 37.7812 45.043 38.1221C45.043 38.6165 45.2219 38.9943 45.5799 39.2557C45.9435 39.5114 46.4038 39.6392 46.9606 39.6392Z" fill="#FFF9F0"/>
<path d="M27 46.8068V28.8068H30.5795V31.0057H30.7415C30.9006 30.6534 31.1307 30.2954 31.4318 29.9318C31.7386 29.5625 32.1364 29.2557 32.625 29.0114C33.1193 28.7614 33.733 28.6364 34.4659 28.6364C35.4205 28.6364 36.3011 28.8864 37.108 29.3864C37.9148 29.8807 38.5597 30.6278 39.0426 31.6278C39.5256 32.6221 39.767 33.8693 39.767 35.3693C39.767 36.8295 39.5312 38.0625 39.0597 39.0682C38.5938 40.0682 37.9574 40.8267 37.1506 41.3437C36.3494 41.8551 35.4517 42.1108 34.4574 42.1108C33.7528 42.1108 33.1534 41.9943 32.6591 41.7614C32.1705 41.5284 31.7699 41.2358 31.4574 40.8835C31.1449 40.5256 30.9062 40.1648 30.7415 39.8011H30.6307V46.8068H27ZM30.554 35.3523C30.554 36.1307 30.6619 36.8096 30.8778 37.3892C31.0938 37.9687 31.4062 38.4204 31.8153 38.7443C32.2244 39.0625 32.7216 39.2216 33.3068 39.2216C33.8977 39.2216 34.3977 39.0596 34.8068 38.7358C35.2159 38.4062 35.5256 37.9517 35.7358 37.3721C35.9517 36.7869 36.0597 36.1136 36.0597 35.3523C36.0597 34.5966 35.9545 33.9318 35.7443 33.3579C35.5341 32.7841 35.2244 32.3352 34.8153 32.0114C34.4062 31.6875 33.9034 31.5256 33.3068 31.5256C32.7159 31.5256 32.2159 31.6818 31.8068 31.9943C31.4034 32.3068 31.0938 32.75 30.8778 33.3239C30.6619 33.8977 30.554 34.5739 30.554 35.3523Z" fill="#FFF9F0"/>
</svg>
