<svg width="86" height="86" viewBox="0 0 86 86" fill="none" xmlns="http://www.w3.org/2000/svg">
<g filter="url(#filter0_di_83_61)">
<path d="M35.8394 4.01495C37.2155 3.88778 38.5389 4.57998 39.2177 5.78371C39.8962 6.98766 39.8043 8.4786 38.9831 9.59007C35.9877 13.6425 34.5453 18.6361 34.9199 23.6614C35.2946 28.6866 37.4611 33.4109 41.0241 36.9742C44.5876 40.5377 49.3131 42.7037 54.3386 43.0784C59.3637 43.453 64.356 42.0121 68.4083 39.017C69.5197 38.1954 71.0105 38.1039 72.2146 38.7824C73.4186 39.4609 74.112 40.7828 73.9851 42.159C73.3722 48.7913 70.8831 55.1132 66.809 60.3825C62.7351 65.6515 57.245 69.6518 50.9809 71.9146C44.7165 74.1774 37.9364 74.6089 31.4355 73.1594C24.9345 71.7098 18.9798 68.4381 14.27 63.7283C9.56068 59.0187 6.29014 53.0652 4.84062 46.5646C3.39106 40.0636 3.82266 33.2836 6.08544 27.0192C8.34818 20.755 12.3485 15.265 17.6175 11.191C22.8867 7.11712 29.2073 4.62799 35.8394 4.01495Z" fill="#FEECD1"/>
</g>
<defs>
<filter id="filter0_di_83_61" x="0" y="0" width="86" height="86" filterUnits="userSpaceOnUse" color-interpolation-filters="sRGB">
<feFlood flood-opacity="0" result="BackgroundImageFix"/>
<feColorMatrix in="SourceAlpha" type="matrix" values="0 0 0 0 0 0 0 0 0 0 0 0 0 0 0 0 0 0 127 0" result="hardAlpha"/>
<feOffset dx="4" dy="4"/>
<feGaussianBlur stdDeviation="4"/>
<feComposite in2="hardAlpha" operator="out"/>
<feColorMatrix type="matrix" values="0 0 0 0 1 0 0 0 0 0.988235 0 0 0 0 0.968627 0 0 0 1 0"/>
<feBlend mode="normal" in2="BackgroundImageFix" result="effect1_dropShadow_83_61"/>
<feBlend mode="normal" in="SourceGraphic" in2="effect1_dropShadow_83_61" result="shape"/>
<feColorMatrix in="SourceAlpha" type="matrix" values="0 0 0 0 0 0 0 0 0 0 0 0 0 0 0 0 0 0 127 0" result="hardAlpha"/>
<feOffset dx="4" dy="4"/>
<feGaussianBlur stdDeviation="4"/>
<feComposite in2="hardAlpha" operator="arithmetic" k2="-1" k3="1"/>
<feColorMatrix type="matrix" values="0 0 0 0 0.447115 0 0 0 0 0.270622 0 0 0 0 0 0 0 0 0.35 0"/>
<feBlend mode="normal" in2="shape" result="effect2_innerShadow_83_61"/>
</filter>
</defs>
</svg>
