<svg width="720" height="400" viewBox="0 0 720 400" fill="none" xmlns="http://www.w3.org/2000/svg">
<rect width="720" height="400" rx="15.5" fill="#FD4E4E"/>
<path fill-rule="evenodd" clip-rule="evenodd" d="M639.004 89.4972L610.617 61.11C610.053 60.7194 609.455 60.6377 608.419 61.0879L592.067 77.4402C591.552 79.0838 591.928 79.4407 592.923 80.3859L592.931 80.3931C593.09 80.5445 593.265 80.7111 593.455 80.9005L618.491 105.937C618.662 106.107 618.843 106.305 619.033 106.512L619.283 106.783L619.393 106.901L619.97 107.478C620.566 108.028 621.221 108.463 621.913 108.438C622.028 108.433 622.135 108.419 622.234 108.395C622.415 108.352 622.574 108.278 622.719 108.185L639.035 91.8691C639.736 90.9869 639.735 90.4105 639.004 89.4972ZM613.175 68.7608C613.096 68.6788 613.011 68.5903 612.926 68.5038L612.838 68.4134L612.804 68.3794L612.738 68.3128L612.658 68.2346C612.578 68.1561 612.506 68.0895 612.452 68.0442L612.447 68.0398C611.944 67.8143 611.601 67.9612 611.243 68.1758C611.192 68.2064 611.141 68.2384 611.089 68.271L611.069 68.2835C611.011 68.3195 610.952 68.3562 610.892 68.3919C610.448 68.654 609.912 68.8768 609.015 68.5906L608.972 68.5765C608.926 68.5611 608.879 68.5445 608.831 68.5265C608.698 68.4763 608.559 68.3936 608.418 68.3019L608.28 68.2107L608.276 68.2081L608.127 68.1098C607.779 67.8837 607.423 67.6973 607.094 67.8829L607.089 67.8859C606.64 68.1418 606.03 68.7771 605.565 69.2619L605.511 69.3177L605.452 69.3797C605.376 69.4581 605.306 69.5306 605.242 69.5949L600.445 74.3881C600.229 74.604 600.027 74.7877 599.852 74.9455L599.8 74.9921L599.792 74.9994C598.954 75.7533 598.654 76.0267 599.511 77.2639C599.975 77.9347 600.089 79.2326 599.537 79.8912C598.644 80.9573 598.953 81.2605 599.747 82.0414L599.842 82.1345L599.867 82.159L599.978 82.2699L617.502 99.7937L617.524 99.8157C617.65 99.9415 617.787 100.082 617.931 100.23L617.94 100.24L618.073 100.376C618.36 100.67 618.663 100.972 618.909 101.196C619.298 101.27 619.648 101.309 619.982 101.036C621.23 100.013 622.104 100.338 622.821 100.761C622.919 100.819 623.019 100.881 623.112 100.94L623.119 100.945L623.215 101.005C623.689 101.301 624.104 101.527 624.54 101.231C624.577 101.205 624.62 101.171 624.667 101.131C624.709 101.095 624.754 101.055 624.8 101.011L624.869 100.946L624.984 100.834L625.01 100.809L625.111 100.708L625.235 100.581L625.327 100.486C625.399 100.413 625.464 100.346 625.517 100.293L632.179 93.6518C632.665 93.1744 632.422 92.7227 632.087 92.2007L632.019 92.0953C631.964 92.0111 631.908 91.925 631.854 91.8366C631.496 91.2563 631.193 90.5767 631.658 89.6897C631.688 89.6306 631.723 89.5706 631.761 89.5095C632.62 88.1309 632.531 88.0443 631.676 87.2452L631.672 87.2404C631.513 87.0922 631.328 86.9195 631.118 86.7095L613.443 69.0354L613.331 68.9217L613.175 68.7608Z" fill="#FFF9F0" fill-opacity="0.5"/>
<path fill-rule="evenodd" clip-rule="evenodd" d="M612.738 68.3126L612.805 68.3792L612.927 68.5036L613.176 68.7607C613.28 68.869 613.375 68.9667 613.443 69.0352L631.119 86.7094C631.329 86.9193 631.513 87.0921 631.672 87.2403L631.677 87.245C632.532 88.0439 632.62 88.1308 631.762 89.5094C631.154 90.4854 631.473 91.2175 631.855 91.8365C631.909 91.9249 631.965 92.011 632.019 92.0952C632.387 92.6626 632.698 93.1424 632.18 93.6516L625.518 100.293C625.464 100.346 625.399 100.413 625.328 100.486L625.236 100.581L625.11 100.709L625.011 100.809L624.985 100.834L624.87 100.946L624.801 101.011C624.702 101.103 624.611 101.182 624.54 101.231C624.105 101.526 623.69 101.3 623.216 101.004L623.12 100.944L623.116 100.941C622.343 100.455 621.405 99.8693 619.983 101.035C619.647 101.31 619.297 101.269 618.906 101.195C618.659 100.971 618.361 100.67 618.074 100.375L617.941 100.239L617.932 100.23C617.788 100.082 617.65 99.9414 617.525 99.8155L617.503 99.7936L599.979 82.2697L599.867 82.1588L599.843 82.1343L599.748 82.0412C598.953 81.2604 598.644 80.9571 599.538 79.8909C600.089 79.2324 599.975 77.9346 599.512 77.2637C598.653 76.0242 598.962 75.7462 599.801 74.9918C599.991 74.8208 600.209 74.625 600.446 74.3879L605.243 69.5946C605.307 69.5305 605.377 69.4578 605.453 69.3794L605.512 69.3175L605.566 69.2617C606.033 68.7751 606.646 68.1366 607.095 67.8828C607.424 67.6972 607.777 67.8819 608.128 68.1097L608.281 68.2105C608.467 68.3349 608.654 68.4594 608.832 68.5264C609.84 68.9061 610.419 68.6712 610.893 68.3917C610.96 68.3517 611.026 68.3109 611.09 68.2708C611.507 68.0106 611.873 67.7819 612.448 68.0396C612.503 68.085 612.576 68.1534 612.659 68.2343L612.738 68.3126ZM619.384 80.107C621.874 82.1664 622.226 85.8542 620.168 88.3466C618.112 90.8392 614.424 91.1938 611.93 89.139C609.432 87.0815 609.077 83.3882 611.137 80.8925C613.197 78.3967 616.89 78.0449 619.384 80.107Z" fill="white" fill-opacity="0.1"/>
<path d="M620.169 88.3468C622.226 85.8544 621.875 82.1666 619.385 80.1072C616.891 78.0451 613.197 78.3969 611.137 80.8927C609.077 83.3884 609.432 87.0817 611.93 89.1392C614.425 91.194 618.112 90.8394 620.169 88.3468Z" fill="#FFF9F0" fill-opacity="0.5"/>
<path fill-rule="evenodd" clip-rule="evenodd" d="M626.977 261.901L644.84 225.948C645.03 225.289 644.917 224.697 644.16 223.858L623.45 213.569C621.728 213.604 621.509 214.075 620.931 215.319L620.926 215.328C620.834 215.528 620.731 215.747 620.612 215.987L604.859 247.696C604.751 247.912 604.622 248.147 604.486 248.393L604.308 248.716L604.232 248.858L603.869 249.589C603.537 250.329 603.334 251.088 603.578 251.737C603.619 251.844 603.667 251.94 603.721 252.027C603.82 252.185 603.94 252.312 604.075 252.42L624.739 262.686C625.798 263.069 626.345 262.885 626.977 261.901ZM638.403 230.811C638.455 230.71 638.512 230.601 638.567 230.493L638.624 230.381L638.646 230.338L638.688 230.254L638.737 230.154C638.786 230.052 638.826 229.963 638.852 229.897L638.854 229.891C638.908 229.343 638.659 229.064 638.342 228.793C638.296 228.755 638.25 228.716 638.202 228.677L638.184 228.663C638.131 228.619 638.078 228.575 638.025 228.529C637.635 228.192 637.253 227.755 637.239 226.814L637.238 226.768C637.238 226.72 637.239 226.67 637.241 226.619C637.246 226.477 637.28 226.319 637.322 226.156L637.365 225.996L637.366 225.991L637.411 225.819C637.515 225.417 637.578 225.02 637.297 224.768L637.293 224.764C636.907 224.419 636.111 224.044 635.503 223.757L635.433 223.724L635.355 223.688C635.257 223.641 635.166 223.597 635.084 223.557L629.013 220.538C628.739 220.402 628.501 220.269 628.295 220.153L628.235 220.119L628.225 220.113C627.243 219.559 626.889 219.362 625.989 220.569C625.501 221.222 624.307 221.744 623.507 221.431C622.212 220.923 622.023 221.313 621.536 222.315L621.478 222.434L621.462 222.466L621.393 222.607L610.366 244.801L610.352 244.829C610.273 244.988 610.183 245.163 610.089 245.347L610.083 245.358L609.996 245.527C609.809 245.893 609.619 246.276 609.485 246.582C609.539 246.974 609.613 247.318 609.979 247.547C611.346 248.404 611.317 249.336 611.144 250.151C611.121 250.262 611.093 250.377 611.067 250.483L611.065 250.492L611.039 250.602C610.909 251.146 610.827 251.611 611.246 251.93C611.283 251.957 611.329 251.986 611.381 252.018C611.429 252.047 611.482 252.076 611.538 252.107L611.621 252.151L611.764 252.225L611.796 252.241L611.924 252.304L612.084 252.382L612.203 252.439C612.295 252.483 612.379 252.524 612.447 252.557L620.865 256.756C621.472 257.064 621.823 256.69 622.211 256.206L622.289 256.108C622.351 256.029 622.415 255.949 622.482 255.869C622.918 255.345 623.465 254.841 624.454 254.999C624.52 255.009 624.588 255.023 624.658 255.04C626.238 255.414 626.292 255.303 626.777 254.238L626.78 254.232C626.87 254.034 626.975 253.804 627.107 253.538L638.228 231.152L638.3 231.01L638.403 230.811Z" fill="#FFF9F0" fill-opacity="0.5"/>
<path fill-rule="evenodd" clip-rule="evenodd" d="M638.689 230.254L638.647 230.339L638.568 230.494L638.404 230.812C638.334 230.946 638.272 231.066 638.228 231.153L627.108 253.539C626.976 253.805 626.871 254.035 626.781 254.232L626.778 254.239C626.293 255.304 626.239 255.415 624.658 255.04C623.539 254.775 622.947 255.311 622.482 255.87C622.416 255.95 622.352 256.03 622.289 256.108C621.869 256.637 621.513 257.085 620.865 256.756L612.447 252.558C612.38 252.524 612.296 252.484 612.204 252.44L612.085 252.382L611.923 252.304L611.797 252.242L611.765 252.225L611.622 252.152L611.539 252.107C611.419 252.043 611.316 251.982 611.247 251.93C610.828 251.612 610.91 251.146 611.04 250.603L611.066 250.493L611.067 250.488C611.282 249.6 611.539 248.525 609.98 247.548C609.613 247.317 609.539 246.972 609.485 246.578C609.619 246.272 609.81 245.895 609.997 245.528L610.084 245.359L610.09 245.347C610.184 245.163 610.274 244.988 610.353 244.829L610.367 244.802L621.394 222.607L621.463 222.466L621.478 222.435L621.536 222.315C622.023 221.314 622.212 220.924 623.508 221.431C624.308 221.744 625.502 221.223 625.99 220.569C626.891 219.361 627.253 219.565 628.235 220.119C628.458 220.246 628.713 220.389 629.013 220.538L635.085 223.558C635.166 223.598 635.258 223.642 635.356 223.688L635.434 223.725L635.504 223.758C636.114 224.046 636.914 224.423 637.298 224.768C637.579 225.021 637.516 225.414 637.412 225.82L637.365 225.997C637.307 226.213 637.248 226.43 637.241 226.62C637.203 227.696 637.61 228.17 638.026 228.53C638.085 228.581 638.145 228.631 638.203 228.679C638.583 228.991 638.916 229.265 638.855 229.892C638.829 229.958 638.788 230.05 638.738 230.154L638.689 230.254ZM629.627 240.312C628.468 243.329 625.085 244.837 622.066 243.681C619.048 242.525 617.537 239.143 618.69 236.124C619.845 233.101 623.232 231.587 626.254 232.745C629.276 233.902 630.787 237.291 629.627 240.312Z" fill="white" fill-opacity="0.1"/>
<path d="M622.066 243.681C625.084 244.836 628.468 243.328 629.626 240.312C630.786 237.291 629.276 233.902 626.254 232.745C623.232 231.587 619.844 233.101 618.69 236.124C617.537 239.143 619.048 242.525 622.066 243.681Z" fill="#FFF9F0" fill-opacity="0.5"/>
<path fill-rule="evenodd" clip-rule="evenodd" d="M595.491 138.082L555.4 140.167C554.732 140.324 554.271 140.714 553.912 141.785L555.113 164.879C555.989 166.362 556.507 166.321 557.875 166.215L557.885 166.214C558.104 166.197 558.345 166.179 558.613 166.164L593.971 164.325C594.213 164.313 594.481 164.31 594.762 164.308L595.131 164.304L595.291 164.301L596.107 164.258C596.915 164.184 597.676 163.989 598.12 163.457C598.194 163.369 598.254 163.28 598.303 163.191C598.392 163.027 598.444 162.86 598.472 162.689L597.274 139.647C597.088 138.535 596.659 138.15 595.491 138.082ZM562.796 143.388C562.682 143.392 562.559 143.396 562.438 143.401L562.312 143.406L562.264 143.408L562.17 143.413L562.059 143.42C561.947 143.427 561.849 143.435 561.779 143.445L561.773 143.446C561.269 143.669 561.148 144.022 561.068 144.432C561.057 144.49 561.046 144.55 561.035 144.61L561.031 144.633C561.019 144.7 561.007 144.768 560.993 144.837C560.891 145.342 560.697 145.89 559.885 146.364L559.845 146.387C559.803 146.411 559.759 146.435 559.714 146.458C559.587 146.524 559.433 146.571 559.271 146.615L559.11 146.656L559.106 146.658L558.933 146.702C558.532 146.81 558.155 146.949 558.073 147.318L558.072 147.323C557.961 147.828 558.025 148.707 558.074 149.377L558.079 149.454L558.085 149.54C558.093 149.648 558.1 149.749 558.105 149.84L558.454 156.612C558.47 156.917 558.471 157.19 558.471 157.426L558.471 157.495L558.471 157.506C558.47 158.633 558.473 159.039 559.965 159.231C560.774 159.336 561.815 160.12 561.935 160.97C562.129 162.348 562.561 162.321 563.673 162.254L563.805 162.246L563.84 162.244L563.997 162.235L588.746 160.948L588.777 160.946C588.955 160.937 589.151 160.93 589.358 160.921L589.371 160.921L589.561 160.913C589.971 160.897 590.398 160.875 590.73 160.841C591.045 160.602 591.308 160.368 591.329 159.937C591.405 158.326 592.231 157.894 593.025 157.644C593.134 157.61 593.247 157.578 593.353 157.548L593.361 157.545L593.47 157.514C594.007 157.36 594.453 157.203 594.525 156.682C594.531 156.637 594.534 156.582 594.536 156.521C594.537 156.466 594.537 156.405 594.536 156.341L594.534 156.246L594.528 156.086L594.526 156.05L594.519 155.907L594.508 155.73L594.499 155.598C594.492 155.496 594.486 155.403 594.483 155.328L594.009 145.933C593.979 145.253 593.481 145.131 592.869 145.03L592.745 145.01C592.646 144.995 592.545 144.978 592.443 144.959C591.772 144.837 591.064 144.607 590.716 143.668C590.693 143.606 590.672 143.54 590.652 143.471C590.202 141.91 590.079 141.918 588.913 142.018L588.906 142.018C588.69 142.037 588.438 142.059 588.141 142.074L563.179 143.373L563.02 143.38L562.796 143.388Z" fill="#FFF9F0" fill-opacity="0.5"/>
<path fill-rule="evenodd" clip-rule="evenodd" d="M562.17 143.412L562.264 143.408L562.439 143.4L562.797 143.387C562.947 143.382 563.082 143.377 563.179 143.372L588.141 142.073C588.438 142.058 588.69 142.036 588.906 142.018L588.913 142.017C590.079 141.917 590.202 141.909 590.652 143.47C590.97 144.575 591.727 144.828 592.443 144.959C592.545 144.978 592.646 144.994 592.745 145.01C593.413 145.117 593.977 145.207 594.009 145.933L594.483 155.327C594.487 155.403 594.493 155.496 594.499 155.598L594.508 155.73L594.519 155.909L594.526 156.049L594.528 156.085L594.534 156.246L594.536 156.34C594.538 156.476 594.536 156.596 594.525 156.681C594.453 157.202 594.008 157.36 593.47 157.514L593.362 157.544L593.357 157.546C592.478 157.794 591.415 158.099 591.329 159.936C591.308 160.37 591.044 160.603 590.727 160.844C590.395 160.877 589.972 160.896 589.561 160.913L589.371 160.92L589.358 160.921C589.151 160.929 588.955 160.937 588.777 160.946L588.746 160.947L563.997 162.234L563.84 162.243L563.805 162.245L563.673 162.253C562.561 162.321 562.129 162.347 561.935 160.97C561.815 160.119 560.774 159.335 559.966 159.23C558.47 159.038 558.471 158.623 558.471 157.495C558.472 157.238 558.472 156.946 558.455 156.611L558.105 149.839C558.1 149.748 558.093 149.648 558.086 149.539L558.079 149.453L558.074 149.376C558.025 148.704 557.961 147.821 558.073 147.317C558.156 146.948 558.529 146.81 558.933 146.701L559.111 146.655C559.328 146.6 559.545 146.545 559.714 146.458C560.671 145.963 560.884 145.375 560.993 144.837C561.009 144.76 561.023 144.683 561.036 144.609C561.122 144.125 561.197 143.7 561.773 143.446C561.843 143.435 561.943 143.427 562.059 143.419L562.17 143.412ZM575.381 146.371C578.578 145.9 581.553 148.107 582.027 151.304C582.502 154.501 580.297 157.477 577.1 157.955C573.9 158.433 570.918 156.225 570.444 153.023C569.968 149.823 572.18 146.843 575.381 146.371Z" fill="white" fill-opacity="0.1"/>
<path d="M582.028 151.304C581.553 148.108 578.578 145.9 575.381 146.371C572.18 146.843 569.969 149.823 570.444 153.024C570.919 156.225 573.9 158.433 577.101 157.955C580.297 157.478 582.502 154.501 582.028 151.304Z" fill="#FFF9F0" fill-opacity="0.5"/>
<path fill-rule="evenodd" clip-rule="evenodd" d="M166.108 97.9503L146.464 62.9395C146.027 62.4109 145.473 62.1704 144.354 62.3235L124.186 73.6395C123.246 75.0826 123.512 75.528 124.214 76.7072L124.219 76.7161C124.331 76.905 124.454 77.1127 124.586 77.3464L141.912 108.224C142.03 108.435 142.151 108.674 142.278 108.925L142.445 109.254L142.519 109.396L142.919 110.109C143.344 110.8 143.856 111.395 144.53 111.558C144.641 111.585 144.748 111.6 144.85 111.604C145.036 111.611 145.208 111.584 145.374 111.533L165.496 100.242C166.41 99.5825 166.565 99.0274 166.108 97.9503ZM146.856 70.9972C146.802 70.8968 146.744 70.7887 146.686 70.6824L146.625 70.5714L146.602 70.5296L146.556 70.4475L146.501 70.3507C146.444 70.2534 146.394 70.1699 146.354 70.1116L146.35 70.106C145.927 69.7529 145.557 69.8014 145.154 69.9111C145.097 69.9268 145.039 69.9437 144.98 69.9609L144.958 69.9676C144.892 69.9867 144.826 70.0061 144.758 70.0241C144.26 70.1563 143.683 70.2256 142.897 69.7075L142.86 69.6821C142.819 69.6549 142.779 69.6262 142.737 69.5959C142.623 69.5115 142.512 69.3945 142.401 69.2679L142.293 69.1428L142.289 69.1391L142.173 69.0044C141.898 68.6923 141.607 68.4167 141.24 68.5063L141.234 68.5078C140.732 68.6326 139.973 69.079 139.394 69.4199L139.328 69.4591L139.254 69.5026C139.159 69.5577 139.072 69.6084 138.993 69.653L133.078 72.969C132.812 73.1185 132.568 73.2406 132.356 73.3451L132.294 73.3759L132.284 73.3807C131.273 73.8798 130.911 74.0618 131.4 75.4846C131.665 76.256 131.424 77.5362 130.714 78.021C129.566 78.8055 129.781 79.181 130.335 80.1478L130.401 80.263L130.418 80.2934L130.495 80.4303L142.622 102.043L142.637 102.07C142.724 102.225 142.818 102.398 142.917 102.58L142.924 102.591L143.014 102.758C143.211 103.119 143.421 103.491 143.597 103.774C143.952 103.95 144.278 104.083 144.673 103.91C146.151 103.263 146.905 103.812 147.481 104.414C147.56 104.496 147.639 104.583 147.712 104.665L147.718 104.671L147.794 104.755C148.171 105.168 148.509 105.498 149.008 105.331C149.051 105.317 149.102 105.295 149.158 105.27C149.208 105.246 149.262 105.219 149.319 105.19L149.403 105.146L149.544 105.07L149.575 105.052L149.7 104.982L149.854 104.894L149.968 104.828C150.056 104.777 150.137 104.73 150.203 104.693L158.414 100.103C159.01 99.7745 158.899 99.274 158.718 98.6807L158.681 98.5608C158.651 98.465 158.621 98.3671 158.592 98.2673C158.405 97.6118 158.297 96.8754 158.984 96.1473C159.03 96.0987 159.08 96.0504 159.133 96.0019C160.332 94.9071 160.271 94.7998 159.664 93.7991L159.661 93.7933C159.548 93.6076 159.417 93.3913 159.271 93.1324L147.039 71.3339L146.962 71.1942L146.856 70.9972Z" fill="#FFF9F0" fill-opacity="0.5"/>
<path fill-rule="evenodd" clip-rule="evenodd" d="M146.557 70.4476L146.603 70.5297L146.687 70.6826L146.857 70.9975C146.928 71.13 146.993 71.2495 147.04 71.3341L159.272 93.1325C159.418 93.3914 159.549 93.6077 159.661 93.7933L159.665 93.7992C160.272 94.7997 160.333 94.9072 159.133 96.002C158.284 96.7771 158.393 97.5682 158.593 98.2674C158.622 98.3673 158.652 98.4652 158.681 98.561C158.882 99.2066 159.051 99.7528 158.415 100.103L150.204 104.693C150.138 104.73 150.057 104.777 149.969 104.828L149.854 104.894L149.699 104.984L149.576 105.052L149.544 105.07L149.403 105.146L149.32 105.19C149.199 105.252 149.091 105.303 149.009 105.332C148.51 105.498 148.171 105.168 147.795 104.755L147.72 104.671L147.716 104.667C147.104 103.99 146.36 103.172 144.674 103.91C144.277 104.083 143.951 103.949 143.594 103.772C143.417 103.489 143.213 103.119 143.015 102.758L142.924 102.591L142.918 102.58C142.819 102.398 142.725 102.225 142.638 102.07L142.623 102.043L130.496 80.4304L130.419 80.2935L130.402 80.2632L130.335 80.1479C129.782 79.1812 129.567 78.8056 130.715 78.021C131.425 77.5364 131.666 76.2562 131.401 75.4848C130.911 74.0593 131.283 73.8753 132.294 73.3759C132.524 73.2629 132.786 73.1332 133.079 72.9691L138.994 69.6531C139.073 69.6086 139.16 69.5577 139.254 69.5027L139.329 69.4592L139.395 69.42C139.976 69.0779 140.739 68.6292 141.241 68.5065C141.608 68.4168 141.897 68.6902 142.174 69.0045L142.294 69.1429C142.439 69.3131 142.585 69.4835 142.738 69.5961C143.606 70.2345 144.227 70.1651 144.759 70.0242C144.835 70.004 144.909 69.9824 144.981 69.9612C145.453 69.8235 145.868 69.7026 146.351 70.1061C146.392 70.1647 146.444 70.2503 146.502 70.3508L146.557 70.4476ZM149.762 83.6005C151.602 86.257 150.942 89.9022 148.287 91.7448C145.633 93.5877 141.987 92.931 140.142 90.2778C138.294 87.6211 138.952 83.9695 141.61 82.1245C144.269 80.2794 147.92 80.9404 149.762 83.6005Z" fill="white" fill-opacity="0.1"/>
<path d="M148.287 91.7448C150.942 89.9022 151.602 86.257 149.762 83.6004C147.92 80.9403 144.269 80.2793 141.61 82.1245C138.952 83.9694 138.294 87.6211 140.142 90.2778C141.987 92.931 145.633 93.5877 148.287 91.7448Z" fill="#FFF9F0" fill-opacity="0.5"/>
<path fill-rule="evenodd" clip-rule="evenodd" d="M73.2177 174.475L78.5525 134.685C78.5209 134 78.2228 133.475 77.2365 132.925L54.3158 129.852C52.697 130.44 52.6418 130.956 52.4943 132.32L52.4932 132.331C52.4697 132.549 52.4432 132.789 52.4079 133.055L47.7029 168.147C47.671 168.387 47.624 168.651 47.5746 168.928L47.5108 169.291L47.4841 169.449L47.3755 170.259C47.3 171.066 47.3518 171.85 47.7922 172.385C47.8651 172.474 47.9414 172.55 48.0206 172.614C48.165 172.732 48.3194 172.814 48.4824 172.873L71.3512 175.939C72.4777 175.96 72.9356 175.61 73.2177 174.475ZM74.0243 141.362C74.0414 141.249 74.0603 141.128 74.0776 141.008L74.0955 140.882L74.1024 140.835L74.1148 140.742L74.1289 140.632C74.1422 140.52 74.1521 140.423 74.155 140.352L74.1554 140.345C74.0295 139.809 73.7045 139.625 73.3168 139.471C73.2615 139.449 73.2048 139.428 73.1474 139.406L73.1255 139.398C73.0616 139.374 72.997 139.349 72.9318 139.323C72.4543 139.129 71.9516 138.838 71.635 137.952L71.62 137.909C71.6043 137.863 71.589 137.816 71.5742 137.767C71.5333 137.63 71.515 137.47 71.5022 137.302L71.4911 137.137L71.4904 137.132L71.4784 136.955C71.4465 136.54 71.379 136.145 71.0318 135.996L71.0264 135.994C70.5503 135.792 69.675 135.692 69.0077 135.617L68.9308 135.608L68.8454 135.599C68.7372 135.586 68.6366 135.574 68.547 135.562L61.8262 134.659C61.5235 134.618 61.255 134.569 61.0233 134.526L60.9547 134.513L60.944 134.511C59.8363 134.302 59.4371 134.23 58.9736 135.661C58.7219 136.437 57.7596 137.315 56.9013 137.277C55.5118 137.214 55.4583 137.643 55.3197 138.749L55.3034 138.88L55.2989 138.915L55.2784 139.071L51.9852 163.634L51.9809 163.664C51.9572 163.841 51.9285 164.035 51.8985 164.24L51.8968 164.252L51.8691 164.441C51.8096 164.847 51.7529 165.271 51.7244 165.603C51.9021 165.957 52.0828 166.259 52.5031 166.358C54.0727 166.729 54.3455 167.621 54.4444 168.448C54.4579 168.561 54.4686 168.678 54.4782 168.788L54.4793 168.797L54.4899 168.909C54.5422 169.466 54.6147 169.933 55.1136 170.099C55.1569 170.113 55.21 170.127 55.2702 170.14C55.3241 170.151 55.3837 170.162 55.4469 170.173L55.5401 170.188L55.6988 170.212L55.7347 170.217L55.8763 170.236L56.0522 170.258L56.1836 170.274C56.2849 170.286 56.3775 170.297 56.4524 170.307L65.7738 171.572C66.4479 171.668 66.6595 171.201 66.8711 170.617L66.9135 170.499C66.9473 170.405 66.9821 170.309 67.0192 170.212C67.2633 169.575 67.6193 168.921 68.6065 168.753C68.6721 168.741 68.741 168.732 68.8124 168.726C70.4292 168.571 70.4444 168.448 70.5607 167.284L70.5617 167.278C70.583 167.061 70.6082 166.81 70.6476 166.515L73.9684 141.741L73.9907 141.583L74.0243 141.362Z" fill="#FFF9F0" fill-opacity="0.5"/>
<path fill-rule="evenodd" clip-rule="evenodd" d="M74.1155 140.742L74.103 140.836L74.0782 141.008L74.0252 141.363C74.0022 141.511 73.9818 141.645 73.969 141.741L70.6482 166.516C70.6088 166.81 70.5836 167.062 70.5619 167.278L70.5613 167.285C70.4452 168.449 70.4298 168.572 68.813 168.726C67.6682 168.835 67.2802 169.533 67.0198 170.212C66.9826 170.309 66.9478 170.406 66.914 170.5C66.6861 171.136 66.4933 171.675 65.7744 171.572L56.453 170.308C56.3782 170.297 56.2856 170.286 56.1842 170.274L56.0529 170.258L55.8745 170.236L55.7353 170.217L55.6995 170.212L55.5408 170.189L55.4476 170.174C55.3137 170.151 55.1965 170.126 55.1142 170.1C54.6153 169.933 54.5428 169.466 54.4905 168.91L54.4803 168.797L54.4798 168.792C54.3974 167.883 54.2939 166.782 52.5037 166.359C52.0817 166.259 51.9014 165.956 51.7229 165.6C51.7515 165.267 51.8105 164.848 51.8698 164.441L51.8974 164.253L51.8991 164.24C51.9291 164.036 51.9578 163.841 51.9815 163.665L51.9858 163.634L55.2791 139.071L55.2995 138.915L55.304 138.881L55.3203 138.749C55.4589 137.644 55.5125 137.214 56.902 137.277C57.7602 137.316 58.7224 136.438 58.9742 135.662C59.4387 134.228 59.8471 134.305 60.9554 134.513C61.2071 134.561 61.4944 134.615 61.8269 134.659L68.5476 135.563C68.6375 135.575 68.7379 135.587 68.8461 135.599L68.9315 135.609L69.0083 135.618C69.6783 135.693 70.558 135.793 71.0323 135.996C71.3796 136.145 71.4468 136.538 71.479 136.955L71.4917 137.138C71.5058 137.361 71.5202 137.585 71.5748 137.767C71.885 138.799 72.423 139.117 72.9325 139.323C73.0053 139.353 73.0776 139.38 73.1483 139.407C73.6082 139.58 74.0123 139.733 74.156 140.346C74.1533 140.417 74.1434 140.517 74.1296 140.632L74.1155 140.742ZM68.7743 153.182C68.6488 156.411 65.9309 158.928 62.7015 158.806C59.4722 158.684 56.9525 155.968 57.0719 152.739C57.1913 149.505 59.9111 146.981 63.1451 147.104C66.3787 147.226 68.8999 149.949 68.7743 153.182Z" fill="white" fill-opacity="0.1"/>
<path d="M62.701 158.806C65.9305 158.928 68.6484 156.411 68.7739 153.182C68.8994 149.948 66.3783 147.226 63.1446 147.104C59.9107 146.981 57.1909 149.505 57.0715 152.739C56.9521 155.968 59.4717 158.684 62.701 158.806Z" fill="#FFF9F0" fill-opacity="0.5"/>
<path fill-rule="evenodd" clip-rule="evenodd" d="M146.732 212.124L108.573 224.596C107.969 224.922 107.626 225.419 107.559 226.546L114.743 248.528C115.976 249.73 116.465 249.556 117.758 249.097L117.767 249.093C117.975 249.019 118.202 248.939 118.457 248.855L152.111 237.855C152.341 237.78 152.599 237.708 152.87 237.632L153.225 237.532L153.379 237.487L154.155 237.233C154.916 236.951 155.6 236.564 155.89 235.935C155.938 235.83 155.973 235.729 155.997 235.629C156.04 235.448 156.047 235.274 156.029 235.101L148.861 213.17C148.391 212.145 147.877 211.885 146.732 212.124ZM116.553 225.776C116.444 225.81 116.327 225.845 116.211 225.882L116.091 225.92L116.045 225.935L115.956 225.964L115.85 225.999C115.744 226.036 115.652 226.069 115.587 226.097L115.581 226.1C115.152 226.446 115.128 226.818 115.157 227.235C115.162 227.294 115.167 227.354 115.172 227.415L115.174 227.439C115.18 227.507 115.187 227.575 115.191 227.646C115.224 228.16 115.18 228.739 114.519 229.409L114.487 229.441C114.453 229.475 114.416 229.51 114.379 229.544C114.274 229.64 114.137 229.726 113.992 229.811L113.848 229.893L113.844 229.895L113.689 229.983C113.329 230.192 113.002 230.425 113.019 230.802L113.019 230.808C113.044 231.324 113.335 232.156 113.557 232.79L113.582 232.863L113.611 232.944C113.646 233.047 113.679 233.143 113.708 233.228L115.812 239.675C115.907 239.965 115.979 240.228 116.041 240.456L116.059 240.523L116.062 240.534C116.355 241.622 116.463 242.013 117.954 241.809C118.762 241.699 119.971 242.185 120.309 242.974C120.855 244.254 121.266 244.115 122.321 243.76L122.447 243.718L122.48 243.707L122.63 243.657L146.186 235.958L146.215 235.948C146.384 235.893 146.572 235.835 146.769 235.773L146.782 235.769L146.963 235.712C147.355 235.589 147.762 235.456 148.073 235.337C148.315 235.024 148.508 234.73 148.415 234.308C148.068 232.733 148.753 232.1 149.455 231.652C149.551 231.591 149.652 231.53 149.746 231.474L149.754 231.469L149.85 231.411C150.329 231.122 150.718 230.854 150.652 230.332C150.645 230.287 150.634 230.233 150.62 230.174C150.607 230.12 150.591 230.062 150.573 230L150.547 229.909L150.499 229.756L150.488 229.722L150.443 229.586L150.387 229.418L150.344 229.293C150.311 229.196 150.281 229.108 150.257 229.036L147.349 220.09C147.143 219.441 146.63 219.453 146.013 219.516L145.888 219.529C145.788 219.54 145.686 219.55 145.583 219.559C144.904 219.615 144.16 219.578 143.58 218.763C143.541 218.708 143.503 218.65 143.466 218.589C142.625 217.199 142.507 217.239 141.408 217.64L141.402 217.642C141.198 217.717 140.96 217.803 140.678 217.895L116.919 225.662L116.767 225.71L116.553 225.776Z" fill="#FFF9F0" fill-opacity="0.5"/>
<path fill-rule="evenodd" clip-rule="evenodd" d="M115.956 225.963L116.045 225.934L116.212 225.881L116.554 225.775C116.697 225.731 116.827 225.691 116.919 225.661L140.678 217.895C140.96 217.802 141.198 217.716 141.402 217.642L141.408 217.639C142.507 217.238 142.625 217.199 143.466 218.588C144.061 219.572 144.859 219.618 145.583 219.558C145.687 219.549 145.789 219.539 145.888 219.528C146.561 219.457 147.129 219.397 147.349 220.089L150.258 229.035C150.281 229.107 150.311 229.195 150.344 229.292L150.387 229.417L150.445 229.587L150.488 229.721L150.499 229.755L150.547 229.909L150.573 229.999C150.611 230.13 150.64 230.246 150.652 230.331C150.718 230.853 150.329 231.121 149.851 231.41L149.754 231.468L149.749 231.471C148.966 231.94 148.019 232.511 148.415 234.307C148.509 234.731 148.314 235.025 148.071 235.34C147.759 235.459 147.356 235.588 146.963 235.711L146.782 235.768L146.77 235.772C146.572 235.834 146.385 235.892 146.216 235.948L146.186 235.957L122.63 243.656L122.481 243.706L122.448 243.717L122.322 243.759C121.266 244.114 120.856 244.253 120.309 242.974C119.971 242.184 118.762 241.698 117.954 241.808C116.461 242.013 116.352 241.612 116.059 240.523C115.993 240.275 115.916 239.993 115.812 239.674L113.708 233.228C113.68 233.141 113.647 233.046 113.611 232.943L113.583 232.862L113.557 232.789C113.334 232.152 113.042 231.317 113.019 230.801C113.003 230.424 113.327 230.193 113.689 229.983L113.848 229.892C114.043 229.782 114.239 229.672 114.379 229.544C115.174 228.816 115.226 228.194 115.191 227.645C115.186 227.566 115.179 227.489 115.173 227.414C115.129 226.925 115.091 226.494 115.581 226.099C115.646 226.07 115.74 226.036 115.85 225.998L115.956 225.963ZM129.481 225.373C132.444 224.083 135.892 225.439 137.184 228.401C138.476 231.363 137.124 234.812 134.163 236.107C131.198 237.403 127.743 236.049 126.45 233.083C125.156 230.117 126.513 226.664 129.481 225.373Z" fill="white" fill-opacity="0.1"/>
<path d="M137.184 228.401C135.892 225.439 132.444 224.084 129.481 225.373C126.513 226.664 125.156 230.117 126.45 233.083C127.743 236.049 131.198 237.403 134.163 236.107C137.124 234.812 138.476 231.363 137.184 228.401Z" fill="#FFF9F0" fill-opacity="0.5"/>
<path fill-rule="evenodd" clip-rule="evenodd" d="M110.894 318.511L80.6484 292.112C80.0594 291.761 79.4572 291.72 78.4544 292.239L63.2474 309.662C62.8452 311.337 63.245 311.667 64.3016 312.543L64.3096 312.55C64.479 312.69 64.6645 312.844 64.8667 313.02L91.5419 336.302C91.7242 336.461 91.9184 336.646 92.1223 336.84L92.3899 337.094L92.5071 337.203L93.1223 337.74C93.7543 338.249 94.4369 338.638 95.1261 338.566C95.2401 338.554 95.3453 338.532 95.4429 338.501C95.6208 338.446 95.7739 338.362 95.9131 338.259L111.085 320.875C111.725 319.948 111.685 319.373 110.894 318.511ZM83.7194 299.572C83.6347 299.496 83.5441 299.413 83.4537 299.333L83.3589 299.249L83.3234 299.217L83.2524 299.155L83.168 299.082C83.0822 299.01 83.0066 298.948 82.9492 298.906L82.9439 298.902C82.427 298.711 82.0946 298.881 81.7521 299.12C81.7033 299.154 81.6541 299.189 81.6044 299.225L81.5856 299.239C81.5302 299.279 81.4742 299.319 81.4162 299.359C80.9914 299.651 80.4712 299.909 79.5575 299.684L79.5132 299.673C79.4663 299.661 79.4184 299.648 79.3693 299.633C79.233 299.592 79.0894 299.519 78.9422 299.437L78.7985 299.355L78.7938 299.353L78.6391 299.265C78.2758 299.063 77.9087 298.901 77.5929 299.108L77.5881 299.112C77.1573 299.398 76.5915 300.073 76.1606 300.588L76.111 300.647L76.0558 300.713C75.9855 300.796 75.92 300.874 75.8609 300.942L71.3998 306.049C71.1989 306.279 71.0099 306.476 70.8459 306.646L70.7972 306.696L70.7896 306.703C70.0048 307.512 69.7242 307.805 70.6625 308.982C71.1708 309.62 71.3725 310.907 70.8668 311.601C70.0477 312.725 70.3764 313.007 71.2219 313.732L71.3229 313.819L71.3493 313.841L71.4681 313.945L90.1392 330.241L90.1623 330.261C90.2963 330.378 90.4428 330.51 90.5968 330.647L90.6065 330.656L90.7482 330.783C91.0546 331.057 91.3767 331.338 91.6382 331.545C92.0314 331.592 92.3825 331.607 92.6973 331.312C93.8729 330.207 94.767 330.472 95.5113 330.845C95.6134 330.896 95.7169 330.952 95.8135 331.005L95.8213 331.008L95.9211 331.062C96.414 331.325 96.8437 331.522 97.2578 331.198C97.2933 331.169 97.3338 331.133 97.3779 331.09C97.4173 331.051 97.4593 331.007 97.5032 330.961L97.5673 330.891L97.6745 330.772L97.6985 330.745L97.7924 330.637L97.9077 330.502L97.9934 330.402C98.0594 330.324 98.1199 330.253 98.1696 330.196L104.366 323.118C104.818 322.609 104.545 322.175 104.176 321.677L104.101 321.576C104.04 321.496 103.979 321.414 103.919 321.329C103.523 320.775 103.174 320.117 103.577 319.201C103.604 319.14 103.635 319.077 103.669 319.014C104.432 317.58 104.338 317.5 103.43 316.761L103.426 316.756C103.257 316.619 103.061 316.459 102.837 316.264L84.0048 299.828L83.8854 299.722L83.7194 299.572Z" fill="#FFF9F0" fill-opacity="0.5"/>
<path fill-rule="evenodd" clip-rule="evenodd" d="M83.2534 299.155L83.3243 299.217L83.4546 299.332L83.7208 299.572C83.8319 299.673 83.9327 299.764 84.0058 299.828L102.838 316.264C103.062 316.459 103.258 316.619 103.426 316.756L103.431 316.76C104.339 317.499 104.433 317.58 103.669 319.014C103.129 320.029 103.497 320.737 103.92 321.329C103.98 321.414 104.041 321.496 104.102 321.576C104.507 322.117 104.849 322.575 104.367 323.118L98.1706 330.196C98.1208 330.252 98.0604 330.323 97.9943 330.401L97.9086 330.502L97.7919 330.639L97.6994 330.744L97.6755 330.772L97.5682 330.891L97.5042 330.96C97.4112 331.059 97.3264 331.144 97.2587 331.198C96.8447 331.522 96.4149 331.325 95.922 331.061L95.8228 331.008L95.8181 331.005C95.0142 330.573 94.0388 330.052 92.6983 331.311C92.382 331.608 92.0298 331.591 91.6345 331.544C91.3731 331.337 91.0561 331.056 90.7491 330.782L90.6075 330.655L90.5978 330.647C90.4437 330.509 90.2972 330.378 90.1633 330.261L90.1402 330.24L71.469 313.944L71.3502 313.841L71.3239 313.818L71.2229 313.732C70.3774 313.007 70.0487 312.725 70.8677 311.601C71.3735 310.906 71.1717 309.619 70.6635 308.982C69.7235 307.803 70.0128 307.505 70.7981 306.695C70.9769 306.512 71.1801 306.302 71.4007 306.049L75.8618 300.942C75.9214 300.873 75.9865 300.796 76.0567 300.713L76.1119 300.647L76.1615 300.588C76.5944 300.071 77.1629 299.392 77.5939 299.108C77.9096 298.901 78.2742 299.061 78.6401 299.265L78.7995 299.355C78.9937 299.466 79.1885 299.578 79.3703 299.633C80.4021 299.943 80.9638 299.67 81.4172 299.359C81.482 299.314 81.5447 299.269 81.6059 299.225C82.0042 298.937 82.3543 298.684 82.9448 298.902C83.0028 298.944 83.0804 299.007 83.169 299.082L83.2534 299.155ZM90.683 310.472C93.3071 312.358 93.9075 316.013 92.0238 318.639C90.1407 321.265 86.4857 321.869 83.8579 319.988C81.2263 318.105 80.6215 314.444 82.508 311.814C84.3939 309.185 88.0551 308.583 90.683 310.472Z" fill="white" fill-opacity="0.1"/>
<path d="M92.0235 318.639C93.9071 316.013 93.3068 312.357 90.6826 310.472C88.0548 308.583 84.3936 309.184 82.5076 311.814C80.6212 314.444 81.226 318.104 83.8575 319.988C86.4854 321.869 90.1404 321.265 92.0235 318.639Z" fill="#FFF9F0" fill-opacity="0.5"/>
<path fill-rule="evenodd" clip-rule="evenodd" d="M554.083 322.259L592.861 332.649C593.544 332.705 594.103 332.477 594.775 331.569L600.761 309.232C600.385 307.551 599.88 307.43 598.546 307.109L598.536 307.106C598.322 307.055 598.087 306.998 597.828 306.929L563.628 297.765C563.395 297.703 563.139 297.622 562.87 297.538L562.519 297.428L562.365 297.381L561.576 297.17C560.785 296.992 560.001 296.942 559.414 297.311C559.317 297.372 559.232 297.437 559.158 297.508C559.022 297.636 558.922 297.779 558.842 297.933L552.871 320.22C552.704 321.334 552.993 321.833 554.083 322.259ZM586.82 327.303C586.929 327.334 587.047 327.368 587.164 327.401L587.286 327.435L587.332 327.447L587.423 327.472L587.53 327.5C587.64 327.527 587.735 327.55 587.804 327.562L587.811 327.563C588.359 327.507 588.583 327.208 588.785 326.843C588.814 326.791 588.843 326.738 588.872 326.683L588.882 326.663C588.915 326.603 588.947 326.542 588.982 326.48C589.235 326.032 589.588 325.57 590.507 325.37L590.552 325.36C590.599 325.351 590.648 325.342 590.699 325.333C590.839 325.31 591.001 325.313 591.169 325.321L591.334 325.332L591.339 325.332L591.517 325.342C591.932 325.364 592.333 325.348 592.525 325.022L592.528 325.017C592.789 324.571 593 323.716 593.16 323.063L593.178 322.988L593.199 322.905C593.225 322.799 593.25 322.701 593.273 322.614L595.031 316.064C595.11 315.769 595.193 315.509 595.266 315.285L595.287 315.219L595.291 315.208C595.639 314.136 595.762 313.75 594.402 313.106C593.665 312.757 592.917 311.69 593.065 310.844C593.306 309.474 592.887 309.366 591.809 309.087L591.68 309.054L591.646 309.045L591.494 309.005L567.556 302.591L567.526 302.583C567.354 302.536 567.165 302.483 566.966 302.427L566.954 302.424L566.771 302.372C566.375 302.261 565.962 302.15 565.636 302.08C565.262 302.21 564.94 302.351 564.788 302.755C564.218 304.264 563.299 304.42 562.466 304.413C562.352 304.411 562.235 304.407 562.125 304.403L562.116 304.403L562.003 304.399C561.444 304.379 560.972 304.391 560.743 304.865C560.723 304.906 560.703 304.957 560.683 305.015C560.664 305.067 560.646 305.124 560.627 305.186L560.6 305.276L560.556 305.431L560.546 305.466L560.51 305.604L560.465 305.775L560.433 305.903C560.408 306.002 560.385 306.093 560.365 306.166L557.916 315.248C557.735 315.904 558.171 316.174 558.722 316.459L558.834 316.516C558.923 316.562 559.014 316.608 559.105 316.658C559.706 316.981 560.308 317.418 560.349 318.419C560.352 318.485 560.352 318.555 560.349 318.627C560.295 320.25 560.415 320.281 561.555 320.545L561.561 320.547C561.773 320.596 562.019 320.653 562.306 320.73L586.451 327.198L586.605 327.241L586.82 327.303Z" fill="#FFF9F0" fill-opacity="0.5"/>
<path fill-rule="evenodd" clip-rule="evenodd" d="M587.422 327.472L587.331 327.448L587.163 327.401L586.819 327.303C586.674 327.261 586.544 327.224 586.45 327.199L562.306 320.73C562.019 320.654 561.773 320.596 561.561 320.547L561.554 320.546C560.415 320.281 560.295 320.25 560.349 318.627C560.387 317.478 559.745 317.003 559.105 316.658C559.013 316.609 558.922 316.562 558.833 316.516C558.231 316.209 557.722 315.949 557.916 315.249L560.364 306.166C560.384 306.093 560.407 306.003 560.432 305.904L560.465 305.776L560.509 305.602L560.546 305.466L560.555 305.431L560.599 305.277L560.626 305.186C560.666 305.056 560.705 304.943 560.742 304.865C560.971 304.392 561.444 304.38 562.002 304.399L562.115 304.403L562.12 304.404C563.033 304.438 564.138 304.477 564.787 302.756C564.94 302.35 565.264 302.21 565.64 302.079C565.966 302.149 566.374 302.262 566.77 302.373L566.953 302.424L566.965 302.428C567.164 302.483 567.354 302.537 567.526 302.583L567.555 302.591L591.493 309.005L591.645 309.046L591.679 309.054L591.808 309.088C592.886 309.367 593.305 309.475 593.065 310.845C592.916 311.691 593.664 312.758 594.401 313.107C595.764 313.751 595.636 314.147 595.287 315.219C595.207 315.463 595.117 315.741 595.03 316.065L593.272 322.614C593.249 322.702 593.225 322.8 593.198 322.905L593.178 322.989L593.159 323.064C592.998 323.719 592.786 324.578 592.524 325.023C592.332 325.348 591.934 325.364 591.516 325.343L591.333 325.332C591.11 325.317 590.886 325.303 590.698 325.334C589.635 325.509 589.251 326.002 588.981 326.481C588.942 326.549 588.906 326.617 588.871 326.684C588.64 327.118 588.437 327.499 587.81 327.563C587.74 327.551 587.642 327.529 587.53 327.5L587.422 327.472ZM575.769 320.581C572.583 320.042 570.435 317.024 570.97 313.837C571.505 310.65 574.522 308.499 577.709 309.032C580.901 309.565 583.055 312.585 582.519 315.777C581.983 318.968 578.96 321.12 575.769 320.581Z" fill="white" fill-opacity="0.1"/>
<path d="M570.97 313.837C570.435 317.024 572.583 320.042 575.769 320.581C578.96 321.12 581.983 318.968 582.519 315.777C583.055 312.585 580.901 309.564 577.709 309.032C574.521 308.499 571.505 310.65 570.97 313.837Z" fill="#FFF9F0" fill-opacity="0.5"/>
<path d="M203.242 270.491V245.014H207.463C208.901 243.981 210.216 242.524 211.411 240.641C212.605 238.738 213.628 236.116 214.478 232.776C215.328 229.415 215.936 225.022 216.3 219.597L218.061 193.299H259.208V245.014H266.01V270.431H253.378V255.49H215.875V270.491H203.242ZM222.647 245.014H246.575V204.14H229.904L228.932 219.597C228.669 223.706 228.234 227.35 227.627 230.529C227.04 233.707 226.321 236.491 225.471 238.88C224.641 241.248 223.699 243.293 222.647 245.014ZM294.836 256.401C290.119 256.401 286.04 255.399 282.598 253.395C279.177 251.37 276.535 248.557 274.672 244.953C272.81 241.329 271.879 237.129 271.879 232.351C271.879 227.533 272.81 223.322 274.672 219.718C276.535 216.095 279.177 213.281 282.598 211.276C286.04 209.252 290.119 208.24 294.836 208.24C299.553 208.24 303.622 209.252 307.043 211.276C310.485 213.281 313.137 216.095 314.999 219.718C316.862 223.322 317.793 227.533 317.793 232.351C317.793 237.129 316.862 241.329 314.999 244.953C313.137 248.557 310.485 251.37 307.043 253.395C303.622 255.399 299.553 256.401 294.836 256.401ZM294.896 246.38C297.042 246.38 298.834 245.773 300.271 244.558C301.709 243.323 302.792 241.643 303.521 239.517C304.27 237.392 304.644 234.972 304.644 232.26C304.644 229.547 304.27 227.128 303.521 225.002C302.792 222.876 301.709 221.196 300.271 219.961C298.834 218.726 297.042 218.109 294.896 218.109C292.73 218.109 290.908 218.726 289.43 219.961C287.973 221.196 286.87 222.876 286.121 225.002C285.392 227.128 285.027 229.547 285.027 232.26C285.027 234.972 285.392 237.392 286.121 239.517C286.87 241.643 287.973 243.323 289.43 244.558C290.908 245.773 292.73 246.38 294.896 246.38ZM326.205 272.981V208.847H338.959V216.682H339.536C340.102 215.426 340.922 214.151 341.995 212.855C343.088 211.54 344.506 210.446 346.247 209.576C348.008 208.685 350.194 208.24 352.806 208.24C356.207 208.24 359.345 209.13 362.219 210.912C365.094 212.673 367.392 215.335 369.113 218.898C370.833 222.441 371.694 226.885 371.694 232.229C371.694 237.432 370.854 241.825 369.173 245.408C367.513 248.972 365.246 251.674 362.371 253.516C359.517 255.338 356.318 256.249 352.775 256.249C350.265 256.249 348.129 255.834 346.368 255.004C344.627 254.174 343.2 253.132 342.086 251.877C340.973 250.601 340.123 249.316 339.536 248.02H339.141V272.981H326.205ZM338.867 232.169C338.867 234.942 339.252 237.361 340.021 239.426C340.791 241.491 341.904 243.101 343.362 244.255C344.819 245.388 346.591 245.955 348.676 245.955C350.781 245.955 352.563 245.378 354.02 244.224C355.478 243.05 356.581 241.43 357.33 239.366C358.1 237.28 358.484 234.881 358.484 232.169C358.484 229.476 358.11 227.107 357.361 225.063C356.612 223.018 355.508 221.419 354.051 220.265C352.593 219.111 350.802 218.534 348.676 218.534C346.57 218.534 344.789 219.091 343.331 220.204C341.894 221.318 340.791 222.897 340.021 224.941C339.252 226.986 338.867 229.395 338.867 232.169ZM401.392 256.401C396.676 256.401 392.596 255.399 389.155 253.395C385.733 251.37 383.091 248.557 381.229 244.953C379.367 241.329 378.435 237.129 378.435 232.351C378.435 227.533 379.367 223.322 381.229 219.718C383.091 216.095 385.733 213.281 389.155 211.276C392.596 209.252 396.676 208.24 401.392 208.24C406.109 208.24 410.179 209.252 413.6 211.276C417.041 213.281 419.693 216.095 421.556 219.718C423.418 223.322 424.35 227.533 424.35 232.351C424.35 237.129 423.418 241.329 421.556 244.953C419.693 248.557 417.041 251.37 413.6 253.395C410.179 255.399 406.109 256.401 401.392 256.401ZM401.453 246.38C403.599 246.38 405.391 245.773 406.828 244.558C408.265 243.323 409.349 241.643 410.077 239.517C410.826 237.392 411.201 234.972 411.201 232.26C411.201 229.547 410.826 227.128 410.077 225.002C409.349 222.876 408.265 221.196 406.828 219.961C405.391 218.726 403.599 218.109 401.453 218.109C399.287 218.109 397.465 218.726 395.987 219.961C394.53 221.196 393.426 222.876 392.677 225.002C391.948 227.128 391.584 229.547 391.584 232.26C391.584 234.972 391.948 237.392 392.677 239.517C393.426 241.643 394.53 243.323 395.987 244.558C397.465 245.773 399.287 246.38 401.453 246.38ZM464.707 208.847V219.02H445.333V255.49H432.761V208.847H464.707ZM491.999 256.401C487.282 256.401 483.203 255.399 479.761 253.395C476.34 251.37 473.698 248.557 471.836 244.953C469.973 241.329 469.042 237.129 469.042 232.351C469.042 227.533 469.973 223.322 471.836 219.718C473.698 216.095 476.34 213.281 479.761 211.276C483.203 209.252 487.282 208.24 491.999 208.24C496.716 208.24 500.785 209.252 504.207 211.276C507.648 213.281 510.3 216.095 512.163 219.718C514.025 223.322 514.956 227.533 514.956 232.351C514.956 237.129 514.025 241.329 512.163 244.953C510.3 248.557 507.648 251.37 504.207 253.395C500.785 255.399 496.716 256.401 491.999 256.401ZM492.06 246.38C494.206 246.38 495.997 245.773 497.435 244.558C498.872 243.323 499.955 241.643 500.684 239.517C501.433 237.392 501.808 234.972 501.808 232.26C501.808 229.547 501.433 227.128 500.684 225.002C499.955 222.876 498.872 221.196 497.435 219.961C495.997 218.726 494.206 218.109 492.06 218.109C489.894 218.109 488.072 218.726 486.594 219.961C485.136 221.196 484.033 222.876 483.284 225.002C482.555 227.128 482.191 229.547 482.191 232.26C482.191 234.972 482.555 237.392 483.284 239.517C484.033 241.643 485.136 243.323 486.594 244.558C488.072 245.773 489.894 246.38 492.06 246.38Z" fill="#FFF9F0"/>
<path d="M204.897 157.066V126.383H209.98C211.711 125.139 213.296 123.384 214.734 121.117C216.173 118.825 217.404 115.668 218.428 111.645C219.452 107.597 220.183 102.307 220.622 95.7727L222.743 64.102H272.298V126.383H280.49V156.993H265.276V139H220.11V157.066H204.897ZM228.266 126.383H257.084V77.1579H237.006L235.836 95.7727C235.519 100.722 234.995 105.111 234.263 108.938C233.556 112.766 232.691 116.119 231.667 118.995C230.667 121.848 229.534 124.311 228.266 126.383ZM315.205 140.097C309.524 140.097 304.611 138.89 300.467 136.477C296.346 134.038 293.165 130.65 290.921 126.31C288.678 121.946 287.557 116.887 287.557 111.133C287.557 105.33 288.678 100.259 290.921 95.919C293.165 91.5548 296.346 88.1659 300.467 85.7522C304.611 83.3141 309.524 82.0951 315.205 82.0951C320.886 82.0951 325.786 83.3141 329.906 85.7522C334.051 88.1659 337.245 91.5548 339.488 95.919C341.731 100.259 342.853 105.33 342.853 111.133C342.853 116.887 341.731 121.946 339.488 126.31C337.245 130.65 334.051 134.038 329.906 136.477C325.786 138.89 320.886 140.097 315.205 140.097ZM315.278 128.029C317.862 128.029 320.02 127.297 321.751 125.834C323.482 124.347 324.786 122.323 325.664 119.763C326.566 117.204 327.017 114.29 327.017 111.023C327.017 107.756 326.566 104.842 325.664 102.282C324.786 99.7224 323.482 97.6988 321.751 96.2116C320.02 94.7243 317.862 93.9807 315.278 93.9807C312.669 93.9807 310.475 94.7243 308.695 96.2116C306.94 97.6988 305.611 99.7224 304.709 102.282C303.831 104.842 303.392 107.756 303.392 111.023C303.392 114.29 303.831 117.204 304.709 119.763C305.611 122.323 306.94 124.347 308.695 125.834C310.475 127.297 312.669 128.029 315.278 128.029ZM349.692 139L349.618 126.639H351.484C352.8 126.639 353.934 126.322 354.885 125.688C355.86 125.03 356.664 123.969 357.298 122.506C357.932 121.043 358.432 119.105 358.798 116.692C359.164 114.253 359.407 111.255 359.529 107.695L360.444 82.8265H403.159V139H388.311V95.0779H374.45L373.573 112.23C373.353 116.935 372.78 120.983 371.854 124.371C370.952 127.76 369.696 130.54 368.087 132.71C366.478 134.855 364.54 136.44 362.272 137.464C360.005 138.488 357.372 139 354.373 139H349.692ZM453.709 82.8265V95.0779H430.377V139H415.236V82.8265H453.709ZM486.578 140.097C480.897 140.097 475.984 138.89 471.84 136.477C467.719 134.038 464.538 130.65 462.295 126.31C460.052 121.946 458.93 116.887 458.93 111.133C458.93 105.33 460.052 100.259 462.295 95.919C464.538 91.5548 467.719 88.1659 471.84 85.7522C475.984 83.3141 480.897 82.0951 486.578 82.0951C492.259 82.0951 497.159 83.3141 501.28 85.7522C505.424 88.1659 508.618 91.5548 510.861 95.919C513.104 100.259 514.226 105.33 514.226 111.133C514.226 116.887 513.104 121.946 510.861 126.31C508.618 130.65 505.424 134.038 501.28 136.477C497.159 138.89 492.259 140.097 486.578 140.097ZM486.651 128.029C489.235 128.029 491.393 127.297 493.124 125.834C494.855 124.347 496.16 122.323 497.037 119.763C497.939 117.204 498.39 114.29 498.39 111.023C498.39 107.756 497.939 104.842 497.037 102.282C496.16 99.7224 494.855 97.6988 493.124 96.2116C491.393 94.7243 489.235 93.9807 486.651 93.9807C484.042 93.9807 481.848 94.7243 480.068 96.2116C478.313 97.6988 476.984 99.7224 476.082 102.282C475.204 104.842 474.765 107.756 474.765 111.023C474.765 114.29 475.204 117.204 476.082 119.763C476.984 122.323 478.313 124.347 480.068 125.834C481.848 127.297 484.042 128.029 486.651 128.029Z" fill="#FFF9F0"/>
<path d="M204.089 355.538V336.469H207.248C208.324 335.697 209.308 334.606 210.202 333.197C211.096 331.772 211.861 329.81 212.498 327.31C213.134 324.795 213.589 321.507 213.861 317.447L215.18 297.765H245.975V336.469H251.066V355.492H241.611V344.31H213.543V355.538H204.089ZM218.611 336.469H236.521V305.878H224.043L223.316 317.447C223.119 320.522 222.793 323.25 222.339 325.628C221.899 328.007 221.361 330.091 220.725 331.878C220.104 333.651 219.399 335.182 218.611 336.469ZM272.64 344.992C269.11 344.992 266.057 344.242 263.481 342.742C260.92 341.227 258.943 339.121 257.549 336.424C256.155 333.712 255.458 330.568 255.458 326.992C255.458 323.386 256.155 320.235 257.549 317.538C258.943 314.825 260.92 312.719 263.481 311.219C266.057 309.704 269.11 308.947 272.64 308.947C276.17 308.947 279.216 309.704 281.776 311.219C284.352 312.719 286.337 314.825 287.731 317.538C289.125 320.235 289.822 323.386 289.822 326.992C289.822 330.568 289.125 333.712 287.731 336.424C286.337 339.121 284.352 341.227 281.776 342.742C279.216 344.242 276.17 344.992 272.64 344.992ZM272.685 337.492C274.291 337.492 275.632 337.038 276.708 336.128C277.784 335.204 278.594 333.947 279.14 332.356C279.7 330.765 279.981 328.954 279.981 326.924C279.981 324.894 279.7 323.083 279.14 321.492C278.594 319.901 277.784 318.644 276.708 317.719C275.632 316.795 274.291 316.333 272.685 316.333C271.064 316.333 269.7 316.795 268.594 317.719C267.503 318.644 266.678 319.901 266.117 321.492C265.572 323.083 265.299 324.894 265.299 326.924C265.299 328.954 265.572 330.765 266.117 332.356C266.678 333.947 267.503 335.204 268.594 336.128C269.7 337.038 271.064 337.492 272.685 337.492ZM311.89 344.992C308.314 344.992 305.238 344.235 302.663 342.719C300.102 341.189 298.132 339.068 296.753 336.356C295.39 333.644 294.708 330.522 294.708 326.992C294.708 323.416 295.397 320.28 296.776 317.583C298.17 314.871 300.147 312.757 302.708 311.242C305.269 309.712 308.314 308.947 311.844 308.947C314.89 308.947 317.557 309.5 319.844 310.606C322.132 311.712 323.943 313.265 325.276 315.265C326.61 317.265 327.344 319.613 327.481 322.31H318.344C318.087 320.568 317.405 319.166 316.299 318.106C315.208 317.03 313.776 316.492 312.003 316.492C310.503 316.492 309.193 316.901 308.072 317.719C306.966 318.522 306.102 319.697 305.481 321.242C304.86 322.788 304.549 324.659 304.549 326.856C304.549 329.083 304.852 330.977 305.458 332.538C306.079 334.098 306.95 335.288 308.072 336.106C309.193 336.924 310.503 337.333 312.003 337.333C313.11 337.333 314.102 337.106 314.981 336.651C315.875 336.197 316.61 335.538 317.185 334.674C317.776 333.795 318.163 332.742 318.344 331.515H327.481C327.329 334.182 326.602 336.53 325.299 338.56C324.011 340.575 322.231 342.151 319.958 343.288C317.685 344.424 314.996 344.992 311.89 344.992ZM331.299 317.015V309.401H362.935V317.015H351.685V344.31H342.458V317.015H331.299ZM383.327 344.992C379.797 344.992 376.744 344.242 374.168 342.742C371.608 341.227 369.63 339.121 368.236 336.424C366.842 333.712 366.146 330.568 366.146 326.992C366.146 323.386 366.842 320.235 368.236 317.538C369.63 314.825 371.608 312.719 374.168 311.219C376.744 309.704 379.797 308.947 383.327 308.947C386.858 308.947 389.903 309.704 392.464 311.219C395.039 312.719 397.024 314.825 398.418 317.538C399.812 320.235 400.509 323.386 400.509 326.992C400.509 330.568 399.812 333.712 398.418 336.424C397.024 339.121 395.039 341.227 392.464 342.742C389.903 344.242 386.858 344.992 383.327 344.992ZM383.373 337.492C384.979 337.492 386.32 337.038 387.396 336.128C388.471 335.204 389.282 333.947 389.827 332.356C390.388 330.765 390.668 328.954 390.668 326.924C390.668 324.894 390.388 323.083 389.827 321.492C389.282 319.901 388.471 318.644 387.396 317.719C386.32 316.795 384.979 316.333 383.373 316.333C381.752 316.333 380.388 316.795 379.282 317.719C378.191 318.644 377.365 319.901 376.805 321.492C376.259 323.083 375.986 324.894 375.986 326.924C375.986 328.954 376.259 330.765 376.805 332.356C377.365 333.947 378.191 335.204 379.282 336.128C380.388 337.038 381.752 337.492 383.373 337.492ZM416.055 331.538L428.623 309.401H438.168V344.31H428.941V322.106L416.418 344.31H406.805V309.401H416.055V331.538ZM426.964 297.219H433.714C433.699 299.977 432.676 302.197 430.646 303.878C428.63 305.56 425.903 306.401 422.464 306.401C419.009 306.401 416.274 305.56 414.259 303.878C412.244 302.197 411.236 299.977 411.236 297.219H417.941C417.926 298.265 418.259 299.204 418.941 300.038C419.638 300.871 420.812 301.288 422.464 301.288C424.07 301.288 425.221 300.878 425.918 300.06C426.615 299.242 426.964 298.295 426.964 297.219ZM470.225 322.992V330.606H451.998V322.992H470.225ZM455.18 309.401V344.31H445.93V309.401H455.18ZM476.293 309.401V344.31H467.111V309.401H476.293ZM499.577 344.992C496.047 344.992 492.994 344.242 490.418 342.742C487.858 341.227 485.88 339.121 484.486 336.424C483.092 333.712 482.396 330.568 482.396 326.992C482.396 323.386 483.092 320.235 484.486 317.538C485.88 314.825 487.858 312.719 490.418 311.219C492.994 309.704 496.047 308.947 499.577 308.947C503.108 308.947 506.153 309.704 508.714 311.219C511.289 312.719 513.274 314.825 514.668 317.538C516.062 320.235 516.759 323.386 516.759 326.992C516.759 330.568 516.062 333.712 514.668 336.424C513.274 339.121 511.289 341.227 508.714 342.742C506.153 344.242 503.108 344.992 499.577 344.992ZM499.623 337.492C501.229 337.492 502.57 337.038 503.646 336.128C504.721 335.204 505.532 333.947 506.077 332.356C506.638 330.765 506.918 328.954 506.918 326.924C506.918 324.894 506.638 323.083 506.077 321.492C505.532 319.901 504.721 318.644 503.646 317.719C502.57 316.795 501.229 316.333 499.623 316.333C498.002 316.333 496.638 316.795 495.532 317.719C494.441 318.644 493.615 319.901 493.055 321.492C492.509 323.083 492.236 324.894 492.236 326.924C492.236 328.954 492.509 330.765 493.055 332.356C493.615 333.947 494.441 335.204 495.532 336.128C496.638 337.038 498.002 337.492 499.623 337.492Z" fill="#FFF9F0"/>
</svg>
