<svg width="720" height="124" viewBox="0 0 720 124" fill="none" xmlns="http://www.w3.org/2000/svg">
<rect width="720" height="124" rx="15.5" fill="#FFF9F0"/>
<path d="M129.759 78.672C126.815 78.672 124.479 78.4 122.751 77.856C121.055 77.312 119.855 76.416 119.151 75.168C118.447 73.888 118.095 72.144 118.095 69.936H122.895C122.895 71.568 123.375 72.704 124.335 73.344C125.327 73.952 127.135 74.256 129.759 74.256C131.519 74.256 132.895 74.144 133.887 73.92C134.879 73.664 135.583 73.248 135.999 72.672C136.447 72.096 136.671 71.312 136.671 70.32C136.671 69.136 136.479 68.192 136.095 67.488C135.743 66.784 135.135 66.256 134.271 65.904C133.407 65.52 132.207 65.28 130.671 65.184H126.159V60.768H130.671C132.207 60.64 133.407 60.416 134.271 60.096C135.135 59.776 135.743 59.28 136.095 58.608C136.479 57.936 136.671 57.056 136.671 55.968C136.671 54.976 136.447 54.208 135.999 53.664C135.583 53.088 134.879 52.688 133.887 52.464C132.895 52.208 131.519 52.08 129.759 52.08C127.135 52.08 125.327 52.368 124.335 52.944C123.375 53.52 122.895 54.592 122.895 56.16H118.095C118.095 53.984 118.447 52.288 119.151 51.072C119.855 49.824 121.055 48.944 122.751 48.432C124.479 47.92 126.815 47.664 129.759 47.664C132.735 47.664 135.071 47.92 136.767 48.432C138.463 48.944 139.663 49.808 140.367 51.024C141.103 52.208 141.471 53.856 141.471 55.968C141.471 57.728 141.215 59.12 140.703 60.144C140.191 61.136 139.247 62.08 137.871 62.976C139.247 63.872 140.191 64.848 140.703 65.904C141.215 66.96 141.471 68.432 141.471 70.32C141.471 72.432 141.103 74.096 140.367 75.312C139.663 76.528 138.463 77.392 136.767 77.904C135.071 78.416 132.735 78.672 129.759 78.672ZM157.773 78.672C155.021 78.672 152.829 78.368 151.197 77.76C149.565 77.152 148.381 76.176 147.645 74.832C146.941 73.488 146.589 71.696 146.589 69.456C146.589 66.96 146.941 65.024 147.645 63.648C148.381 62.24 149.565 61.264 151.197 60.72C152.829 60.176 155.021 59.904 157.773 59.904H164.157V58.368C164.157 56.896 163.965 55.744 163.581 54.912C163.229 54.048 162.589 53.44 161.661 53.088C160.765 52.736 159.469 52.56 157.773 52.56C156.429 52.56 155.373 52.704 154.605 52.992C153.869 53.248 153.293 53.744 152.877 54.48C152.461 55.216 152.077 56.256 151.725 57.6L147.117 56.448C147.661 54.368 148.349 52.688 149.181 51.408C150.013 50.128 151.117 49.184 152.493 48.576C153.869 47.968 155.629 47.664 157.773 47.664C160.557 47.664 162.765 48.048 164.397 48.816C166.029 49.584 167.197 50.768 167.901 52.368C168.605 53.936 168.957 55.936 168.957 58.368V69.936C168.957 71.12 169.053 71.984 169.245 72.528C169.437 73.04 169.805 73.36 170.349 73.488C170.893 73.584 171.677 73.6 172.701 73.536V77.952C170.877 78.048 169.405 77.92 168.285 77.568C167.197 77.216 166.381 76.56 165.837 75.6C165.261 76.336 164.589 76.944 163.821 77.424C163.085 77.872 162.221 78.192 161.229 78.384C160.237 78.576 159.085 78.672 157.773 78.672ZM157.773 74.256C159.469 74.256 160.765 74.048 161.661 73.632C162.589 73.216 163.229 72.496 163.581 71.472C163.965 70.416 164.157 68.976 164.157 67.152V64.32H157.773C156.077 64.32 154.765 64.432 153.837 64.656C152.909 64.88 152.269 65.36 151.917 66.096C151.565 66.8 151.389 67.92 151.389 69.456C151.389 70.672 151.565 71.632 151.917 72.336C152.269 73.04 152.909 73.536 153.837 73.824C154.765 74.112 156.077 74.256 157.773 74.256ZM174.602 78L175.274 48.336H178.922L187.322 65.184L195.722 48.336H199.37L200.042 78H195.242L194.762 60.72L189.386 70.944H185.258L179.882 60.72L179.402 78H174.602ZM208.135 87.408C206.951 87.408 205.927 87.264 205.063 86.976C204.231 86.688 203.319 86.192 202.327 85.488L204.247 81.456C205.303 82.064 206.055 82.464 206.503 82.656C206.983 82.88 207.527 82.992 208.135 82.992C209.319 82.992 210.295 82.816 211.063 82.464C211.831 82.144 212.503 81.552 213.079 80.688C213.655 79.824 214.199 78.608 214.711 77.04L204.871 48.336H209.863L217.255 70.656L224.743 48.336H229.783L219.607 77.328C218.743 79.824 217.815 81.808 216.823 83.28C215.831 84.752 214.647 85.808 213.271 86.448C211.895 87.088 210.183 87.408 208.135 87.408ZM242.484 78V48.336H247.284V78H242.484ZM230.82 52.752V48.336H258.948V52.752H230.82ZM262.194 78V48.336H266.994V78H262.194L279.762 48.336H285.138V78H280.338V48.336H285.138L267.57 78H262.194ZM300.047 78V48.336H304.847V78H300.047ZM288.383 52.752V48.336H316.511V52.752H288.383ZM320.716 78V48.336H325.516V77.088L322.012 73.584H332.188C333.884 73.584 335.212 73.424 336.172 73.104C337.164 72.752 337.868 72.176 338.284 71.376C338.7 70.576 338.908 69.488 338.908 68.112C338.908 66.704 338.7 65.616 338.284 64.848C337.868 64.048 337.164 63.488 336.172 63.168C335.212 62.816 333.884 62.64 332.188 62.64H322.06V58.224H332.188C335.1 58.224 337.388 58.528 339.052 59.136C340.748 59.744 341.948 60.768 342.652 62.208C343.356 63.616 343.708 65.584 343.708 68.112C343.708 70.64 343.356 72.624 342.652 74.064C341.948 75.472 340.748 76.48 339.052 77.088C337.388 77.696 335.1 78 332.188 78H320.716ZM376.071 78L376.743 48.336H380.391L388.791 65.184L397.191 48.336H400.839L401.511 78H396.711L396.231 60.72L390.855 70.944H386.727L381.351 60.72L380.871 78H376.071ZM424.34 78V48.336H429.14V78H424.34ZM406.004 78V48.336H410.804V78H406.004ZM407.396 64.272V59.856H427.748V64.272H407.396ZM446.497 78.672C443.393 78.672 440.929 78.208 439.105 77.28C437.313 76.32 436.033 74.704 435.265 72.432C434.529 70.16 434.161 67.072 434.161 63.168C434.161 59.232 434.529 56.144 435.265 53.904C436.033 51.632 437.313 50.032 439.105 49.104C440.929 48.144 443.393 47.664 446.497 47.664C449.569 47.664 451.969 48.176 453.697 49.2C455.457 50.192 456.705 51.904 457.441 54.336C458.177 56.768 458.545 60.096 458.545 64.32H435.553V59.904H453.649C453.649 57.92 453.425 56.368 452.977 55.248C452.561 54.096 451.825 53.28 450.769 52.8C449.745 52.32 448.321 52.08 446.497 52.08C444.577 52.08 443.073 52.416 441.985 53.088C440.897 53.728 440.113 54.816 439.633 56.352C439.185 57.888 438.961 60.016 438.961 62.736C438.961 65.648 439.185 67.952 439.633 69.648C440.113 71.312 440.897 72.496 441.985 73.2C443.073 73.904 444.577 74.256 446.497 74.256C447.617 74.256 448.593 74.128 449.425 73.872C450.289 73.584 451.089 73.136 451.825 72.528C452.561 71.888 453.329 71.024 454.129 69.936L457.969 72.48C456.913 74.048 455.857 75.28 454.801 76.176C453.745 77.072 452.561 77.712 451.249 78.096C449.937 78.48 448.353 78.672 446.497 78.672ZM504.78 78.672C501.676 78.672 499.212 78.16 497.388 77.136C495.564 76.112 494.252 74.464 493.452 72.192C492.684 69.92 492.3 66.912 492.3 63.168C492.3 59.424 492.7 56.416 493.5 54.144C494.3 51.872 495.612 50.224 497.436 49.2C499.292 48.176 501.804 47.664 504.972 47.664C506.764 47.664 508.284 47.872 509.532 48.288C510.812 48.672 511.948 49.328 512.94 50.256C513.964 51.152 514.972 52.4 515.964 54L511.932 56.4C511.196 55.248 510.524 54.368 509.916 53.76C509.308 53.12 508.62 52.688 507.852 52.464C507.116 52.208 506.156 52.08 504.972 52.08C502.956 52.08 501.372 52.416 500.22 53.088C499.068 53.76 498.252 54.896 497.772 56.496C497.324 58.096 497.1 60.32 497.1 63.168C497.1 65.984 497.324 68.208 497.772 69.84C498.22 71.44 499.004 72.576 500.124 73.248C501.244 73.92 502.796 74.256 504.78 74.256C505.932 74.256 506.892 74.128 507.66 73.872C508.46 73.616 509.18 73.184 509.82 72.576C510.492 71.936 511.212 71.04 511.98 69.888L515.964 72.288C514.972 73.856 513.948 75.12 512.892 76.08C511.868 77.008 510.716 77.664 509.436 78.048C508.156 78.464 506.604 78.672 504.78 78.672ZM531.929 78.672C529.177 78.672 526.985 78.368 525.353 77.76C523.721 77.152 522.537 76.176 521.801 74.832C521.097 73.488 520.745 71.696 520.745 69.456C520.745 66.96 521.097 65.024 521.801 63.648C522.537 62.24 523.721 61.264 525.353 60.72C526.985 60.176 529.177 59.904 531.929 59.904H538.313V58.368C538.313 56.896 538.121 55.744 537.737 54.912C537.385 54.048 536.745 53.44 535.817 53.088C534.921 52.736 533.625 52.56 531.929 52.56C530.585 52.56 529.529 52.704 528.761 52.992C528.025 53.248 527.449 53.744 527.033 54.48C526.617 55.216 526.233 56.256 525.881 57.6L521.273 56.448C521.817 54.368 522.505 52.688 523.337 51.408C524.169 50.128 525.273 49.184 526.649 48.576C528.025 47.968 529.785 47.664 531.929 47.664C534.713 47.664 536.921 48.048 538.553 48.816C540.185 49.584 541.353 50.768 542.057 52.368C542.761 53.936 543.113 55.936 543.113 58.368V69.936C543.113 71.12 543.209 71.984 543.401 72.528C543.593 73.04 543.961 73.36 544.505 73.488C545.049 73.584 545.833 73.6 546.857 73.536V77.952C545.033 78.048 543.561 77.92 542.441 77.568C541.353 77.216 540.537 76.56 539.993 75.6C539.417 76.336 538.745 76.944 537.977 77.424C537.241 77.872 536.377 78.192 535.385 78.384C534.393 78.576 533.241 78.672 531.929 78.672ZM531.929 74.256C533.625 74.256 534.921 74.048 535.817 73.632C536.745 73.216 537.385 72.496 537.737 71.472C538.121 70.416 538.313 68.976 538.313 67.152V64.32H531.929C530.233 64.32 528.921 64.432 527.993 64.656C527.065 64.88 526.425 65.36 526.073 66.096C525.721 66.8 525.545 67.92 525.545 69.456C525.545 70.672 525.721 71.632 526.073 72.336C526.425 73.04 527.065 73.536 527.993 73.824C528.921 74.112 530.233 74.256 531.929 74.256ZM550.006 78V48.336H554.806V78H550.006L567.574 48.336H572.95V78H568.15V48.336H572.95L555.382 78H550.006ZM561.43 46.224C558.646 46.224 556.726 45.648 555.67 44.496C554.614 43.312 554.166 41.312 554.326 38.496H559.606C559.062 39.936 558.87 40.848 559.03 41.232C559.222 41.616 560.022 41.808 561.43 41.808C562.422 41.808 563.11 41.728 563.494 41.568C563.878 41.408 564.038 41.088 563.974 40.608C563.942 40.128 563.75 39.424 563.398 38.496H568.63C568.79 41.312 568.342 43.312 567.286 44.496C566.23 45.648 564.278 46.224 561.43 46.224ZM587.859 78V48.336H592.659V78H587.859ZM576.195 52.752V48.336H604.323V52.752H576.195Z" fill="#1A1A29"/>
</svg>
