<svg width="290" height="290" viewBox="0 0 290 290" fill="none" xmlns="http://www.w3.org/2000/svg">
<path d="M254.639 6.06708C262.728 -2.02236 275.841 -2.02236 283.93 6.06708C292.02 14.1565 292.02 27.269 283.93 35.3584L174.29 144.999L283.93 254.639L285.356 256.207C291.993 264.343 291.514 276.346 283.93 283.93C276.346 291.514 264.343 291.993 256.207 285.356L254.639 283.93L144.999 174.29L35.3584 283.93C27.269 292.02 14.1565 292.02 6.06708 283.93C-2.02236 275.841 -2.02236 262.728 6.06708 254.639L115.707 144.999L6.06708 35.3584C-2.02236 27.269 -2.02236 14.1565 6.06708 6.06708C14.1565 -2.02236 27.269 -2.02236 35.3584 6.06708L144.999 115.707L254.639 6.06708Z" fill="#ECF674"/>
</svg>
