<svg width="600" height="70" viewBox="0 0 600 70" fill="none" xmlns="http://www.w3.org/2000/svg">
<rect width="600" height="70" rx="15.5" fill="#FD4E4E" fill-opacity="0.8"/>
<path d="M27.4489 41V27.9091H38.8949V41H35.4261V30.7642H30.875V41H27.4489ZM45.2614 36.2102L49.9744 27.9091H53.554V41H50.0938V32.6733L45.3977 41H41.7926V27.9091H45.2614V36.2102ZM56.4645 27.9091H59.9332V38.1193H63.6236V27.9091H67.0923V38.1193H70.7827V27.9091H74.2514V41H56.4645V27.9091ZM83.032 41.2557C81.6854 41.2557 80.5263 40.983 79.5547 40.4375C78.5888 39.8864 77.8445 39.108 77.3217 38.1023C76.799 37.0909 76.5376 35.8949 76.5376 34.5142C76.5376 33.1676 76.799 31.9858 77.3217 30.9688C77.8445 29.9517 78.5803 29.1591 79.5291 28.5909C80.4837 28.0227 81.603 27.7386 82.8871 27.7386C83.7507 27.7386 84.5547 27.8778 85.299 28.1562C86.049 28.429 86.7024 28.8409 87.2592 29.392C87.8217 29.9432 88.2592 30.6364 88.5717 31.4716C88.8842 32.3011 89.0405 33.2727 89.0405 34.3864V35.3835H77.9865V33.1335H85.6229C85.6229 32.6108 85.5092 32.1477 85.282 31.7443C85.0547 31.3409 84.7393 31.0256 84.3359 30.7983C83.9382 30.5653 83.4751 30.4489 82.9467 30.4489C82.3956 30.4489 81.907 30.5767 81.4808 30.8324C81.0604 31.0824 80.7308 31.4205 80.4922 31.8466C80.2536 32.267 80.1314 32.7358 80.1257 33.2528V35.392C80.1257 36.0398 80.245 36.5994 80.4837 37.071C80.728 37.5426 81.0717 37.9062 81.5149 38.1619C81.9581 38.4176 82.4837 38.5455 83.0916 38.5455C83.495 38.5455 83.8643 38.4886 84.1996 38.375C84.5348 38.2614 84.8217 38.0909 85.0604 37.8636C85.299 37.6364 85.4808 37.358 85.6058 37.0284L88.9638 37.25C88.7933 38.0568 88.4439 38.7614 87.9155 39.3636C87.3928 39.9602 86.7166 40.4261 85.8871 40.7614C85.0632 41.0909 84.1115 41.2557 83.032 41.2557ZM99.1484 36.9858L102.694 27.9091H105.455L100.35 41H97.9382L92.9524 27.9091H95.7053L99.1484 36.9858ZM94.8786 27.9091V41H91.4098V27.9091H94.8786ZM103.597 41V27.9091H107.023V41H103.597ZM113.778 38.6136L113.684 39.5511C113.61 40.3011 113.468 41.0483 113.258 41.7926C113.053 42.5426 112.837 43.2216 112.61 43.8295C112.388 44.4375 112.21 44.9148 112.073 45.2614H109.721C109.806 44.9261 109.923 44.4574 110.07 43.8551C110.218 43.2585 110.357 42.5881 110.488 41.8438C110.619 41.0994 110.701 40.3409 110.735 39.5682L110.778 38.6136H113.778ZM121.832 41V27.9091H133.278V41H129.809V30.7642H125.258V41H121.832ZM142.141 41.2557C140.795 41.2557 139.636 40.983 138.664 40.4375C137.698 39.8864 136.954 39.108 136.431 38.1023C135.908 37.0909 135.647 35.8949 135.647 34.5142C135.647 33.1676 135.908 31.9858 136.431 30.9688C136.954 29.9517 137.69 29.1591 138.638 28.5909C139.593 28.0227 140.712 27.7386 141.996 27.7386C142.86 27.7386 143.664 27.8778 144.408 28.1562C145.158 28.429 145.812 28.8409 146.369 29.392C146.931 29.9432 147.369 30.6364 147.681 31.4716C147.994 32.3011 148.15 33.2727 148.15 34.3864V35.3835H137.096V33.1335H144.732C144.732 32.6108 144.619 32.1477 144.391 31.7443C144.164 31.3409 143.849 31.0256 143.445 30.7983C143.048 30.5653 142.585 30.4489 142.056 30.4489C141.505 30.4489 141.016 30.5767 140.59 30.8324C140.17 31.0824 139.84 31.4205 139.602 31.8466C139.363 32.267 139.241 32.7358 139.235 33.2528V35.392C139.235 36.0398 139.354 36.5994 139.593 37.071C139.837 37.5426 140.181 37.9062 140.624 38.1619C141.067 38.4176 141.593 38.5455 142.201 38.5455C142.604 38.5455 142.974 38.4886 143.309 38.375C143.644 38.2614 143.931 38.0909 144.17 37.8636C144.408 37.6364 144.59 37.358 144.715 37.0284L148.073 37.25C147.903 38.0568 147.553 38.7614 147.025 39.3636C146.502 39.9602 145.826 40.4261 144.996 40.7614C144.173 41.0909 143.221 41.2557 142.141 41.2557ZM150.519 45.9091V27.9091H154.099V30.108H154.261C154.42 29.7557 154.65 29.3977 154.951 29.0341C155.258 28.6648 155.656 28.358 156.144 28.1136C156.638 27.8636 157.252 27.7386 157.985 27.7386C158.94 27.7386 159.82 27.9886 160.627 28.4886C161.434 28.983 162.079 29.7301 162.562 30.7301C163.045 31.7244 163.286 32.9716 163.286 34.4716C163.286 35.9318 163.05 37.1648 162.579 38.1705C162.113 39.1705 161.477 39.929 160.67 40.446C159.869 40.9574 158.971 41.2131 157.977 41.2131C157.272 41.2131 156.673 41.0966 156.178 40.8636C155.69 40.6307 155.289 40.3381 154.977 39.9858C154.664 39.6278 154.425 39.267 154.261 38.9034H154.15V45.9091H150.519ZM154.073 34.4545C154.073 35.233 154.181 35.9119 154.397 36.4915C154.613 37.071 154.925 37.5227 155.335 37.8466C155.744 38.1648 156.241 38.3239 156.826 38.3239C157.417 38.3239 157.917 38.1619 158.326 37.8381C158.735 37.5085 159.045 37.054 159.255 36.4744C159.471 35.8892 159.579 35.2159 159.579 34.4545C159.579 33.6989 159.474 33.0341 159.263 32.4602C159.053 31.8864 158.744 31.4375 158.335 31.1136C157.925 30.7898 157.423 30.6278 156.826 30.6278C156.235 30.6278 155.735 30.7841 155.326 31.0966C154.923 31.4091 154.613 31.8523 154.397 32.4261C154.181 33 154.073 33.6761 154.073 34.4545ZM171.673 41.2557C170.326 41.2557 169.167 40.983 168.195 40.4375C167.229 39.8864 166.485 39.108 165.962 38.1023C165.44 37.0909 165.178 35.8949 165.178 34.5142C165.178 33.1676 165.44 31.9858 165.962 30.9688C166.485 29.9517 167.221 29.1591 168.17 28.5909C169.124 28.0227 170.244 27.7386 171.528 27.7386C172.391 27.7386 173.195 27.8778 173.94 28.1562C174.69 28.429 175.343 28.8409 175.9 29.392C176.462 29.9432 176.9 30.6364 177.212 31.4716C177.525 32.3011 177.681 33.2727 177.681 34.3864V35.3835H166.627V33.1335H174.263C174.263 32.6108 174.15 32.1477 173.923 31.7443C173.695 31.3409 173.38 31.0256 172.977 30.7983C172.579 30.5653 172.116 30.4489 171.587 30.4489C171.036 30.4489 170.548 30.5767 170.121 30.8324C169.701 31.0824 169.371 31.4205 169.133 31.8466C168.894 32.267 168.772 32.7358 168.766 33.2528V35.392C168.766 36.0398 168.886 36.5994 169.124 37.071C169.369 37.5426 169.712 37.9062 170.156 38.1619C170.599 38.4176 171.124 38.5455 171.732 38.5455C172.136 38.5455 172.505 38.4886 172.84 38.375C173.175 38.2614 173.462 38.0909 173.701 37.8636C173.94 37.6364 174.121 37.358 174.246 37.0284L177.604 37.25C177.434 38.0568 177.085 38.7614 176.556 39.3636C176.033 39.9602 175.357 40.4261 174.528 40.7614C173.704 41.0909 172.752 41.2557 171.673 41.2557ZM179.028 44.8352V38.1193H180.033C180.323 37.9375 180.556 37.6477 180.732 37.25C180.914 36.8523 181.062 36.3835 181.175 35.8438C181.295 35.304 181.386 34.7216 181.448 34.0966C181.516 33.4659 181.576 32.8295 181.627 32.1875L181.968 27.9091H192.008V38.1193H194.036V44.8352H190.576V41H182.573V44.8352H179.028ZM183.647 38.1193H188.582V30.7045H185.053L184.917 32.1875C184.82 33.5852 184.681 34.7727 184.499 35.75C184.317 36.7216 184.033 37.5114 183.647 38.1193ZM201.025 30.7642V27.9091H212.888V30.7642H208.67V41H205.21V30.7642H201.025ZM220.587 41.2557C219.24 41.2557 218.081 40.983 217.109 40.4375C216.143 39.8864 215.399 39.108 214.876 38.1023C214.354 37.0909 214.092 35.8949 214.092 34.5142C214.092 33.1676 214.354 31.9858 214.876 30.9688C215.399 29.9517 216.135 29.1591 217.084 28.5909C218.038 28.0227 219.158 27.7386 220.442 27.7386C221.305 27.7386 222.109 27.8778 222.854 28.1562C223.604 28.429 224.257 28.8409 224.814 29.392C225.376 29.9432 225.814 30.6364 226.126 31.4716C226.439 32.3011 226.595 33.2727 226.595 34.3864V35.3835H215.541V33.1335H223.178C223.178 32.6108 223.064 32.1477 222.837 31.7443C222.609 31.3409 222.294 31.0256 221.891 30.7983C221.493 30.5653 221.03 30.4489 220.501 30.4489C219.95 30.4489 219.462 30.5767 219.036 30.8324C218.615 31.0824 218.286 31.4205 218.047 31.8466C217.808 32.267 217.686 32.7358 217.68 33.2528V35.392C217.68 36.0398 217.8 36.5994 218.038 37.071C218.283 37.5426 218.626 37.9062 219.07 38.1619C219.513 38.4176 220.038 38.5455 220.646 38.5455C221.05 38.5455 221.419 38.4886 221.754 38.375C222.089 38.2614 222.376 38.0909 222.615 37.8636C222.854 37.6364 223.036 37.358 223.161 37.0284L226.518 37.25C226.348 38.0568 225.999 38.7614 225.47 39.3636C224.947 39.9602 224.271 40.4261 223.442 40.7614C222.618 41.0909 221.666 41.2557 220.587 41.2557ZM236.703 36.9858L240.249 27.9091H243.01L237.905 41H235.493L230.507 27.9091H233.26L236.703 36.9858ZM232.433 27.9091V41H228.964V27.9091H232.433ZM241.152 41V27.9091H244.578V41H241.152ZM252.941 41V27.9091H256.572V32.9886H257.594L261.157 27.9091H265.418L260.79 34.4034L265.469 41H261.157L257.927 36.3551H256.572V41H252.941ZM270.737 41.2472C269.901 41.2472 269.157 41.1023 268.504 40.8125C267.85 40.517 267.333 40.0824 266.952 39.5085C266.577 38.929 266.39 38.2074 266.39 37.3438C266.39 36.6165 266.523 36.0057 266.79 35.5114C267.058 35.017 267.421 34.6193 267.881 34.3182C268.342 34.017 268.864 33.7898 269.45 33.6364C270.04 33.483 270.66 33.375 271.308 33.3125C272.069 33.233 272.683 33.1591 273.148 33.0909C273.614 33.017 273.952 32.9091 274.163 32.767C274.373 32.625 274.478 32.4148 274.478 32.1364V32.0852C274.478 31.5455 274.308 31.1278 273.967 30.8324C273.631 30.5369 273.154 30.3892 272.535 30.3892C271.881 30.3892 271.362 30.5341 270.975 30.8239C270.589 31.108 270.333 31.4659 270.208 31.8977L266.85 31.625C267.021 30.8295 267.356 30.142 267.856 29.5625C268.356 28.9773 269.001 28.5284 269.79 28.2159C270.586 27.8977 271.506 27.7386 272.552 27.7386C273.279 27.7386 273.975 27.8239 274.64 27.9943C275.31 28.1648 275.904 28.429 276.421 28.7869C276.944 29.1449 277.356 29.6051 277.657 30.1676C277.958 30.7244 278.109 31.392 278.109 32.1705V41H274.665V39.1847H274.563C274.353 39.5938 274.072 39.9545 273.719 40.267C273.367 40.5739 272.944 40.8153 272.45 40.9915C271.955 41.1619 271.384 41.2472 270.737 41.2472ZM271.776 38.7415C272.31 38.7415 272.782 38.6364 273.191 38.4261C273.6 38.2102 273.921 37.9205 274.154 37.5568C274.387 37.1932 274.504 36.7812 274.504 36.321V34.9318C274.39 35.0057 274.234 35.0739 274.035 35.1364C273.842 35.1932 273.623 35.2472 273.379 35.2983C273.134 35.3437 272.89 35.3864 272.646 35.4261C272.401 35.4602 272.18 35.4915 271.981 35.5199C271.555 35.5824 271.183 35.6818 270.864 35.8182C270.546 35.9545 270.299 36.1392 270.123 36.3722C269.947 36.5994 269.859 36.8835 269.859 37.2244C269.859 37.7188 270.038 38.0966 270.396 38.358C270.759 38.6136 271.219 38.7415 271.776 38.7415ZM280.925 41V27.9091H284.556V32.9886H285.579L289.141 27.9091H293.403L288.775 34.4034L293.454 41H289.141L285.911 36.3551H284.556V41H280.925ZM300.543 45.9091V27.9091H304.122V30.108H304.284C304.443 29.7557 304.673 29.3977 304.974 29.0341C305.281 28.6648 305.679 28.358 306.168 28.1136C306.662 27.8636 307.276 27.7386 308.009 27.7386C308.963 27.7386 309.844 27.9886 310.651 28.4886C311.457 28.983 312.102 29.7301 312.585 30.7301C313.068 31.7244 313.31 32.9716 313.31 34.4716C313.31 35.9318 313.074 37.1648 312.602 38.1705C312.136 39.1705 311.5 39.929 310.693 40.446C309.892 40.9574 308.994 41.2131 308 41.2131C307.295 41.2131 306.696 41.0966 306.202 40.8636C305.713 40.6307 305.312 40.3381 305 39.9858C304.688 39.6278 304.449 39.267 304.284 38.9034H304.173V45.9091H300.543ZM304.097 34.4545C304.097 35.233 304.205 35.9119 304.42 36.4915C304.636 37.071 304.949 37.5227 305.358 37.8466C305.767 38.1648 306.264 38.3239 306.849 38.3239C307.44 38.3239 307.94 38.1619 308.349 37.8381C308.759 37.5085 309.068 37.054 309.278 36.4744C309.494 35.8892 309.602 35.2159 309.602 34.4545C309.602 33.6989 309.497 33.0341 309.287 32.4602C309.077 31.8864 308.767 31.4375 308.358 31.1136C307.949 30.7898 307.446 30.6278 306.849 30.6278C306.259 30.6278 305.759 30.7841 305.349 31.0966C304.946 31.4091 304.636 31.8523 304.42 32.4261C304.205 33 304.097 33.6761 304.097 34.4545ZM319.199 36.2102L323.912 27.9091H327.491V41H324.031V32.6733L319.335 41H315.73V27.9091H319.199V36.2102ZM336.317 41.2557C334.976 41.2557 333.822 40.9716 332.857 40.4034C331.896 39.8295 331.158 39.0341 330.641 38.017C330.129 37 329.874 35.8295 329.874 34.5057C329.874 33.1648 330.132 31.9886 330.649 30.9773C331.172 29.9602 331.913 29.1676 332.874 28.5994C333.834 28.0256 334.976 27.7386 336.3 27.7386C337.442 27.7386 338.442 27.946 339.3 28.3608C340.158 28.7756 340.837 29.358 341.337 30.108C341.837 30.858 342.112 31.7386 342.163 32.75H338.737C338.641 32.0966 338.385 31.571 337.97 31.1733C337.561 30.7699 337.024 30.5682 336.359 30.5682C335.797 30.5682 335.305 30.7216 334.885 31.0284C334.47 31.3295 334.146 31.7699 333.913 32.3494C333.68 32.929 333.564 33.6307 333.564 34.4545C333.564 35.2898 333.678 36 333.905 36.5852C334.138 37.1705 334.464 37.6165 334.885 37.9233C335.305 38.2301 335.797 38.3835 336.359 38.3835C336.774 38.3835 337.146 38.2983 337.476 38.1278C337.811 37.9574 338.087 37.7102 338.303 37.3864C338.524 37.0568 338.669 36.6619 338.737 36.2017H342.163C342.107 37.2017 341.834 38.0824 341.345 38.8438C340.862 39.5994 340.195 40.1903 339.342 40.6165C338.49 41.0426 337.482 41.2557 336.317 41.2557ZM350.403 41.2557C349.079 41.2557 347.934 40.9744 346.968 40.4119C346.008 39.8437 345.266 39.054 344.744 38.0426C344.221 37.0256 343.96 35.8466 343.96 34.5057C343.96 33.1534 344.221 31.9716 344.744 30.9602C345.266 29.9432 346.008 29.1534 346.968 28.5909C347.934 28.0227 349.079 27.7386 350.403 27.7386C351.727 27.7386 352.869 28.0227 353.829 28.5909C354.795 29.1534 355.539 29.9432 356.062 30.9602C356.585 31.9716 356.846 33.1534 356.846 34.5057C356.846 35.8466 356.585 37.0256 356.062 38.0426C355.539 39.054 354.795 39.8437 353.829 40.4119C352.869 40.9744 351.727 41.2557 350.403 41.2557ZM350.42 38.4432C351.022 38.4432 351.525 38.2727 351.928 37.9318C352.332 37.5852 352.636 37.1136 352.84 36.517C353.05 35.9205 353.156 35.2415 353.156 34.4801C353.156 33.7188 353.05 33.0398 352.84 32.4432C352.636 31.8466 352.332 31.375 351.928 31.0284C351.525 30.6818 351.022 30.5085 350.42 30.5085C349.812 30.5085 349.3 30.6818 348.886 31.0284C348.477 31.375 348.167 31.8466 347.957 32.4432C347.752 33.0398 347.65 33.7188 347.65 34.4801C347.65 35.2415 347.752 35.9205 347.957 36.517C348.167 37.1136 348.477 37.5852 348.886 37.9318C349.3 38.2727 349.812 38.4432 350.42 38.4432ZM359.207 41V27.9091H364.789C366.403 27.9091 367.678 28.2159 368.616 28.8295C369.553 29.4432 370.022 30.3153 370.022 31.446C370.022 32.1562 369.758 32.7472 369.229 33.2188C368.701 33.6903 367.968 34.0085 367.031 34.1733C367.815 34.2301 368.482 34.4091 369.033 34.7102C369.59 35.0057 370.013 35.3892 370.303 35.8608C370.599 36.3324 370.746 36.8551 370.746 37.429C370.746 38.1733 370.548 38.8125 370.15 39.3466C369.758 39.8807 369.181 40.2898 368.42 40.5739C367.664 40.858 366.741 41 365.65 41H359.207ZM362.59 38.2812H365.65C366.156 38.2812 366.55 38.1619 366.835 37.9233C367.124 37.679 367.269 37.3466 367.269 36.9261C367.269 36.4602 367.124 36.0937 366.835 35.8267C366.55 35.5597 366.156 35.4261 365.65 35.4261H362.59V38.2812ZM362.59 33.2955H364.866C365.229 33.2955 365.539 33.2443 365.795 33.142C366.056 33.0341 366.255 32.8807 366.391 32.6818C366.533 32.483 366.604 32.2472 366.604 31.9744C366.604 31.571 366.442 31.2557 366.119 31.0284C365.795 30.8011 365.352 30.6875 364.789 30.6875H362.59V33.2955ZM376.768 41.2472C375.933 41.2472 375.188 41.1023 374.535 40.8125C373.881 40.517 373.364 40.0824 372.984 39.5085C372.609 38.929 372.421 38.2074 372.421 37.3438C372.421 36.6165 372.555 36.0057 372.822 35.5114C373.089 35.017 373.452 34.6193 373.913 34.3182C374.373 34.017 374.896 33.7898 375.481 33.6364C376.072 33.483 376.691 33.375 377.339 33.3125C378.1 33.233 378.714 33.1591 379.18 33.0909C379.646 33.017 379.984 32.9091 380.194 32.767C380.404 32.625 380.509 32.4148 380.509 32.1364V32.0852C380.509 31.5455 380.339 31.1278 379.998 30.8324C379.663 30.5369 379.185 30.3892 378.566 30.3892C377.913 30.3892 377.393 30.5341 377.006 30.8239C376.62 31.108 376.364 31.4659 376.239 31.8977L372.881 31.625C373.052 30.8295 373.387 30.142 373.887 29.5625C374.387 28.9773 375.032 28.5284 375.822 28.2159C376.617 27.8977 377.538 27.7386 378.583 27.7386C379.31 27.7386 380.006 27.8239 380.671 27.9943C381.342 28.1648 381.935 28.429 382.452 28.7869C382.975 29.1449 383.387 29.6051 383.688 30.1676C383.989 30.7244 384.14 31.392 384.14 32.1705V41H380.697V39.1847H380.594C380.384 39.5938 380.103 39.9545 379.751 40.267C379.398 40.5739 378.975 40.8153 378.481 40.9915C377.987 41.1619 377.415 41.2472 376.768 41.2472ZM377.808 38.7415C378.342 38.7415 378.813 38.6364 379.222 38.4261C379.631 38.2102 379.952 37.9205 380.185 37.5568C380.418 37.1932 380.535 36.7812 380.535 36.321V34.9318C380.421 35.0057 380.265 35.0739 380.066 35.1364C379.873 35.1932 379.654 35.2472 379.41 35.2983C379.165 35.3437 378.921 35.3864 378.677 35.4261C378.433 35.4602 378.211 35.4915 378.012 35.5199C377.586 35.5824 377.214 35.6818 376.896 35.8182C376.577 35.9545 376.33 36.1392 376.154 36.3722C375.978 36.5994 375.89 36.8835 375.89 37.2244C375.89 37.7188 376.069 38.0966 376.427 38.358C376.79 38.6136 377.251 38.7415 377.808 38.7415ZM385.642 30.7642V27.9091H397.506V30.7642H393.287V41H389.827V30.7642H385.642ZM401.982 31.9318H405.894C407.627 31.9318 408.979 32.3466 409.951 33.1761C410.923 34 411.408 35.1023 411.408 36.483C411.408 37.3807 411.19 38.1705 410.752 38.8523C410.315 39.5284 409.684 40.0568 408.86 40.4375C408.036 40.8125 407.048 41 405.894 41H399.707V27.9091H403.175V38.1449H405.894C406.502 38.1449 407.002 37.9915 407.394 37.6847C407.786 37.3778 407.985 36.9858 407.991 36.5085C407.985 36.0028 407.786 35.5909 407.394 35.2727C407.002 34.9489 406.502 34.7869 405.894 34.7869H401.982V31.9318Z" fill="#FFF9F0"/>
<path fill-rule="evenodd" clip-rule="evenodd" d="M544.455 15.5067L544.773 15.1815L544.805 15.1485C544.966 14.9832 545.101 14.8342 545.241 14.6797C545.297 14.6181 545.355 14.5536 545.415 14.4883C545.612 14.2738 545.841 14.0331 546.11 13.8174C546.711 13.3368 547.406 13.0645 548.372 13.003L548.408 13H548.443C549.577 12.9958 550.429 13.4158 551.111 13.961C551.555 14.3152 551.989 14.7858 552.351 15.1786L552.445 15.2802C552.537 15.3801 552.625 15.4737 552.705 15.5567L569.459 32.8457C569.514 32.9021 569.577 32.9642 569.644 33.0312C569.918 33.3037 570.275 33.6581 570.562 34.0391C571.812 35.701 571.606 38.0025 570.329 39.4903C570.091 39.7682 569.835 40.0227 569.603 40.25L569.631 40.277C569.818 40.4581 570.042 40.6747 570.24 40.8985C570.811 41.5429 571.28 42.3567 571.349 43.6075C571.417 44.8391 571.057 46.053 570.215 47.0225C569.59 47.742 568.92 48.4356 568.268 49.1022L567.99 49.3862C567.813 49.5665 567.638 49.7448 567.467 49.9209C567.353 50.0381 567.236 50.1642 567.106 50.3067L567.041 50.3776C566.931 50.4968 566.814 50.6251 566.693 50.751C566.404 51.0505 566.051 51.3864 565.635 51.6602C563.964 52.7594 561.859 52.6772 560.256 51.5537C559.915 51.3145 559.631 51.0323 559.402 50.7891C559.319 50.6999 559.237 50.609 559.161 50.5242L559.128 50.4884L559.078 50.4326C558.977 50.3198 558.887 50.2217 558.8 50.1309L549.59 40.6338C549.363 40.4005 549.148 40.1751 548.94 39.9561C548.787 39.7949 548.637 39.6372 548.487 39.4825C548.266 39.7129 548.036 39.9525 547.807 40.1983L548.98 41.4014L549.238 41.6592L549.289 41.7091C549.375 41.7936 549.471 41.8872 549.564 41.9815C549.773 42.1941 550.041 42.4786 550.234 42.7657L550.315 42.8975C550.687 43.5615 550.572 44.2909 550.321 44.7862C550.057 45.3081 549.49 45.8696 548.663 45.9121C548.149 45.9385 547.735 45.721 547.492 45.5645C547.231 45.3954 546.998 45.1842 546.816 45.0039C546.808 44.9963 546.801 44.9881 546.793 44.9805L546.653 45.1226C546.541 45.2357 546.432 45.3465 546.329 45.4522L537.725 54.2793C537.67 54.3356 537.611 54.3984 537.547 54.4661C537.129 54.9112 536.513 55.5649 535.716 55.9366C533.717 56.8676 531.695 56.317 530.408 54.9981C529.134 53.6921 528.588 51.6511 529.347 49.6182L529.36 49.584L529.375 49.5498C529.785 48.6322 530.354 48.0186 530.915 47.458L531.981 46.3809C532.569 45.7803 533.152 45.1755 533.74 44.5671C534.209 44.0808 534.681 43.592 535.158 43.1016L539.793 38.3028C539.862 38.2301 539.928 38.1643 539.99 38.1027L540.052 38.041C539.786 37.7325 539.43 37.2192 539.424 36.544C539.413 35.4131 540.379 34.4373 541.541 34.5049C542.154 34.5405 542.588 34.8773 542.815 35.0811C542.973 35.2237 543.206 35.4795 543.284 35.5651L543.306 35.5889L544.994 37.3106C545.609 36.6699 546.235 36.0255 546.844 35.4102C547.248 35.0021 547.759 34.7046 548.369 34.6748C548.957 34.6462 549.436 34.8777 549.768 35.1026C550.096 35.3253 550.375 35.606 550.582 35.8282C550.683 35.9361 550.761 36.0223 550.828 36.0976L550.856 36.1284C550.946 36.2299 551.022 36.314 551.118 36.4121L562.394 48.0537C562.743 48.4197 563.161 48.4355 563.378 48.3047C563.468 48.2502 563.589 48.1504 563.757 47.9766C563.838 47.8926 563.92 47.8023 564.012 47.7002C564.1 47.603 564.202 47.4894 564.304 47.3819L566.069 45.5342C566.156 45.444 566.264 45.336 566.37 45.23L566.428 45.1719C566.557 45.0428 566.689 44.909 566.816 44.7764C566.943 44.6429 567.055 44.5193 567.145 44.4112C567.189 44.3577 567.224 44.3128 567.25 44.2764C567.263 44.2585 567.272 44.2441 567.279 44.2334L567.287 44.2217C567.37 44.0728 567.367 43.9923 567.361 43.9522C567.353 43.8887 567.316 43.7743 567.19 43.5938C567.091 43.4539 566.96 43.3081 566.799 43.1436C566.576 43.3746 566.34 43.6112 566.099 43.8213C565.504 44.3388 564.687 44.8986 563.674 44.9864C561.653 45.1614 560.474 43.8533 559.677 42.9693C559.581 42.8621 559.49 42.7612 559.403 42.67L542.291 24.9493C542.217 24.8731 542.138 24.7945 542.055 24.7126C541.387 24.0494 540.496 23.1662 540.394 21.5928C540.278 19.8219 541.304 18.7707 542.009 18.0478C542.087 17.9677 542.162 17.891 542.231 17.8184C542.966 17.0362 543.713 16.2675 544.455 15.5067ZM548.27 17.3819C548.358 17.2847 548.42 17.2216 548.473 17.1758C548.51 17.1431 548.536 17.1266 548.553 17.1172C548.587 17.1429 548.632 17.1782 548.686 17.2276C548.806 17.3372 548.931 17.4719 549.065 17.6231C549.093 17.6551 549.125 17.6922 549.16 17.7316C549.258 17.8447 549.375 17.978 549.465 18.0713L565.941 35.045C566.052 35.1598 566.199 35.3003 566.341 35.4344L566.4 35.491C566.479 35.5649 566.554 35.6363 566.618 35.6983C566.848 35.92 567.045 36.1254 567.194 36.3203C567.317 36.4799 567.365 36.5956 567.388 36.6555C567.367 36.6811 567.335 36.7199 567.283 36.7725L567.223 36.8316C567.141 36.912 567 37.05 566.951 37.1006L563.881 40.2784C563.783 40.3784 563.687 40.485 563.611 40.5687L563.562 40.6231C563.471 40.7228 563.403 40.7926 563.347 40.8428L563.338 40.8496L563.318 40.8309C563.298 40.8125 563.273 40.7904 563.246 40.7617C563.208 40.721 563.167 40.6773 563.116 40.6221L563.079 40.5815C563.04 40.5384 562.997 40.4907 562.951 40.4424C562.244 39.6928 561.514 38.945 560.793 38.2066C560.38 37.7837 559.97 37.3638 559.569 36.9483L545.466 22.416C545.375 22.3211 545.277 22.2249 545.189 22.1397L545.163 22.1152C545.078 22.0325 544.999 21.9558 544.919 21.876C544.741 21.6979 544.609 21.5501 544.521 21.4209C544.508 21.402 544.498 21.3841 544.49 21.3683C544.486 21.3605 544.482 21.3533 544.479 21.3467C544.565 21.2434 544.648 21.1604 544.761 21.0477C544.846 20.9625 544.949 20.8604 545.082 20.7198L547.949 17.7364L547.959 17.7246C548.03 17.649 548.116 17.5534 548.185 17.4764C548.218 17.4391 548.248 17.4061 548.27 17.3819ZM534.049 50.1055L542.4 41.4903C542.565 41.3206 542.723 41.1561 542.879 40.9948L542.935 40.9366C543.283 41.2847 543.63 41.6452 543.98 42.0117L536.051 50.1504C535.883 50.3226 535.693 50.5304 535.508 50.7336L535.463 50.7832C535.256 51.0103 535.046 51.2399 534.834 51.458C534.398 51.9073 534.076 52.1751 533.889 52.2754C533.641 52.3622 533.387 52.2913 533.181 51.9981C532.959 51.6816 532.951 51.3058 533.155 51.0244C533.235 50.915 533.346 50.7955 533.506 50.6387C533.536 50.609 533.572 50.5748 533.611 50.5374L533.638 50.511C533.765 50.3889 533.921 50.2388 534.049 50.1055Z" fill="#1A1A29"/>
</svg>
