<svg width="600" height="70" viewBox="0 0 600 70" fill="none" xmlns="http://www.w3.org/2000/svg">
<rect width="600" height="70" rx="15.5" fill="#FD4E4E" fill-opacity="0.8"/>
<path d="M27.4261 44.8352V38.1193H28.4318C28.7216 37.9375 28.9545 37.6477 29.1307 37.25C29.3125 36.8523 29.4602 36.3835 29.5739 35.8438C29.6932 35.304 29.7841 34.7216 29.8466 34.0966C29.9148 33.4659 29.9744 32.8295 30.0256 32.1875L30.3665 27.9091H40.4062V38.1193H42.4347V44.8352H38.9744V41H30.9716V44.8352H27.4261ZM32.0455 38.1193H36.9801V30.7045H33.4517L33.3153 32.1875C33.2188 33.5852 33.0795 34.7727 32.8977 35.75C32.7159 36.7216 32.4318 37.5114 32.0455 38.1193ZM46.7919 45.9091C46.3317 45.9091 45.8999 45.8722 45.4964 45.7983C45.0987 45.7301 44.7692 45.642 44.5078 45.5341L45.326 42.8239C45.7521 42.9545 46.1357 43.0256 46.4766 43.0369C46.8232 43.0483 47.1214 42.9688 47.3714 42.7983C47.6271 42.6278 47.8345 42.3381 47.9936 41.929L48.2067 41.375L43.5107 27.9091H47.3288L50.0391 37.5227H50.1754L52.9112 27.9091H56.755L51.6669 42.4148C51.4226 43.1193 51.0902 43.733 50.6697 44.2557C50.255 44.7841 49.7294 45.1903 49.093 45.4744C48.4567 45.7642 47.6896 45.9091 46.7919 45.9091ZM66.3516 36.9858L69.897 27.9091H72.6584L67.5533 41H65.1413L60.1555 27.9091H62.9084L66.3516 36.9858ZM62.0817 27.9091V41H58.6129V27.9091H62.0817ZM70.8004 41V27.9091H74.2266V41H70.8004ZM80.7678 41.2472C79.9325 41.2472 79.1882 41.1023 78.5348 40.8125C77.8814 40.517 77.3643 40.0824 76.9837 39.5085C76.6087 38.929 76.4212 38.2074 76.4212 37.3438C76.4212 36.6165 76.5547 36.0057 76.8217 35.5114C77.0888 35.017 77.4524 34.6193 77.9126 34.3182C78.3729 34.017 78.8956 33.7898 79.4808 33.6364C80.0717 33.483 80.6911 33.375 81.3388 33.3125C82.1001 33.233 82.7138 33.1591 83.1797 33.0909C83.6456 33.017 83.9837 32.9091 84.1939 32.767C84.4041 32.625 84.5092 32.4148 84.5092 32.1364V32.0852C84.5092 31.5455 84.3388 31.1278 83.9979 30.8324C83.6626 30.5369 83.1854 30.3892 82.5661 30.3892C81.9126 30.3892 81.3928 30.5341 81.0064 30.8239C80.62 31.108 80.3643 31.4659 80.2393 31.8977L76.8814 31.625C77.0518 30.8295 77.3871 30.142 77.8871 29.5625C78.3871 28.9773 79.032 28.5284 79.8217 28.2159C80.6172 27.8977 81.5376 27.7386 82.5831 27.7386C83.3104 27.7386 84.0064 27.8239 84.6712 27.9943C85.3416 28.1648 85.9354 28.429 86.4524 28.7869C86.9751 29.1449 87.3871 29.6051 87.6882 30.1676C87.9893 30.7244 88.1399 31.392 88.1399 32.1705V41H84.6967V39.1847H84.5945C84.3842 39.5938 84.103 39.9545 83.7507 40.267C83.3984 40.5739 82.9751 40.8153 82.4808 40.9915C81.9865 41.1619 81.4155 41.2472 80.7678 41.2472ZM81.8075 38.7415C82.3416 38.7415 82.8132 38.6364 83.2223 38.4261C83.6314 38.2102 83.9524 37.9205 84.1854 37.5568C84.4183 37.1932 84.5348 36.7812 84.5348 36.321V34.9318C84.4212 35.0057 84.2649 35.0739 84.0661 35.1364C83.8729 35.1932 83.6541 35.2472 83.4098 35.2983C83.1655 35.3437 82.9212 35.3864 82.6768 35.4261C82.4325 35.4602 82.2109 35.4915 82.0121 35.5199C81.5859 35.5824 81.2138 35.6818 80.8956 35.8182C80.5774 35.9545 80.3303 36.1392 80.1541 36.3722C79.978 36.5994 79.8899 36.8835 79.8899 37.2244C79.8899 37.7188 80.0689 38.0966 80.4268 38.358C80.7905 38.6136 81.2507 38.7415 81.8075 38.7415ZM96.9226 41.2557C95.576 41.2557 94.4169 40.983 93.4453 40.4375C92.4794 39.8864 91.7351 39.108 91.2124 38.1023C90.6896 37.0909 90.4283 35.8949 90.4283 34.5142C90.4283 33.1676 90.6896 31.9858 91.2124 30.9688C91.7351 29.9517 92.4709 29.1591 93.4197 28.5909C94.3743 28.0227 95.4936 27.7386 96.7777 27.7386C97.6413 27.7386 98.4453 27.8778 99.1896 28.1562C99.9396 28.429 100.593 28.8409 101.15 29.392C101.712 29.9432 102.15 30.6364 102.462 31.4716C102.775 32.3011 102.931 33.2727 102.931 34.3864V35.3835H91.8771V33.1335H99.5135C99.5135 32.6108 99.3999 32.1477 99.1726 31.7443C98.9453 31.3409 98.63 31.0256 98.2266 30.7983C97.8288 30.5653 97.3658 30.4489 96.8374 30.4489C96.2862 30.4489 95.7976 30.5767 95.3714 30.8324C94.951 31.0824 94.6214 31.4205 94.3828 31.8466C94.1442 32.267 94.022 32.7358 94.0163 33.2528V35.392C94.0163 36.0398 94.1357 36.5994 94.3743 37.071C94.6186 37.5426 94.9624 37.9062 95.4055 38.1619C95.8487 38.4176 96.3743 38.5455 96.9822 38.5455C97.3857 38.5455 97.755 38.4886 98.0902 38.375C98.4254 38.2614 98.7124 38.0909 98.951 37.8636C99.1896 37.6364 99.3714 37.358 99.4964 37.0284L102.854 37.25C102.684 38.0568 102.335 38.7614 101.806 39.3636C101.283 39.9602 100.607 40.4261 99.7777 40.7614C98.9538 41.0909 98.0021 41.2557 96.9226 41.2557ZM113.039 36.9858L116.585 27.9091H119.346L114.241 41H111.829L106.843 27.9091H109.596L113.039 36.9858ZM108.769 27.9091V41H105.3V27.9091H108.769ZM117.488 41V27.9091H120.914V41H117.488ZM127.668 38.6136L127.575 39.5511C127.501 40.3011 127.359 41.0483 127.148 41.7926C126.944 42.5426 126.728 43.2216 126.501 43.8295C126.279 44.4375 126.1 44.9148 125.964 45.2614H123.612C123.697 44.9261 123.813 44.4574 123.961 43.8551C124.109 43.2585 124.248 42.5881 124.379 41.8438C124.509 41.0994 124.592 40.3409 124.626 39.5682L124.668 38.6136H127.668ZM135.722 41V27.9091H147.168V41H143.7V30.7642H139.148V41H135.722ZM156.032 41.2557C154.685 41.2557 153.526 40.983 152.555 40.4375C151.589 39.8864 150.844 39.108 150.322 38.1023C149.799 37.0909 149.538 35.8949 149.538 34.5142C149.538 33.1676 149.799 31.9858 150.322 30.9688C150.844 29.9517 151.58 29.1591 152.529 28.5909C153.484 28.0227 154.603 27.7386 155.887 27.7386C156.751 27.7386 157.555 27.8778 158.299 28.1562C159.049 28.429 159.702 28.8409 160.259 29.392C160.822 29.9432 161.259 30.6364 161.572 31.4716C161.884 32.3011 162.04 33.2727 162.04 34.3864V35.3835H150.987V33.1335H158.623C158.623 32.6108 158.509 32.1477 158.282 31.7443C158.055 31.3409 157.739 31.0256 157.336 30.7983C156.938 30.5653 156.475 30.4489 155.947 30.4489C155.396 30.4489 154.907 30.5767 154.481 30.8324C154.06 31.0824 153.731 31.4205 153.492 31.8466C153.254 32.267 153.131 32.7358 153.126 33.2528V35.392C153.126 36.0398 153.245 36.5994 153.484 37.071C153.728 37.5426 154.072 37.9062 154.515 38.1619C154.958 38.4176 155.484 38.5455 156.092 38.5455C156.495 38.5455 156.864 38.4886 157.2 38.375C157.535 38.2614 157.822 38.0909 158.06 37.8636C158.299 37.6364 158.481 37.358 158.606 37.0284L161.964 37.25C161.793 38.0568 161.444 38.7614 160.915 39.3636C160.393 39.9602 159.717 40.4261 158.887 40.7614C158.063 41.0909 157.112 41.2557 156.032 41.2557ZM164.41 45.9091V27.9091H167.989V30.108H168.151C168.31 29.7557 168.54 29.3977 168.842 29.0341C169.148 28.6648 169.546 28.358 170.035 28.1136C170.529 27.8636 171.143 27.7386 171.876 27.7386C172.83 27.7386 173.711 27.9886 174.518 28.4886C175.325 28.983 175.969 29.7301 176.452 30.7301C176.935 31.7244 177.177 32.9716 177.177 34.4716C177.177 35.9318 176.941 37.1648 176.469 38.1705C176.004 39.1705 175.367 39.929 174.56 40.446C173.759 40.9574 172.862 41.2131 171.867 41.2131C171.163 41.2131 170.563 41.0966 170.069 40.8636C169.58 40.6307 169.18 40.3381 168.867 39.9858C168.555 39.6278 168.316 39.267 168.151 38.9034H168.04V45.9091H164.41ZM167.964 34.4545C167.964 35.233 168.072 35.9119 168.288 36.4915C168.504 37.071 168.816 37.5227 169.225 37.8466C169.634 38.1648 170.131 38.3239 170.717 38.3239C171.308 38.3239 171.808 38.1619 172.217 37.8381C172.626 37.5085 172.935 37.054 173.146 36.4744C173.362 35.8892 173.469 35.2159 173.469 34.4545C173.469 33.6989 173.364 33.0341 173.154 32.4602C172.944 31.8864 172.634 31.4375 172.225 31.1136C171.816 30.7898 171.313 30.6278 170.717 30.6278C170.126 30.6278 169.626 30.7841 169.217 31.0966C168.813 31.4091 168.504 31.8523 168.288 32.4261C168.072 33 167.964 33.6761 167.964 34.4545ZM185.563 41.2557C184.217 41.2557 183.058 40.983 182.086 40.4375C181.12 39.8864 180.376 39.108 179.853 38.1023C179.33 37.0909 179.069 35.8949 179.069 34.5142C179.069 33.1676 179.33 31.9858 179.853 30.9688C180.376 29.9517 181.112 29.1591 182.06 28.5909C183.015 28.0227 184.134 27.7386 185.418 27.7386C186.282 27.7386 187.086 27.8778 187.83 28.1562C188.58 28.429 189.234 28.8409 189.79 29.392C190.353 29.9432 190.79 30.6364 191.103 31.4716C191.415 32.3011 191.572 33.2727 191.572 34.3864V35.3835H180.518V33.1335H188.154C188.154 32.6108 188.04 32.1477 187.813 31.7443C187.586 31.3409 187.271 31.0256 186.867 30.7983C186.469 30.5653 186.006 30.4489 185.478 30.4489C184.927 30.4489 184.438 30.5767 184.012 30.8324C183.592 31.0824 183.262 31.4205 183.023 31.8466C182.785 32.267 182.663 32.7358 182.657 33.2528V35.392C182.657 36.0398 182.776 36.5994 183.015 37.071C183.259 37.5426 183.603 37.9062 184.046 38.1619C184.489 38.4176 185.015 38.5455 185.623 38.5455C186.026 38.5455 186.396 38.4886 186.731 38.375C187.066 38.2614 187.353 38.0909 187.592 37.8636C187.83 37.6364 188.012 37.358 188.137 37.0284L191.495 37.25C191.325 38.0568 190.975 38.7614 190.447 39.3636C189.924 39.9602 189.248 40.4261 188.418 40.7614C187.594 41.0909 186.643 41.2557 185.563 41.2557ZM192.918 44.8352V38.1193H193.924C194.214 37.9375 194.447 37.6477 194.623 37.25C194.805 36.8523 194.952 36.3835 195.066 35.8438C195.185 35.304 195.276 34.7216 195.339 34.0966C195.407 33.4659 195.467 32.8295 195.518 32.1875L195.859 27.9091H205.898V38.1193H207.927V44.8352H204.467V41H196.464V44.8352H192.918ZM197.538 38.1193H202.472V30.7045H198.944L198.808 32.1875C198.711 33.5852 198.572 34.7727 198.39 35.75C198.208 36.7216 197.924 37.5114 197.538 38.1193ZM214.915 30.7642V27.9091H226.779V30.7642H222.56V41H219.1V30.7642H214.915ZM234.477 41.2557C233.131 41.2557 231.972 40.983 231 40.4375C230.034 39.8864 229.29 39.108 228.767 38.1023C228.244 37.0909 227.983 35.8949 227.983 34.5142C227.983 33.1676 228.244 31.9858 228.767 30.9688C229.29 29.9517 230.026 29.1591 230.974 28.5909C231.929 28.0227 233.048 27.7386 234.332 27.7386C235.196 27.7386 236 27.8778 236.744 28.1562C237.494 28.429 238.148 28.8409 238.705 29.392C239.267 29.9432 239.705 30.6364 240.017 31.4716C240.33 32.3011 240.486 33.2727 240.486 34.3864V35.3835H229.432V33.1335H237.068C237.068 32.6108 236.955 32.1477 236.727 31.7443C236.5 31.3409 236.185 31.0256 235.781 30.7983C235.384 30.5653 234.92 30.4489 234.392 30.4489C233.841 30.4489 233.352 30.5767 232.926 30.8324C232.506 31.0824 232.176 31.4205 231.938 31.8466C231.699 32.267 231.577 32.7358 231.571 33.2528V35.392C231.571 36.0398 231.69 36.5994 231.929 37.071C232.173 37.5426 232.517 37.9062 232.96 38.1619C233.403 38.4176 233.929 38.5455 234.537 38.5455C234.94 38.5455 235.31 38.4886 235.645 38.375C235.98 38.2614 236.267 38.0909 236.506 37.8636C236.744 37.6364 236.926 37.358 237.051 37.0284L240.409 37.25C240.239 38.0568 239.889 38.7614 239.361 39.3636C238.838 39.9602 238.162 40.4261 237.332 40.7614C236.509 41.0909 235.557 41.2557 234.477 41.2557ZM250.594 36.9858L254.139 27.9091H256.901L251.795 41H249.384L244.398 27.9091H247.151L250.594 36.9858ZM246.324 27.9091V41H242.855V27.9091H246.324ZM255.043 41V27.9091H258.469V41H255.043ZM266.832 41V27.9091H270.462V32.9886H271.485L275.048 27.9091H279.309L274.681 34.4034L279.36 41H275.048L271.817 36.3551H270.462V41H266.832ZM284.627 41.2472C283.792 41.2472 283.048 41.1023 282.394 40.8125C281.741 40.517 281.224 40.0824 280.843 39.5085C280.468 38.929 280.281 38.2074 280.281 37.3438C280.281 36.6165 280.414 36.0057 280.681 35.5114C280.948 35.017 281.312 34.6193 281.772 34.3182C282.232 34.017 282.755 33.7898 283.34 33.6364C283.931 33.483 284.55 33.375 285.198 33.3125C285.96 33.233 286.573 33.1591 287.039 33.0909C287.505 33.017 287.843 32.9091 288.053 32.767C288.263 32.625 288.369 32.4148 288.369 32.1364V32.0852C288.369 31.5455 288.198 31.1278 287.857 30.8324C287.522 30.5369 287.045 30.3892 286.425 30.3892C285.772 30.3892 285.252 30.5341 284.866 30.8239C284.479 31.108 284.224 31.4659 284.099 31.8977L280.741 31.625C280.911 30.8295 281.246 30.142 281.746 29.5625C282.246 28.9773 282.891 28.5284 283.681 28.2159C284.477 27.8977 285.397 27.7386 286.442 27.7386C287.17 27.7386 287.866 27.8239 288.531 27.9943C289.201 28.1648 289.795 28.429 290.312 28.7869C290.835 29.1449 291.246 29.6051 291.548 30.1676C291.849 30.7244 291.999 31.392 291.999 32.1705V41H288.556V39.1847H288.454C288.244 39.5938 287.962 39.9545 287.61 40.267C287.258 40.5739 286.835 40.8153 286.34 40.9915C285.846 41.1619 285.275 41.2472 284.627 41.2472ZM285.667 38.7415C286.201 38.7415 286.673 38.6364 287.082 38.4261C287.491 38.2102 287.812 37.9205 288.045 37.5568C288.278 37.1932 288.394 36.7812 288.394 36.321V34.9318C288.281 35.0057 288.124 35.0739 287.925 35.1364C287.732 35.1932 287.513 35.2472 287.269 35.2983C287.025 35.3437 286.781 35.3864 286.536 35.4261C286.292 35.4602 286.07 35.4915 285.871 35.5199C285.445 35.5824 285.073 35.6818 284.755 35.8182C284.437 35.9545 284.19 36.1392 284.013 36.3722C283.837 36.5994 283.749 36.8835 283.749 37.2244C283.749 37.7188 283.928 38.0966 284.286 38.358C284.65 38.6136 285.11 38.7415 285.667 38.7415ZM294.816 41V27.9091H298.447V32.9886H299.469L303.032 27.9091H307.293L302.665 34.4034L307.344 41H303.032L299.802 36.3551H298.447V41H294.816ZM314.433 41V27.9091H325.879V41H322.411V30.7642H317.859V41H314.433ZM332.246 36.2102L336.959 27.9091H340.538V41H337.078V32.6733L332.382 41H328.777V27.9091H332.246V36.2102ZM349.364 41.2557C348.023 41.2557 346.869 40.9716 345.903 40.4034C344.943 39.8295 344.205 39.0341 343.688 38.017C343.176 37 342.92 35.8295 342.92 34.5057C342.92 33.1648 343.179 31.9886 343.696 30.9773C344.219 29.9602 344.96 29.1676 345.92 28.5994C346.881 28.0256 348.023 27.7386 349.347 27.7386C350.489 27.7386 351.489 27.946 352.347 28.3608C353.205 28.7756 353.884 29.358 354.384 30.108C354.884 30.858 355.159 31.7386 355.21 32.75H351.784C351.688 32.0966 351.432 31.571 351.017 31.1733C350.608 30.7699 350.071 30.5682 349.406 30.5682C348.844 30.5682 348.352 30.7216 347.932 31.0284C347.517 31.3295 347.193 31.7699 346.96 32.3494C346.727 32.929 346.611 33.6307 346.611 34.4545C346.611 35.2898 346.724 36 346.952 36.5852C347.185 37.1705 347.511 37.6165 347.932 37.9233C348.352 38.2301 348.844 38.3835 349.406 38.3835C349.821 38.3835 350.193 38.2983 350.523 38.1278C350.858 37.9574 351.134 37.7102 351.349 37.3864C351.571 37.0568 351.716 36.6619 351.784 36.2017H355.21C355.153 37.2017 354.881 38.0824 354.392 38.8438C353.909 39.5994 353.241 40.1903 352.389 40.6165C351.537 41.0426 350.528 41.2557 349.364 41.2557ZM361.268 41.2472C360.433 41.2472 359.688 41.1023 359.035 40.8125C358.381 40.517 357.864 40.0824 357.484 39.5085C357.109 38.929 356.921 38.2074 356.921 37.3438C356.921 36.6165 357.055 36.0057 357.322 35.5114C357.589 35.017 357.952 34.6193 358.413 34.3182C358.873 34.017 359.396 33.7898 359.981 33.6364C360.572 33.483 361.191 33.375 361.839 33.3125C362.6 33.233 363.214 33.1591 363.68 33.0909C364.146 33.017 364.484 32.9091 364.694 32.767C364.904 32.625 365.009 32.4148 365.009 32.1364V32.0852C365.009 31.5455 364.839 31.1278 364.498 30.8324C364.163 30.5369 363.685 30.3892 363.066 30.3892C362.413 30.3892 361.893 30.5341 361.506 30.8239C361.12 31.108 360.864 31.4659 360.739 31.8977L357.381 31.625C357.552 30.8295 357.887 30.142 358.387 29.5625C358.887 28.9773 359.532 28.5284 360.322 28.2159C361.117 27.8977 362.038 27.7386 363.083 27.7386C363.81 27.7386 364.506 27.8239 365.171 27.9943C365.842 28.1648 366.435 28.429 366.952 28.7869C367.475 29.1449 367.887 29.6051 368.188 30.1676C368.489 30.7244 368.64 31.392 368.64 32.1705V41H365.197V39.1847H365.094C364.884 39.5938 364.603 39.9545 364.251 40.267C363.898 40.5739 363.475 40.8153 362.981 40.9915C362.487 41.1619 361.915 41.2472 361.268 41.2472ZM362.308 38.7415C362.842 38.7415 363.313 38.6364 363.722 38.4261C364.131 38.2102 364.452 37.9205 364.685 37.5568C364.918 37.1932 365.035 36.7812 365.035 36.321V34.9318C364.921 35.0057 364.765 35.0739 364.566 35.1364C364.373 35.1932 364.154 35.2472 363.91 35.2983C363.665 35.3437 363.421 35.3864 363.177 35.4261C362.933 35.4602 362.711 35.4915 362.512 35.5199C362.086 35.5824 361.714 35.6818 361.396 35.8182C361.077 35.9545 360.83 36.1392 360.654 36.3722C360.478 36.5994 360.39 36.8835 360.39 37.2244C360.39 37.7188 360.569 38.0966 360.927 38.358C361.29 38.6136 361.751 38.7415 362.308 38.7415ZM370.142 30.7642V27.9091H382.006V30.7642H377.787V41H374.327V30.7642H370.142ZM386.482 31.9318H390.394C392.127 31.9318 393.479 32.3466 394.451 33.1761C395.423 34 395.908 35.1023 395.908 36.483C395.908 37.3807 395.69 38.1705 395.252 38.8523C394.815 39.5284 394.184 40.0568 393.36 40.4375C392.536 40.8125 391.548 41 390.394 41H384.207V27.9091H387.675V38.1449H390.394C391.002 38.1449 391.502 37.9915 391.894 37.6847C392.286 37.3778 392.485 36.9858 392.491 36.5085C392.485 36.0028 392.286 35.5909 391.894 35.2727C391.502 34.9489 391.002 34.7869 390.394 34.7869H386.482V31.9318Z" fill="#FFF9F0"/>
<path fill-rule="evenodd" clip-rule="evenodd" d="M538.082 40.7378C538.08 40.7403 538.077 40.7427 538.074 40.745L538.082 40.7378ZM563.357 28.5744C563.352 28.57 563.348 28.5655 563.343 28.5609Z" fill="#1A1A29"/>
<path fill-rule="evenodd" clip-rule="evenodd" d="M566.896 16.4019C565.507 14.9774 563.827 13.763 561.3 14.0396L561.28 14.0425C560.13 14.188 559.299 14.4392 558.55 14.9136C557.943 15.298 557.426 15.815 556.885 16.3554C556.811 16.4295 556.736 16.504 556.661 16.5786L534.781 38.437C534.683 38.5367 534.589 38.6262 534.48 38.7294C534.407 38.799 534.327 38.8758 534.234 38.9653C534.084 39.1112 533.913 39.2822 533.753 39.4673L533.598 39.6558C533.461 39.8315 533.371 40.0489 533.334 40.1362C533.28 40.2666 533.223 40.4194 533.167 40.5767C533.055 40.8939 532.93 41.2854 532.81 41.6724C532.651 42.184 532.481 42.7567 532.368 43.1388C532.317 43.3116 532.277 43.4456 532.255 43.5171L529.559 52.2749C529.514 52.4192 529.454 52.5989 529.391 52.7918C529.29 53.0965 529.178 53.4342 529.096 53.7173C528.916 54.3377 528.972 55.067 529.408 55.6441C529.883 56.2717 530.651 56.512 531.414 56.3521C532.402 56.1452 533.489 55.7951 534.519 55.4468C534.767 55.3629 535.011 55.2792 535.251 55.197C536.036 54.9287 536.776 54.6754 537.459 54.4761L537.472 54.4722L537.484 54.4683L543.4 52.604C543.728 52.4978 543.989 52.4221 544.225 52.3536C544.283 52.3368 544.339 52.3205 544.395 52.3042C544.664 52.2252 544.946 52.14 545.224 52.0161C545.827 51.7469 546.291 51.3512 546.932 50.7114L568.172 29.4419C568.312 29.3018 568.467 29.15 568.629 28.9919C568.936 28.692 569.268 28.3684 569.563 28.0542C571.592 25.8926 572.123 22.3913 570.228 19.8306C569.749 19.1843 569.016 18.4874 568.435 17.9351L567.919 17.438L566.896 16.4019ZM561.697 17.9722L561.708 17.9712C562.628 17.8655 563.162 18.309 564.115 19.2534L564.552 19.689L566.767 21.9048C567.248 22.39 567.449 22.8536 567.443 23.5064C567.436 24.4948 567.013 25.0128 566.183 25.8218C565.815 25.4471 565.436 25.0719 565.065 24.7054C564.809 24.4524 564.558 24.2034 564.317 23.9614L559.613 19.2573L559.802 19.0698C560.21 18.6597 560.472 18.4246 560.735 18.2661C560.97 18.1251 561.247 18.0199 561.697 17.9722ZM538.067 40.7524C538.069 40.7499 538.072 40.7475 538.074 40.745L538.082 40.7378L556.388 22.4409C556.514 22.3148 556.655 22.1772 556.803 22.0337C557.743 22.9591 558.676 23.8966 559.611 24.8394L559.835 25.0645C560.973 26.211 562.118 27.3648 563.28 28.5024C563.301 28.5229 563.322 28.5422 563.343 28.5609C563.358 28.5746 563.374 28.5897 563.388 28.603L545.322 46.6528C545.19 46.7854 545.063 46.9153 544.941 47.0394C544.838 47.1449 544.737 47.2473 544.639 47.3462C544.542 47.2489 544.444 47.1487 544.343 47.0454C544.205 46.9048 544.062 46.7585 543.909 46.606L538.212 40.896C538.182 40.8651 538.151 40.8357 538.122 40.8071C538.103 40.7886 538.085 40.7705 538.067 40.7524ZM535.447 46.6239C535.308 47.0638 535.17 47.5012 535.034 47.9351L533.989 51.3804L540.955 49.2075C540.723 48.9638 540.509 48.7396 540.302 48.5357L536.146 44.394C535.916 45.142 535.68 45.8867 535.447 46.6239Z" fill="#1A1A29"/>
</svg>
