<svg width="600" height="70" viewBox="0 0 600 70" fill="none" xmlns="http://www.w3.org/2000/svg">
<rect width="600" height="70" rx="15.5" fill="#FD4E4E" fill-opacity="0.8"/>
<path d="M27.4489 45.9091V27.9091H31.0284V30.108H31.1903C31.3494 29.7557 31.5795 29.3977 31.8807 29.0341C32.1875 28.6648 32.5852 28.358 33.0739 28.1136C33.5682 27.8636 34.1818 27.7386 34.9148 27.7386C35.8693 27.7386 36.75 27.9886 37.5568 28.4886C38.3636 28.983 39.0085 29.7301 39.4915 30.7301C39.9744 31.7244 40.2159 32.9716 40.2159 34.4716C40.2159 35.9318 39.9801 37.1648 39.5085 38.1705C39.0426 39.1705 38.4063 39.929 37.5994 40.446C36.7983 40.9574 35.9006 41.2131 34.9062 41.2131C34.2017 41.2131 33.6023 41.0966 33.108 40.8636C32.6193 40.6307 32.2188 40.3381 31.9062 39.9858C31.5938 39.6278 31.3551 39.267 31.1903 38.9034H31.0795V45.9091H27.4489ZM31.0028 34.4545C31.0028 35.233 31.1108 35.9119 31.3267 36.4915C31.5426 37.071 31.8551 37.5227 32.2642 37.8466C32.6733 38.1648 33.1705 38.3239 33.7557 38.3239C34.3466 38.3239 34.8466 38.1619 35.2557 37.8381C35.6648 37.5085 35.9744 37.054 36.1847 36.4744C36.4006 35.8892 36.5085 35.2159 36.5085 34.4545C36.5085 33.6989 36.4034 33.0341 36.1932 32.4602C35.983 31.8864 35.6733 31.4375 35.2642 31.1136C34.8551 30.7898 34.3523 30.6278 33.7557 30.6278C33.1648 30.6278 32.6648 30.7841 32.2557 31.0966C31.8523 31.4091 31.5426 31.8523 31.3267 32.4261C31.1108 33 31.0028 33.6761 31.0028 34.4545ZM46.1051 36.2102L50.8182 27.9091H54.3977V41H50.9375V32.6733L46.2415 41H42.6364V27.9091H46.1051V36.2102ZM63.223 41.2557C61.8821 41.2557 60.7287 40.9716 59.7628 40.4034C58.8026 39.8295 58.0639 39.0341 57.5469 38.017C57.0355 37 56.7798 35.8295 56.7798 34.5057C56.7798 33.1648 57.0384 31.9886 57.5554 30.9773C58.0781 29.9602 58.8196 29.1676 59.7798 28.5994C60.7401 28.0256 61.8821 27.7386 63.206 27.7386C64.348 27.7386 65.348 27.946 66.206 28.3608C67.0639 28.7756 67.7429 29.358 68.2429 30.108C68.7429 30.858 69.0185 31.7386 69.0696 32.75H65.6435C65.5469 32.0966 65.2912 31.571 64.8764 31.1733C64.4673 30.7699 63.9304 30.5682 63.2656 30.5682C62.7031 30.5682 62.2116 30.7216 61.7912 31.0284C61.3764 31.3295 61.0526 31.7699 60.8196 32.3494C60.5866 32.929 60.4702 33.6307 60.4702 34.4545C60.4702 35.2898 60.5838 36 60.8111 36.5852C61.044 37.1705 61.3707 37.6165 61.7912 37.9233C62.2116 38.2301 62.7031 38.3835 63.2656 38.3835C63.6804 38.3835 64.0526 38.2983 64.3821 38.1278C64.7173 37.9574 64.9929 37.7102 65.2088 37.3864C65.4304 37.0568 65.5753 36.6619 65.6435 36.2017H69.0696C69.0128 37.2017 68.7401 38.0824 68.2514 38.8438C67.7685 39.5994 67.1009 40.1903 66.2486 40.6165C65.3963 41.0426 64.3878 41.2557 63.223 41.2557ZM73.6357 45.9091C73.1754 45.9091 72.7436 45.8722 72.3402 45.7983C71.9425 45.7301 71.6129 45.642 71.3516 45.5341L72.1697 42.8239C72.5959 42.9545 72.9794 43.0256 73.3203 43.0369C73.6669 43.0483 73.9652 42.9688 74.2152 42.7983C74.4709 42.6278 74.6783 42.3381 74.8374 41.929L75.0504 41.375L70.3544 27.9091H74.1726L76.8828 37.5227H77.0192L79.755 27.9091H83.5987L78.5107 42.4148C78.2663 43.1193 77.9339 43.733 77.5135 44.2557C77.0987 44.7841 76.5732 45.1903 75.9368 45.4744C75.3004 45.7642 74.5334 45.9091 73.6357 45.9091ZM91.0007 41.2557C89.6541 41.2557 88.495 40.983 87.5234 40.4375C86.5575 39.8864 85.8132 39.108 85.2905 38.1023C84.7678 37.0909 84.5064 35.8949 84.5064 34.5142C84.5064 33.1676 84.7678 31.9858 85.2905 30.9688C85.8132 29.9517 86.549 29.1591 87.4979 28.5909C88.4524 28.0227 89.5717 27.7386 90.8558 27.7386C91.7195 27.7386 92.5234 27.8778 93.2678 28.1562C94.0178 28.429 94.6712 28.8409 95.228 29.392C95.7905 29.9432 96.228 30.6364 96.5405 31.4716C96.853 32.3011 97.0092 33.2727 97.0092 34.3864V35.3835H85.9553V33.1335H93.5916C93.5916 32.6108 93.478 32.1477 93.2507 31.7443C93.0234 31.3409 92.7081 31.0256 92.3047 30.7983C91.907 30.5653 91.4439 30.4489 90.9155 30.4489C90.3643 30.4489 89.8757 30.5767 89.4496 30.8324C89.0291 31.0824 88.6996 31.4205 88.4609 31.8466C88.2223 32.267 88.1001 32.7358 88.0945 33.2528V35.392C88.0945 36.0398 88.2138 36.5994 88.4524 37.071C88.6967 37.5426 89.0405 37.9062 89.4837 38.1619C89.9268 38.4176 90.4524 38.5455 91.0604 38.5455C91.4638 38.5455 91.8331 38.4886 92.1683 38.375C92.5036 38.2614 92.7905 38.0909 93.0291 37.8636C93.2678 37.6364 93.4496 37.358 93.5746 37.0284L96.9325 37.25C96.7621 38.0568 96.4126 38.7614 95.8842 39.3636C95.3615 39.9602 94.6854 40.4261 93.8558 40.7614C93.032 41.0909 92.0803 41.2557 91.0007 41.2557ZM107.117 36.9858L110.663 27.9091H113.424L108.319 41H105.907L100.921 27.9091H103.674L107.117 36.9858ZM102.847 27.9091V41H99.3786V27.9091H102.847ZM111.566 41V27.9091H114.992V41H111.566ZM121.746 38.6136L121.653 39.5511C121.579 40.3011 121.437 41.0483 121.227 41.7926C121.022 42.5426 120.806 43.2216 120.579 43.8295C120.357 44.4375 120.178 44.9148 120.042 45.2614H117.69C117.775 44.9261 117.891 44.4574 118.039 43.8551C118.187 43.2585 118.326 42.5881 118.457 41.8438C118.587 41.0994 118.67 40.3409 118.704 39.5682L118.746 38.6136H121.746ZM129.8 41V27.9091H141.246V41H137.778V30.7642H133.227V41H129.8ZM150.11 41.2557C148.763 41.2557 147.604 40.983 146.633 40.4375C145.667 39.8864 144.923 39.108 144.4 38.1023C143.877 37.0909 143.616 35.8949 143.616 34.5142C143.616 33.1676 143.877 31.9858 144.4 30.9688C144.923 29.9517 145.658 29.1591 146.607 28.5909C147.562 28.0227 148.681 27.7386 149.965 27.7386C150.829 27.7386 151.633 27.8778 152.377 28.1562C153.127 28.429 153.781 28.8409 154.337 29.392C154.9 29.9432 155.337 30.6364 155.65 31.4716C155.962 32.3011 156.119 33.2727 156.119 34.3864V35.3835H145.065V33.1335H152.701C152.701 32.6108 152.587 32.1477 152.36 31.7443C152.133 31.3409 151.817 31.0256 151.414 30.7983C151.016 30.5653 150.553 30.4489 150.025 30.4489C149.474 30.4489 148.985 30.5767 148.559 30.8324C148.138 31.0824 147.809 31.4205 147.57 31.8466C147.332 32.267 147.21 32.7358 147.204 33.2528V35.392C147.204 36.0398 147.323 36.5994 147.562 37.071C147.806 37.5426 148.15 37.9062 148.593 38.1619C149.036 38.4176 149.562 38.5455 150.17 38.5455C150.573 38.5455 150.942 38.4886 151.278 38.375C151.613 38.2614 151.9 38.0909 152.138 37.8636C152.377 37.6364 152.559 37.358 152.684 37.0284L156.042 37.25C155.871 38.0568 155.522 38.7614 154.994 39.3636C154.471 39.9602 153.795 40.4261 152.965 40.7614C152.141 41.0909 151.19 41.2557 150.11 41.2557ZM158.488 45.9091V27.9091H162.067V30.108H162.229C162.388 29.7557 162.619 29.3977 162.92 29.0341C163.227 28.6648 163.624 28.358 164.113 28.1136C164.607 27.8636 165.221 27.7386 165.954 27.7386C166.908 27.7386 167.789 27.9886 168.596 28.4886C169.403 28.983 170.048 29.7301 170.531 30.7301C171.013 31.7244 171.255 32.9716 171.255 34.4716C171.255 35.9318 171.019 37.1648 170.548 38.1705C170.082 39.1705 169.445 39.929 168.638 40.446C167.837 40.9574 166.94 41.2131 165.945 41.2131C165.241 41.2131 164.641 41.0966 164.147 40.8636C163.658 40.6307 163.258 40.3381 162.945 39.9858C162.633 39.6278 162.394 39.267 162.229 38.9034H162.119V45.9091H158.488ZM162.042 34.4545C162.042 35.233 162.15 35.9119 162.366 36.4915C162.582 37.071 162.894 37.5227 163.303 37.8466C163.712 38.1648 164.21 38.3239 164.795 38.3239C165.386 38.3239 165.886 38.1619 166.295 37.8381C166.704 37.5085 167.013 37.054 167.224 36.4744C167.44 35.8892 167.548 35.2159 167.548 34.4545C167.548 33.6989 167.442 33.0341 167.232 32.4602C167.022 31.8864 166.712 31.4375 166.303 31.1136C165.894 30.7898 165.391 30.6278 164.795 30.6278C164.204 30.6278 163.704 30.7841 163.295 31.0966C162.891 31.4091 162.582 31.8523 162.366 32.4261C162.15 33 162.042 33.6761 162.042 34.4545ZM179.641 41.2557C178.295 41.2557 177.136 40.983 176.164 40.4375C175.198 39.8864 174.454 39.108 173.931 38.1023C173.408 37.0909 173.147 35.8949 173.147 34.5142C173.147 33.1676 173.408 31.9858 173.931 30.9688C174.454 29.9517 175.19 29.1591 176.138 28.5909C177.093 28.0227 178.212 27.7386 179.496 27.7386C180.36 27.7386 181.164 27.8778 181.908 28.1562C182.658 28.429 183.312 28.8409 183.869 29.392C184.431 29.9432 184.869 30.6364 185.181 31.4716C185.494 32.3011 185.65 33.2727 185.65 34.3864V35.3835H174.596V33.1335H182.232C182.232 32.6108 182.119 32.1477 181.891 31.7443C181.664 31.3409 181.349 31.0256 180.945 30.7983C180.548 30.5653 180.085 30.4489 179.556 30.4489C179.005 30.4489 178.516 30.5767 178.09 30.8324C177.67 31.0824 177.34 31.4205 177.102 31.8466C176.863 32.267 176.741 32.7358 176.735 33.2528V35.392C176.735 36.0398 176.854 36.5994 177.093 37.071C177.337 37.5426 177.681 37.9062 178.124 38.1619C178.567 38.4176 179.093 38.5455 179.701 38.5455C180.104 38.5455 180.474 38.4886 180.809 38.375C181.144 38.2614 181.431 38.0909 181.67 37.8636C181.908 37.6364 182.09 37.358 182.215 37.0284L185.573 37.25C185.403 38.0568 185.053 38.7614 184.525 39.3636C184.002 39.9602 183.326 40.4261 182.496 40.7614C181.673 41.0909 180.721 41.2557 179.641 41.2557ZM186.996 44.8352V38.1193H188.002C188.292 37.9375 188.525 37.6477 188.701 37.25C188.883 36.8523 189.031 36.3835 189.144 35.8438C189.263 35.304 189.354 34.7216 189.417 34.0966C189.485 33.4659 189.545 32.8295 189.596 32.1875L189.937 27.9091H199.977V38.1193H202.005V44.8352H198.545V41H190.542V44.8352H186.996ZM191.616 38.1193H196.55V30.7045H193.022L192.886 32.1875C192.789 33.5852 192.65 34.7727 192.468 35.75C192.286 36.7216 192.002 37.5114 191.616 38.1193ZM208.994 30.7642V27.9091H220.857V30.7642H216.638V41H213.178V30.7642H208.994ZM228.555 41.2557C227.209 41.2557 226.05 40.983 225.078 40.4375C224.112 39.8864 223.368 39.108 222.845 38.1023C222.322 37.0909 222.061 35.8949 222.061 34.5142C222.061 33.1676 222.322 31.9858 222.845 30.9688C223.368 29.9517 224.104 29.1591 225.053 28.5909C226.007 28.0227 227.126 27.7386 228.411 27.7386C229.274 27.7386 230.078 27.8778 230.822 28.1562C231.572 28.429 232.226 28.8409 232.783 29.392C233.345 29.9432 233.783 30.6364 234.095 31.4716C234.408 32.3011 234.564 33.2727 234.564 34.3864V35.3835H223.51V33.1335H231.146C231.146 32.6108 231.033 32.1477 230.805 31.7443C230.578 31.3409 230.263 31.0256 229.859 30.7983C229.462 30.5653 228.999 30.4489 228.47 30.4489C227.919 30.4489 227.43 30.5767 227.004 30.8324C226.584 31.0824 226.254 31.4205 226.016 31.8466C225.777 32.267 225.655 32.7358 225.649 33.2528V35.392C225.649 36.0398 225.768 36.5994 226.007 37.071C226.251 37.5426 226.595 37.9062 227.038 38.1619C227.482 38.4176 228.007 38.5455 228.615 38.5455C229.018 38.5455 229.388 38.4886 229.723 38.375C230.058 38.2614 230.345 38.0909 230.584 37.8636C230.822 37.6364 231.004 37.358 231.129 37.0284L234.487 37.25C234.317 38.0568 233.967 38.7614 233.439 39.3636C232.916 39.9602 232.24 40.4261 231.411 40.7614C230.587 41.0909 229.635 41.2557 228.555 41.2557ZM244.672 36.9858L248.217 27.9091H250.979L245.874 41H243.462L238.476 27.9091H241.229L244.672 36.9858ZM240.402 27.9091V41H236.933V27.9091H240.402ZM249.121 41V27.9091H252.547V41H249.121ZM260.91 41V27.9091H264.54V32.9886H265.563L269.126 27.9091H273.387L268.759 34.4034L273.438 41H269.126L265.896 36.3551H264.54V41H260.91ZM278.705 41.2472C277.87 41.2472 277.126 41.1023 276.472 40.8125C275.819 40.517 275.302 40.0824 274.921 39.5085C274.546 38.929 274.359 38.2074 274.359 37.3438C274.359 36.6165 274.492 36.0057 274.759 35.5114C275.026 35.017 275.39 34.6193 275.85 34.3182C276.31 34.017 276.833 33.7898 277.418 33.6364C278.009 33.483 278.629 33.375 279.276 33.3125C280.038 33.233 280.651 33.1591 281.117 33.0909C281.583 33.017 281.921 32.9091 282.131 32.767C282.342 32.625 282.447 32.4148 282.447 32.1364V32.0852C282.447 31.5455 282.276 31.1278 281.935 30.8324C281.6 30.5369 281.123 30.3892 280.504 30.3892C279.85 30.3892 279.33 30.5341 278.944 30.8239C278.558 31.108 278.302 31.4659 278.177 31.8977L274.819 31.625C274.989 30.8295 275.325 30.142 275.825 29.5625C276.325 28.9773 276.969 28.5284 277.759 28.2159C278.555 27.8977 279.475 27.7386 280.521 27.7386C281.248 27.7386 281.944 27.8239 282.609 27.9943C283.279 28.1648 283.873 28.429 284.39 28.7869C284.913 29.1449 285.325 29.6051 285.626 30.1676C285.927 30.7244 286.077 31.392 286.077 32.1705V41H282.634V39.1847H282.532C282.322 39.5938 282.04 39.9545 281.688 40.267C281.336 40.5739 280.913 40.8153 280.418 40.9915C279.924 41.1619 279.353 41.2472 278.705 41.2472ZM279.745 38.7415C280.279 38.7415 280.751 38.6364 281.16 38.4261C281.569 38.2102 281.89 37.9205 282.123 37.5568C282.356 37.1932 282.472 36.7812 282.472 36.321V34.9318C282.359 35.0057 282.202 35.0739 282.004 35.1364C281.81 35.1932 281.592 35.2472 281.347 35.2983C281.103 35.3437 280.859 35.3864 280.614 35.4261C280.37 35.4602 280.148 35.4915 279.95 35.5199C279.523 35.5824 279.151 35.6818 278.833 35.8182C278.515 35.9545 278.268 36.1392 278.092 36.3722C277.915 36.5994 277.827 36.8835 277.827 37.2244C277.827 37.7188 278.006 38.0966 278.364 38.358C278.728 38.6136 279.188 38.7415 279.745 38.7415ZM288.894 41V27.9091H292.525V32.9886H293.548L297.11 27.9091H301.371L296.744 34.4034L301.423 41H297.11L293.88 36.3551H292.525V41H288.894ZM308.511 41V27.9091H314.094C315.707 27.9091 316.983 28.2159 317.92 28.8295C318.858 29.4432 319.327 30.3153 319.327 31.446C319.327 32.1562 319.063 32.7472 318.534 33.2188C318.006 33.6903 317.273 34.0085 316.335 34.1733C317.119 34.2301 317.787 34.4091 318.338 34.7102C318.895 35.0057 319.318 35.3892 319.608 35.8608C319.903 36.3324 320.051 36.8551 320.051 37.429C320.051 38.1733 319.852 38.8125 319.455 39.3466C319.063 39.8807 318.486 40.2898 317.724 40.5739C316.969 40.858 316.045 41 314.955 41H308.511ZM311.895 38.2812H314.955C315.46 38.2812 315.855 38.1619 316.139 37.9233C316.429 37.679 316.574 37.3466 316.574 36.9261C316.574 36.4602 316.429 36.0937 316.139 35.8267C315.855 35.5597 315.46 35.4261 314.955 35.4261H311.895V38.2812ZM311.895 33.2955H314.17C314.534 33.2955 314.844 33.2443 315.099 33.142C315.361 33.0341 315.56 32.8807 315.696 32.6818C315.838 32.483 315.909 32.2472 315.909 31.9744C315.909 31.571 315.747 31.2557 315.423 31.0284C315.099 30.8011 314.656 30.6875 314.094 30.6875H311.895V33.2955ZM328.305 41.2557C326.959 41.2557 325.8 40.983 324.828 40.4375C323.862 39.8864 323.118 39.108 322.595 38.1023C322.072 37.0909 321.811 35.8949 321.811 34.5142C321.811 33.1676 322.072 31.9858 322.595 30.9688C323.118 29.9517 323.854 29.1591 324.803 28.5909C325.757 28.0227 326.876 27.7386 328.161 27.7386C329.024 27.7386 329.828 27.8778 330.572 28.1562C331.322 28.429 331.976 28.8409 332.533 29.392C333.095 29.9432 333.533 30.6364 333.845 31.4716C334.158 32.3011 334.314 33.2727 334.314 34.3864V35.3835H323.26V33.1335H330.896C330.896 32.6108 330.783 32.1477 330.555 31.7443C330.328 31.3409 330.013 31.0256 329.609 30.7983C329.212 30.5653 328.749 30.4489 328.22 30.4489C327.669 30.4489 327.18 30.5767 326.754 30.8324C326.334 31.0824 326.004 31.4205 325.766 31.8466C325.527 32.267 325.405 32.7358 325.399 33.2528V35.392C325.399 36.0398 325.518 36.5994 325.757 37.071C326.001 37.5426 326.345 37.9062 326.788 38.1619C327.232 38.4176 327.757 38.5455 328.365 38.5455C328.768 38.5455 329.138 38.4886 329.473 38.375C329.808 38.2614 330.095 38.0909 330.334 37.8636C330.572 37.6364 330.754 37.358 330.879 37.0284L334.237 37.25C334.067 38.0568 333.717 38.7614 333.189 39.3636C332.666 39.9602 331.99 40.4261 331.161 40.7614C330.337 41.0909 329.385 41.2557 328.305 41.2557ZM336.683 45.9091V27.9091H340.263V30.108H340.425C340.584 29.7557 340.814 29.3977 341.115 29.0341C341.422 28.6648 341.82 28.358 342.308 28.1136C342.803 27.8636 343.416 27.7386 344.149 27.7386C345.104 27.7386 345.984 27.9886 346.791 28.4886C347.598 28.983 348.243 29.7301 348.726 30.7301C349.209 31.7244 349.45 32.9716 349.45 34.4716C349.45 35.9318 349.214 37.1648 348.743 38.1705C348.277 39.1705 347.641 39.929 346.834 40.446C346.033 40.9574 345.135 41.2131 344.141 41.2131C343.436 41.2131 342.837 41.0966 342.342 40.8636C341.854 40.6307 341.453 40.3381 341.141 39.9858C340.828 39.6278 340.589 39.267 340.425 38.9034H340.314V45.9091H336.683ZM340.237 34.4545C340.237 35.233 340.345 35.9119 340.561 36.4915C340.777 37.071 341.089 37.5227 341.499 37.8466C341.908 38.1648 342.405 38.3239 342.99 38.3239C343.581 38.3239 344.081 38.1619 344.49 37.8381C344.899 37.5085 345.209 37.054 345.419 36.4744C345.635 35.8892 345.743 35.2159 345.743 34.4545C345.743 33.6989 345.638 33.0341 345.428 32.4602C345.217 31.8864 344.908 31.4375 344.499 31.1136C344.089 30.7898 343.587 30.6278 342.99 30.6278C342.399 30.6278 341.899 30.7841 341.49 31.0966C341.087 31.4091 340.777 31.8523 340.561 32.4261C340.345 33 340.237 33.6761 340.237 34.4545ZM357.786 41.2557C356.445 41.2557 355.291 40.9716 354.325 40.4034C353.365 39.8295 352.626 39.0341 352.109 38.017C351.598 37 351.342 35.8295 351.342 34.5057C351.342 33.1648 351.601 31.9886 352.118 30.9773C352.641 29.9602 353.382 29.1676 354.342 28.5994C355.303 28.0256 356.445 27.7386 357.768 27.7386C358.911 27.7386 359.911 27.946 360.768 28.3608C361.626 28.7756 362.305 29.358 362.805 30.108C363.305 30.858 363.581 31.7386 363.632 32.75H360.206C360.109 32.0966 359.854 31.571 359.439 31.1733C359.03 30.7699 358.493 30.5682 357.828 30.5682C357.266 30.5682 356.774 30.7216 356.354 31.0284C355.939 31.3295 355.615 31.7699 355.382 32.3494C355.149 32.929 355.033 33.6307 355.033 34.4545C355.033 35.2898 355.146 36 355.374 36.5852C355.607 37.1705 355.933 37.6165 356.354 37.9233C356.774 38.2301 357.266 38.3835 357.828 38.3835C358.243 38.3835 358.615 38.2983 358.945 38.1278C359.28 37.9574 359.555 37.7102 359.771 37.3864C359.993 37.0568 360.138 36.6619 360.206 36.2017H363.632C363.575 37.2017 363.303 38.0824 362.814 38.8438C362.331 39.5994 361.663 40.1903 360.811 40.6165C359.959 41.0426 358.95 41.2557 357.786 41.2557ZM365.064 30.7642V27.9091H376.928V30.7642H372.709V41H369.249V30.7642H365.064ZM382.393 41.2472C381.558 41.2472 380.813 41.1023 380.16 40.8125C379.506 40.517 378.989 40.0824 378.609 39.5085C378.234 38.929 378.046 38.2074 378.046 37.3438C378.046 36.6165 378.18 36.0057 378.447 35.5114C378.714 35.017 379.077 34.6193 379.538 34.3182C379.998 34.017 380.521 33.7898 381.106 33.6364C381.697 33.483 382.316 33.375 382.964 33.3125C383.725 33.233 384.339 33.1591 384.805 33.0909C385.271 33.017 385.609 32.9091 385.819 32.767C386.029 32.625 386.134 32.4148 386.134 32.1364V32.0852C386.134 31.5455 385.964 31.1278 385.623 30.8324C385.288 30.5369 384.81 30.3892 384.191 30.3892C383.538 30.3892 383.018 30.5341 382.631 30.8239C382.245 31.108 381.989 31.4659 381.864 31.8977L378.506 31.625C378.677 30.8295 379.012 30.142 379.512 29.5625C380.012 28.9773 380.657 28.5284 381.447 28.2159C382.242 27.8977 383.163 27.7386 384.208 27.7386C384.935 27.7386 385.631 27.8239 386.296 27.9943C386.967 28.1648 387.56 28.429 388.077 28.7869C388.6 29.1449 389.012 29.6051 389.313 30.1676C389.614 30.7244 389.765 31.392 389.765 32.1705V41H386.322V39.1847H386.219C386.009 39.5938 385.728 39.9545 385.376 40.267C385.023 40.5739 384.6 40.8153 384.106 40.9915C383.612 41.1619 383.04 41.2472 382.393 41.2472ZM383.433 38.7415C383.967 38.7415 384.438 38.6364 384.847 38.4261C385.256 38.2102 385.577 37.9205 385.81 37.5568C386.043 37.1932 386.16 36.7812 386.16 36.321V34.9318C386.046 35.0057 385.89 35.0739 385.691 35.1364C385.498 35.1932 385.279 35.2472 385.035 35.2983C384.79 35.3437 384.546 35.3864 384.302 35.4261C384.058 35.4602 383.836 35.4915 383.637 35.5199C383.211 35.5824 382.839 35.6818 382.521 35.8182C382.202 35.9545 381.955 36.1392 381.779 36.3722C381.603 36.5994 381.515 36.8835 381.515 37.2244C381.515 37.7188 381.694 38.0966 382.052 38.358C382.415 38.6136 382.876 38.7415 383.433 38.7415ZM391.267 30.7642V27.9091H403.131V30.7642H398.912V41H395.452V30.7642H391.267ZM407.607 31.9318H411.519C413.252 31.9318 414.604 32.3466 415.576 33.1761C416.548 34 417.033 35.1023 417.033 36.483C417.033 37.3807 416.815 38.1705 416.377 38.8523C415.94 39.5284 415.309 40.0568 414.485 40.4375C413.661 40.8125 412.673 41 411.519 41H405.332V27.9091H408.8V38.1449H411.519C412.127 38.1449 412.627 37.9915 413.019 37.6847C413.411 37.3778 413.61 36.9858 413.616 36.5085C413.61 36.0028 413.411 35.5909 413.019 35.2727C412.627 34.9489 412.127 34.7869 411.519 34.7869H407.607V31.9318Z" fill="#FFF9F0"/>
<path fill-rule="evenodd" clip-rule="evenodd" d="M547.18 50.4752C547.124 50.4714 547.069 50.4651 547.014 50.4563C547.007 50.4552 547.001 50.4541 546.994 50.4529M547.18 50.4752C547.18 50.4752 547.18 50.4752 547.18 50.4752C547.182 50.4752 547.189 50.4753 547.191 50.4754C547.187 50.4752 547.184 50.4754 547.18 50.4752C547.124 50.4714 547.069 50.4651 547.014 50.4563C546.96 50.4475 546.906 50.4362 546.854 50.4225C546.697 50.3814 546.55 50.3184 546.417 50.2358C546.431 50.2442 546.444 50.2524 546.458 50.2604M546.994 50.4529C546.974 50.4494 546.953 50.4454 546.933 50.4412ZM546.933 50.4412C546.906 50.4356 546.88 50.4293 546.854 50.4225ZM570.177 34.3816C570.134 34.3092 570.088 34.2371 570.038 34.1687L570.177 34.3816ZM563.427 44.5828L563.438 44.571C563.375 44.6397 563.312 44.7096 563.25 44.7793C563.309 44.7135 563.368 44.6477 563.427 44.5828ZM560.764 43.1082C560.602 43.2699 560.447 43.4372 560.318 43.617C560.514 43.3434 560.771 43.0979 561.02 42.8589L561.057 42.8236L560.764 43.1082ZM561.251 42.6346L561.057 42.8236C561.123 42.7604 561.188 42.6975 561.251 42.6346ZM568.854 32.8924L569.237 33.2761L569.18 33.2197C569.07 33.1111 568.961 33.0026 568.854 32.8924ZM562.751 25.992C562.384 25.7179 561.889 25.4953 561.273 25.6258C560.54 25.7191 559.95 26.1848 559.648 26.7684C559.336 27.3697 559.307 28.1499 559.797 28.7937C560.027 29.0957 560.334 29.3859 560.587 29.6255C560.671 29.7049 560.749 29.7787 560.817 29.8455L566.416 35.4881C566.578 35.6525 566.742 35.8128 566.901 35.9676L566.922 35.9881L566.931 35.9971L566.954 36.0203C566.965 36.0308 566.975 36.0413 566.986 36.0516C566.196 36.8302 565.41 37.6257 564.627 38.4178C563.935 39.1181 563.246 39.8158 562.559 40.4969L560.828 42.2088C560.77 42.2667 560.704 42.3297 560.634 42.397C560.379 42.6413 560.064 42.9424 559.831 43.2664C558.83 44.659 559.93 46.4653 561.559 46.5262L561.607 46.5281L561.655 46.5223C562.295 46.4435 562.77 46.1118 563.14 45.7654C563.323 45.5938 563.493 45.4077 563.645 45.2381L563.691 45.1863C563.83 45.0312 563.956 44.8905 564.086 44.7605L569.293 39.5379C569.377 39.454 569.471 39.3635 569.572 39.2675C569.847 39.0045 570.166 38.6998 570.418 38.3748C571.399 37.1108 571.481 35.146 570.526 33.8182C570.245 33.4283 569.886 33.0731 569.573 32.7645C569.47 32.663 569.373 32.5664 569.285 32.4754C567.448 30.5782 565.493 28.6353 563.596 26.7957C563.525 26.7273 563.463 26.662 563.393 26.5886C563.344 26.5376 563.291 26.4825 563.229 26.4197C563.093 26.2817 562.933 26.1273 562.751 25.992ZM539.767 45.8024C539.801 45.8014 539.839 45.799 539.874 45.7954L539.767 45.8024ZM541.085 44.1735C541.158 44.7148 540.898 45.211 540.477 45.5185C540.9 45.2099 541.162 44.7177 541.085 44.1735ZM541.085 44.1735C541.078 44.1248 541.067 44.0684 541.055 44.019L541.085 44.1735ZM531.622 33.6579C530.786 34.6279 530.377 35.7859 530.723 36.9445C530.346 35.6837 530.863 34.4235 531.853 33.4057L531.622 33.6579ZM541.469 26.4782C541.122 25.895 540.466 25.4079 539.68 25.4479L539.521 25.4626L539.509 25.4645C538.906 25.561 538.465 25.8614 538.114 26.1852C537.942 26.3442 537.784 26.5154 537.642 26.6725L537.576 26.7447C537.455 26.8795 537.342 27.0041 537.225 27.1217L531.423 32.987C530.721 33.7087 530.201 34.5779 530.047 35.529C529.89 36.4975 530.122 37.4964 530.829 38.4245C531.014 38.6675 531.253 38.8969 531.444 39.0805C531.495 39.1298 531.544 39.1764 531.586 39.2184L536.65 44.2712C536.794 44.413 536.939 44.572 537.099 44.7484C537.144 44.7982 537.191 44.8494 537.239 44.902C537.45 45.1324 537.686 45.3827 537.939 45.6071C538.436 46.0464 539.104 46.4761 539.935 46.3922L539.974 46.3883L540.012 46.3796C541.061 46.1327 541.944 45.0964 541.637 43.8727C541.592 43.693 541.497 43.5236 541.409 43.3874C541.315 43.2418 541.199 43.0886 541.072 42.9352C540.819 42.6282 540.499 42.2875 540.173 41.9577C539.862 41.6436 539.513 41.3056 539.205 41.0114L538.492 40.3268L534.232 36.0514L540.567 29.6364C540.614 29.5898 540.666 29.5392 540.722 29.4853C540.939 29.2755 541.209 29.0143 541.414 28.7311C541.947 27.9947 541.844 27.1097 541.469 26.4782Z" fill="#1A1A29"/>
<path d="M555.4 21.525C555.018 21.1853 554.492 20.9583 553.923 21.0064L553.908 21.0074L553.893 21.0094C553.445 21.0699 553.073 21.234 552.773 21.4859C552.479 21.7333 552.284 22.0407 552.146 22.3472C552.01 22.651 551.921 22.9754 551.851 23.2701C551.819 23.4003 551.793 23.5175 551.768 23.6287C551.731 23.7913 551.697 23.942 551.655 24.1012L546.127 44.9762C546.083 45.1396 546.008 45.3877 545.917 45.6949L545.878 45.8248C545.77 46.1864 545.645 46.6071 545.53 47.0269C545.416 47.4453 545.308 47.8725 545.235 48.2447C545.168 48.5888 545.111 48.974 545.151 49.2623C545.314 50.4138 546.272 51.0919 547.337 51.0787H547.354L547.371 51.0777C547.816 51.0469 548.189 50.89 548.487 50.6392C548.777 50.396 548.97 50.0867 549.106 49.7847C549.303 49.3509 549.422 48.8219 549.513 48.4145V48.4145C549.541 48.2917 549.567 48.1772 549.591 48.0826L555.77 24.5426C555.794 24.453 555.824 24.3576 555.858 24.2484L555.867 24.2203L555.878 24.1863C555.912 24.0767 555.95 23.9555 555.983 23.8326C556.056 23.5674 556.126 23.2396 556.102 22.9049C556.064 22.3546 555.781 21.864 555.4 21.525ZM547.191 50.4754L547.181 50.4752C547.124 50.4714 547.069 50.4651 547.014 50.4563C546.96 50.4475 546.906 50.4362 546.854 50.4225C546.697 50.3814 546.55 50.3185 546.418 50.2358C546.368 50.2048 546.32 50.171 546.275 50.1344C546.199 50.0736 546.13 50.0052 546.068 49.9298C546.098 49.9657 546.129 49.9999 546.161 50.0325C546.424 50.2946 546.787 50.4507 547.191 50.4754Z" fill="#1A1A29"/>
</svg>
